<svg width="176" height="137" fill="none" xmlns="http://www.w3.org/2000/svg"><path d="M168.409 51.21l-3.816-4.04-13.395-36.107c-2.282-6.099-8.119-10.14-14.63-10.177H40.896c-6.51 0-12.348 4.078-14.63 10.177L13.058 46.721l-5.5 5.088A21.498 21.498 0 000 68.16v52.607c.037 8.606 7.034 15.565 15.64 15.565h9.878c8.605 0 15.602-6.959 15.64-15.565v-7.633h92.791v7.633c.038 8.606 7.035 15.565 15.64 15.565h9.878c8.606 0 15.603-6.959 15.64-15.565V66.776a21.693 21.693 0 00-6.698-15.565zM33.3 13.608a8.092 8.092 0 017.596-5.238h95.71a8.145 8.145 0 017.595 5.238l11.674 31.43h-8.718c-2.058-14.031-15.116-23.722-29.147-21.627a25.638 25.638 0 00-21.626 21.627H21.626L33.3 13.607zm106.224 31.43h-35.582c2.058-9.84 11.711-16.126 21.551-14.069a18.219 18.219 0 0114.031 14.069zm-105.85 75.73a8.136 8.136 0 01-8.156 8.082H15.64a8.136 8.136 0 01-8.157-8.082v-9.803c2.245 1.459 5.201 2.17 8.157 2.17h18.034v7.633zm133.95 0a8.137 8.137 0 01-8.157 8.082h-9.878c-4.49 0-8.119-3.63-8.156-8.082v-7.633h18.034c2.956 0 5.912-.711 8.157-2.17v9.803zm-8.157-15.116H15.64c-4.453.037-8.12-3.517-8.157-8.007V68.16c0-4.116 1.834-8.044 4.977-10.701l.15-.15 5.088-4.789h141.694l3.592 3.854c.038.075.15.112.187.187a14.102 14.102 0 014.415 10.215v30.868h.038c-.038 4.452-3.704 8.044-8.157 8.007z" fill="#fff"/><path d="M49.39 67.487H21.326a3.753 3.753 0 00-3.742 3.741v19.457a3.753 3.753 0 003.742 3.741H49.39a3.753 3.753 0 003.742-3.742V71.228a3.753 3.753 0 00-3.742-3.741zm-3.742 19.456h-20.58V74.97h20.58v11.973zM153.78 67.487h-28.062a3.752 3.752 0 00-3.741 3.741v19.457a3.752 3.752 0 003.741 3.741h28.062a3.753 3.753 0 003.742-3.742V71.228a3.753 3.753 0 00-3.742-3.741zm-3.741 19.456H129.46V74.97h20.579v11.973zm-44.413-3.742H69.482a3.753 3.753 0 00-3.742 3.742 3.753 3.753 0 003.742 3.741h36.144a3.752 3.752 0 003.741-3.741 3.752 3.752 0 00-3.741-3.742zm0-11.599H69.482a3.753 3.753 0 00-3.742 3.742 3.753 3.753 0 003.742 3.741h36.144a3.752 3.752 0 003.741-3.741 3.752 3.752 0 00-3.741-3.742z" fill="#fff"/></svg>