<svg width="186" height="187" fill="none" xmlns="http://www.w3.org/2000/svg"><path d="M140.949 1.444H43.167C38.113 1.444 34 5.588 34 10.682c0 5.093 4.113 9.238 9.167 9.238h97.782c5.054 0 9.167-4.145 9.167-9.238 0-5.094-4.113-9.238-9.167-9.238zm0 12.317H43.167c-1.684 0-3.056-1.38-3.056-3.08 0-1.699 1.372-3.079 3.056-3.079h97.782c1.684 0 3.056 1.38 3.056 3.08 0 1.7-1.373 3.079-3.056 3.079zm0 153.968H43.167c-5.054 0-9.167 4.145-9.167 9.238 0 5.094 4.113 9.238 9.167 9.238h97.782c5.054 0 9.167-4.144 9.167-9.238 0-5.093-4.113-9.238-9.167-9.238zm0 12.318H43.167c-1.684 0-3.056-1.38-3.056-3.08 0-1.699 1.372-3.079 3.056-3.079h97.782c1.684 0 3.056 1.38 3.056 3.079 0 1.7-1.373 3.08-3.056 3.08z" fill="#fff"/><path d="M113.833 82.394c15.517-15.637 24.06-36.426 24.06-58.536V16.84c0-1.702-1.369-3.079-3.055-3.079h-85.56c-1.686 0-3.055 1.377-3.055 3.08v7.017c0 22.113 8.543 42.899 24.057 58.536l3.071 3.095a11.915 11.915 0 013.428 8.336c0 3.104-1.25 6.14-3.425 8.336l-3.071 3.094c-15.517 15.637-24.06 36.423-24.06 58.536v7.018c0 1.703 1.369 3.079 3.055 3.079h85.559c1.687 0 3.056-1.376 3.056-3.079v-7.018c0-22.11-8.544-42.899-24.061-58.536l-3.07-3.094a11.755 11.755 0 01-3.426-8.336c0-3.15 1.216-6.11 3.426-8.336l3.071-3.095zm-7.392-1.26c-3.364 3.388-5.216 7.893-5.216 12.69 0 4.798 1.852 9.303 5.216 12.691l3.071 3.094c14.362 14.474 22.27 33.716 22.27 54.182v3.938H52.334v-3.938c0-20.469 7.908-39.708 22.267-54.182l3.07-3.094c3.368-3.388 5.22-7.896 5.22-12.69 0-4.795-1.852-9.303-5.216-12.69l-3.071-3.095c-14.362-14.474-22.27-33.717-22.27-54.182V19.92h79.448v3.938c0 20.466-7.908 39.708-22.27 54.182l-3.071 3.094z" fill="#fff"/><path d="M117.882 53.322c-.309-.782-1.36-2.608-4.434-2.608-15.877 0-22.951-3.428-25.756-5.473-3.5-2.552-7.988-3.22-12.019-1.783-3.847 1.37-6.664 4.42-7.724 8.36-.275 1.026-.324 1.691-.324 1.691a3.272 3.272 0 00.382 1.796c2.863 5.115 6.166 10.51 10.92 15.301l3.068 3.095c4.52 4.548 7.007 10.602 7.007 17.044 0 1.703 1.37 3.08 3.056 3.08s3.055-1.377 3.055-3.08c0-6.439 2.487-12.493 7.004-17.044l3.074-3.098c.755-.758 1.738-1.694 2.82-2.716 7.9-7.486 11.222-11.129 9.871-14.565zM103.82 63.4c-1.131 1.074-2.164 2.054-2.952 2.848l-3.074 3.098a30.247 30.247 0 00-5.739 8.062 30.233 30.233 0 00-5.739-8.062l-3.068-3.095c-3.752-3.784-6.499-7.95-9.356-12.973.755-2.571 2.71-3.619 3.82-4.016 2.132-.76 4.525-.4 6.395.967 3.893 2.84 11.569 6.187 26.273 6.6-1.888 2.142-4.852 4.954-6.56 6.57zm21.64 94.851c-.767-9.983-4.739-14.128-9.335-18.932-.62-.65-1.268-1.324-1.931-2.039-3.838-4.132-9.259-6.503-14.879-6.503H84.799c-5.616 0-11.04 2.371-14.878 6.503-.663.715-1.308 1.386-1.928 2.036-4.6 4.804-8.572 8.952-9.336 18.938-.067.856.226 1.7.804 2.331.58.629 1.39.986 2.243.986h60.71c.849 0 1.662-.357 2.243-.989a3.11 3.11 0 00.804-2.331zm-60.277-2.839c1.036-5.377 3.505-7.951 7.209-11.819a207.34 207.34 0 001.992-2.106 14.25 14.25 0 0110.414-4.551h14.517c3.936 0 7.731 1.659 10.417 4.548.688.745 1.354 1.438 1.999 2.113 3.7 3.867 6.166 6.442 7.205 11.815H65.183zm26.784-55.429c-1.687 0-3.056 1.376-3.056 3.079v3.08c0 1.703 1.37 3.079 3.056 3.079s3.055-1.376 3.055-3.079v-3.08c0-1.703-1.369-3.079-3.055-3.079zm0 15.397c-1.687 0-3.056 1.376-3.056 3.079v3.079c0 1.703 1.37 3.08 3.056 3.08s3.055-1.377 3.055-3.08v-3.079c0-1.702-1.369-3.079-3.055-3.079z" fill="#fff"/></svg>