<svg width="192" height="193" fill="none" xmlns="http://www.w3.org/2000/svg"><g clip-path="url(#clip0)" fill="#fff"><path d="M188.037 105.581c-11.878 0-21.547-9.669-21.547-21.547v-3.078h-30.781V.924H32.856L.27 33.51v145.947h124.194a74.225 74.225 0 0019.265 12.063l1.213.52 1.213-.52a74.09 74.09 0 0044.959-68.18v-17.758h-3.078zM10.78 31.706l20.272-20.273v20.273H10.78zm7.96 6.156h18.468V19.393h80.032v30.782h-98.5V37.861zm-12.313 0h6.156v18.469h110.813V13.237H37.208V7.08h92.344v73.875h-6.156v3.078c0 11.878-9.669 21.547-21.547 21.547h-3.078v17.758c0 18.89 7.154 36.568 19.365 49.961H6.426V37.862zm178.532 85.477a67.944 67.944 0 01-40.016 61.991 67.943 67.943 0 01-40.016-61.991v-11.772c12.821-1.421 23.031-11.631 24.453-24.452h31.124c1.422 12.82 11.631 23.031 24.452 24.452v11.772h.003z"/><path d="M158.195 125.565l8.046-18.774-5.658-2.423-7.763 18.116a21.396 21.396 0 00-7.877-1.512c-11.878 0-21.547 9.669-21.547 21.547s9.669 21.547 21.547 21.547 21.547-9.669 21.547-21.547c0-6.882-3.257-13.006-8.295-16.954zm-13.252 32.344c-8.486 0-15.39-6.904-15.39-15.39s6.904-15.391 15.39-15.391c1.921 0 3.743.397 5.44 1.043l-6.812 15.89-6.156-4.103L134 145.08l12.312 8.209 9.337-21.787c2.881 2.798 4.685 6.696 4.685 11.017 0 8.486-6.905 15.39-15.391 15.39zm-132.36 9.235h80.032v-55.407H12.583v55.407zm6.156-49.25h67.72v43.094h-67.72v-43.094zm6.157-55.407h67.719v6.156h-67.72v-6.156zm-12.313 0h6.156v6.156h-6.156v-6.156zm0 12.313h80.032v6.156H12.583V74.8zm0 12.312h80.032v6.156H12.583v-6.156zm0 12.313h80.032v6.156H12.583v-6.156z"/></g><defs><clipPath id="clip0"><path fill="#fff" transform="translate(0 .924)" d="M0 0h191.116v191.116H0z"/></clipPath></defs></svg>