<svg width="194" height="194" fill="none" xmlns="http://www.w3.org/2000/svg"><g clip-path="url(#clip0)"><path d="M159.27 102.738a2.808 2.808 0 00-2.808 2.808 3.57 3.57 0 01-3.567 3.567 3.57 3.57 0 01-3.566-3.567 2.809 2.809 0 00-5.618 0c0 5.065 4.12 9.184 9.184 9.184 5.064 0 9.184-4.12 9.184-9.184a2.807 2.807 0 00-2.809-2.808z" fill="#fff"/><path d="M185.636 103.196l-7.906-2.532a3.305 3.305 0 01-2.134-2.163 50.99 50.99 0 00-7.474-14.782 54.27 54.27 0 00-4.992-5.89c1.166-5.116 1.8-10.906 1.718-15.91-.118-7.156-1.548-11.353-4.372-12.833-1.521-.797-6.15-3.22-31.206 8.25a9.095 9.095 0 00-1.661.988 108.932 108.932 0 00-5.153-1.25c-.209-.046-.425-.087-.635-.131a38.255 38.255 0 003.438-14.226 2.807 2.807 0 00-2.68-2.932 2.806 2.806 0 00-2.932 2.68 32.636 32.636 0 01-9.55 21.664 32.522 32.522 0 01-11.833 7.558 81.455 81.455 0 00-22.609 0 32.514 32.514 0 01-11.832-7.558c-6.18-6.18-9.584-14.397-9.584-23.137s3.404-16.957 9.584-23.137S78.22 8.271 86.96 8.271s16.957 3.404 23.137 9.584a32.713 32.713 0 016.099 8.423 2.81 2.81 0 005.018-2.527 38.287 38.287 0 00-7.145-9.869C106.828 6.642 97.201 2.653 86.96 2.653c-10.24 0-19.868 3.988-27.11 11.23-7.24 7.24-11.228 16.868-11.228 27.109 0 10.24 3.988 19.868 11.229 27.109a38.312 38.312 0 006.765 5.39h.002c-1.747.453-3.48.963-5.194 1.536a2.809 2.809 0 001.781 5.328c15.319-5.12 32.192-5.12 47.51 0a2.809 2.809 0 101.781-5.328 79.074 79.074 0 00-5.193-1.537h.002a38.264 38.264 0 0011.66-11.4 104.78 104.78 0 015.308 1.174c-.031.122-.063.244-.089.368-1.37 6.5-1.281 12.25.264 17.088 1.389 4.348 3.895 7.871 7.449 10.471 4.189 3.064 9.245 4.388 13.826 4.388 3.447 0 6.625-.75 8.96-2.073 2.64-1.495 4.852-4.646 6.603-9.377a47.612 47.612 0 012.299 2.903 45.343 45.343 0 016.652 13.155 8.937 8.937 0 005.78 5.828l7.906 2.532a4.975 4.975 0 013.468 4.752v13.109a4.974 4.974 0 01-3.468 4.752l-12.738 4.08c-2.037.653-3.762 2.054-4.856 3.944-5.004 8.648-12.872 15.805-23.386 21.272a4.4 4.4 0 00-2.309 3.102l-4.08 21.601a1.261 1.261 0 01-1.239 1.027H122.05a1.263 1.263 0 01-1.24-1.027l-2.259-11.938a4.414 4.414 0 00-5.019-3.55 117.421 117.421 0 01-17.498 1.302c-4.387 0-8.718-.245-12.874-.728-2.297-.264-4.438 1.302-4.867 3.571l-2.147 11.343a1.262 1.262 0 01-1.24 1.027H61.64a1.265 1.265 0 01-1.24-1.036l-3.929-20.402a4.412 4.412 0 00-2.266-3.067c-17.923-9.567-27.396-25.552-27.396-46.225 0-10.445 2.285-19.681 6.792-27.453 4.205-7.252 10.348-13.249 18.256-17.823a2.81 2.81 0 00-2.813-4.864c-15.335 8.871-24.584 22.556-27.13 39.939-.27-.025-.54-.049-.81-.077a13.986 13.986 0 00-1.03-5.604c-1.63-4.05-4.977-6.975-8.528-7.448-2.799-.375-5.462.813-7.31 3.255-2.68 3.541-2.243 6.344-1.405 8.071 1.415 2.915 5.051 4.977 11.086 6.273-.166.249-.348.498-.548.749-3.566 4.472-7.767 5.461-10.494 5.554-1.597.054-2.876 1.336-2.876 2.934v.013a2.941 2.941 0 002.818 2.934c.202.009.413.014.632.014 3.452 0 8.991-1.273 14.313-7.946a16.017 16.017 0 002.051-3.313c.53.06 1.04.111 1.527.156v-.003a73.798 73.798 0 00-.148 4.639c0 11.696 2.788 22.125 8.287 30.998 5.07 8.18 12.33 14.878 21.583 19.915l3.82 19.835a6.885 6.885 0 006.758 5.6h13.265a6.885 6.885 0 006.76-5.6l1.94-10.257c4.033.427 8.207.644 12.427.644 5.791 0 11.574-.404 17.211-1.2l2.046 10.813a6.886 6.886 0 006.76 5.6h13.264a6.886 6.886 0 006.76-5.601l3.972-21.032c11.221-5.933 19.68-13.728 25.145-23.174a3.073 3.073 0 011.708-1.407l12.737-4.08a10.575 10.575 0 007.372-10.103v-13.109c0-4.63-2.963-8.689-7.372-10.102zm-26.828-33.383c-1.081 9.246-3.981 17.154-6.895 18.805-3.312 1.876-10.959 2.238-16.7-1.962-5.748-4.204-7.661-11.766-5.533-21.866.214-1.014.935-1.892 1.928-2.347 14.062-6.437 22.17-8.542 25.182-8.542.454 0 .793.047 1.018.136.905.964 2.092 6.445 1 15.776zM7.887 101c-.291-.599.395-1.653.83-2.228.69-.911 1.325-1.097 1.805-1.097.101 0 .196.008.282.02 1.292.172 3.101 1.593 4.06 3.976a8.53 8.53 0 01.588 2.649c-3.889-.806-6.91-1.967-7.565-3.32z" fill="#fff"/><g clip-path="url(#clip1)"><path d="M90.61 40.643c6.065 0 10.998-4.933 10.998-10.997s-4.933-10.998-10.997-10.998a.83.83 0 00-.071.002h-8.986a1.94 1.94 0 00-1.94 1.94v23.935h-1.942a1.94 1.94 0 000 3.881h1.941v10.998a1.94 1.94 0 003.882 0V48.406h7.116a1.94 1.94 0 000-3.881h-7.116v-3.882h7.116zm0-18.112h.063a7.124 7.124 0 017.054 7.115 7.124 7.124 0 01-7.116 7.116h-7.116v-14.23h7.116z" fill="#fff"/></g></g><defs><clipPath id="clip0"><path fill="#fff" transform="translate(0 .725)" d="M0 0h193.008v193.008H0z"/></clipPath><clipPath id="clip1"><path fill="#fff" transform="translate(67.468 18.648)" d="M0 0h42.696v42.696H0z"/></clipPath></defs></svg>