<svg width="194" height="142" fill="none" xmlns="http://www.w3.org/2000/svg"><path d="M156.632 77.976l-15.504 15.652a10.115 10.115 0 00-.646-.72l-20.023-20.213a2.815 2.815 0 00-4.008 0 2.88 2.88 0 000 4.046l20.022 20.213a4.49 4.49 0 01.001 6.302 4.39 4.39 0 01-6.243 0l-11.126-11.232a2.816 2.816 0 00-4.009 0 2.88 2.88 0 000 4.046l11.126 11.232.002.002a4.447 4.447 0 011.291 3.15c0 1.19-.459 2.309-1.293 3.151a4.367 4.367 0 01-3.121 1.305 4.365 4.365 0 01-3.121-1.305l-11.126-11.232a2.815 2.815 0 00-4.009 0 2.88 2.88 0 000 4.046l11.126 11.232a4.49 4.49 0 01.001 6.302 4.366 4.366 0 01-3.122 1.306 4.365 4.365 0 01-3.121-1.305l-11.126-11.232a2.815 2.815 0 00-4.009 0 2.88 2.88 0 000 4.046L105.72 128a4.49 4.49 0 010 6.302 4.361 4.361 0 01-3.121 1.305 4.363 4.363 0 01-3.121-1.305l-7.208-7.276c2.297-3.864 1.799-8.961-1.497-12.287l-.171-.173a9.892 9.892 0 00-8.043-2.889 10.022 10.022 0 00-2.893-6.424 9.88 9.88 0 00-4.653-2.649 10.13 10.13 0 00.665-3.62 10.04 10.04 0 00-2.918-7.111 9.85 9.85 0 00-7.045-2.946c-1.516 0-2.98.341-4.308.985a10.013 10.013 0 00-2.536-4.37 9.908 9.908 0 00-14.09 0l-1.168 1.18-.852-.86a7.312 7.312 0 01-2.126-5.18v-7.463c0-.759-.298-1.486-.83-2.023l-12.1-12.215 3.403-3.435a2.88 2.88 0 000-4.046 2.815 2.815 0 00-4.009 0l-4.557 4.6a2.193 2.193 0 01-3.118 0L4.839 41.376a2.815 2.815 0 00-4.009 0 2.88 2.88 0 000 4.047l14.586 14.724a7.811 7.811 0 005.567 2.324c.645 0 1.289-.088 1.918-.247l12.066 12.18v6.277c0 3.485 1.344 6.762 3.785 9.226l.853.86-.949.958a10.04 10.04 0 00-2.918 7.112c0 2.687 1.036 5.212 2.918 7.111a9.884 9.884 0 007.045 2.941l.121-.003c0 .043-.003.085-.003.127 0 2.687 1.036 5.213 2.918 7.112a9.852 9.852 0 007.044 2.945l.126-.003a10.075 10.075 0 002.91 7.234 9.884 9.884 0 007.045 2.941l.126-.003a10.076 10.076 0 002.91 7.239l.17.172a9.848 9.848 0 007.045 2.946 9.848 9.848 0 007.044-2.946l5.316-5.365 6.997 7.064a9.97 9.97 0 007.13 2.981 9.97 9.97 0 007.129-2.981 10.2 10.2 0 002.945-7.372c.059.001.117.004.177.004a9.97 9.97 0 007.13-2.981 10.202 10.202 0 002.944-7.376c.059.001.118.004.177.004 2.581 0 5.164-.993 7.129-2.977a10.156 10.156 0 002.953-7.197c0-.06-.003-.119-.004-.179.058.002.115.005.172.005 2.582 0 5.165-.993 7.13-2.977 2.138-2.158 3.11-5.051 2.924-7.88l17.235-17.4a2.88 2.88 0 000-4.046 2.816 2.816 0 00-4.009 0zM42.664 101.902a4.327 4.327 0 01-1.257-3.065c0-1.158.446-2.246 1.257-3.065l6.126-6.184a4.26 4.26 0 013.036-1.268c1.1 0 2.199.423 3.036 1.268a4.369 4.369 0 010 6.13l-6.126 6.184a4.27 4.27 0 01-6.072 0zm13.117 11.446a4.245 4.245 0 01-3.036-1.27 4.325 4.325 0 01-1.258-3.064c0-1.158.447-2.247 1.258-3.065l6.126-6.184 3.808-3.845a4.245 4.245 0 013.036-1.27c1.147 0 2.225.451 3.036 1.27a4.328 4.328 0 011.258 3.065 4.33 4.33 0 01-1.258 3.065l-9.935 10.029a4.247 4.247 0 01-3.035 1.269zm7.044 8.907a4.369 4.369 0 010-6.13l6.761-6.826a4.26 4.26 0 013.036-1.267c1.1 0 2.2.422 3.036 1.267a4.329 4.329 0 011.258 3.065 4.324 4.324 0 01-1.257 3.063l-6.762 6.827a4.269 4.269 0 01-6.072.001zm16.323 10.349a4.247 4.247 0 01-3.036 1.269 4.247 4.247 0 01-3.035-1.269l-.171-.173a4.368 4.368 0 010-6.13l6.76-6.825a.068.068 0 00.007-.006l.848-.857a4.26 4.26 0 013.037-1.267c1.1 0 2.199.422 3.035 1.267l.17.172a4.368 4.368 0 010 6.13l-7.615 7.689z" fill="#fff"/><path d="M192.269 53.432a2.816 2.816 0 00-4.009 0l-10.621 10.723a.383.383 0 01-.536.006l-37.55-36.21a.374.374 0 01-.119-.276.377.377 0 01.113-.278l22.271-22.483a2.88 2.88 0 000-4.047 2.815 2.815 0 00-4.008 0L135.538 23.35a6.096 6.096 0 00-1.772 4.391 6.097 6.097 0 001.247 3.635l-10.192 10.09-9.603-5.406a8.403 8.403 0 00-4.115-1.08H83.818l-2.076-2.096a19.09 19.09 0 00-6.75-4.414l-7.554-2.905-3.49-3.524c1.804-3.052 1.416-7.067-1.185-9.692L51.39.867a2.816 2.816 0 00-4.008 0 2.88 2.88 0 000 4.047l11.373 11.481c.86.868.86 2.28 0 3.148L35.641 42.877a2.88 2.88 0 000 4.046 2.814 2.814 0 004.009 0l20.464-20.66 3.744 3.78c.283.286.622.508.995.651l8.12 3.123a13.456 13.456 0 014.654 3.01 8.36 8.36 0 00-.502.46L66.345 48.17a11.413 11.413 0 00-3.317 8.085c0 3.054 1.178 5.926 3.317 8.085a11.237 11.237 0 008.006 3.364c2.538 0 5.085-.865 7.195-2.616l8.158-6.77H98.2l9.709 9.801a2.816 2.816 0 004.009 0 2.88 2.88 0 000-4.046l-7.014-7.081a2.86 2.86 0 00.445-1.536c0-1.58-1.268-2.861-2.834-2.861H88.688c-.657 0-1.293.23-1.8.651l-8.942 7.421a5.598 5.598 0 01-7.593-.373 5.7 5.7 0 01-1.657-4.038 5.7 5.7 0 011.657-4.038l10.78-10.883c.403-.408.94-.632 1.51-.632h28.46c.473 0 .94.123 1.354.355l10.62 5.98a4.105 4.105 0 004.878-.66l11.102-10.99 30.565 29.474-4.449 4.492a2.88 2.88 0 000 4.046 2.814 2.814 0 004.009 0l4.577-4.62a6.02 6.02 0 003.607 1.197c1.556 0 3.11-.593 4.281-1.776l10.622-10.722a2.883 2.883 0 000-4.047z" fill="#fff"/></svg>