<svg width="194" height="194" fill="none" xmlns="http://www.w3.org/2000/svg"><path d="M192.635 105.918c-1.733-18.158-9.52-35.277-21.927-48.204-10.604-11.046-23.582-18.144-37.239-21.3v-9.979c5.578-1.445 9.724-6.705 9.724-12.957 0-7.362-5.75-13.352-12.817-13.352h-27.142c-7.068 0-12.817 5.99-12.817 13.352 0 6.252 4.146 11.511 9.723 12.957v10.006C86.526 39.611 73.59 46.7 63.017 57.715a78.79 78.79 0 00-6.4 7.567c-.095-.007-.19-.015-.287-.015H29.467c-2.082 0-3.77 1.758-3.77 3.927 0 2.17 1.688 3.928 3.77 3.928h22.02a80.311 80.311 0 00-6.69 15.094H3.77c-2.082 0-3.77 1.758-3.77 3.927 0 2.17 1.688 3.928 3.77 3.928h38.897a83.006 83.006 0 00-1.87 15.095h-16.67c-2.082 0-3.77 1.758-3.77 3.927s1.688 3.927 3.77 3.927h16.79a82.803 82.803 0 002.353 15.095H18.85c-2.082 0-3.77 1.758-3.77 3.927s1.688 3.927 3.77 3.927h26.827c3.698 10.192 9.478 19.744 17.34 27.935 12.42 12.939 28.87 21.053 46.319 22.849 2.49.256 4.982.383 7.471.383 14.71 0 29.234-4.435 41.557-12.795 1.744-1.184 2.238-3.617 1.102-5.434-1.137-1.818-3.472-2.332-5.216-1.148-26.976 18.3-63.102 14.343-85.901-9.408-26.75-27.869-26.75-73.213 0-101.082 26.75-27.868 70.277-27.868 97.028 0 22.769 23.72 26.588 61.324 9.08 89.412-1.134 1.819-.638 4.252 1.108 5.432 1.747 1.182 4.081.665 5.215-1.155 9.354-15.007 13.565-33.133 11.856-51.04zm-94.679-92.44c0-3.031 2.368-5.497 5.278-5.497h27.142c2.91 0 5.278 2.466 5.278 5.498 0 3.031-2.368 5.498-5.278 5.498h-27.142c-2.91 0-5.278-2.467-5.278-5.498zm9.723 21.613v-8.26h18.251v8.246a73.757 73.757 0 00-18.251.014z" fill="#fff"/><path d="M168.043 163.198c-.995 0-1.964.42-2.665 1.15a4.027 4.027 0 00-1.105 2.777c0 1.033.4 2.046 1.105 2.776a3.698 3.698 0 002.665 1.151 3.71 3.71 0 002.665-1.151 4.041 4.041 0 000-5.553 3.73 3.73 0 00-2.665-1.15zM116.862 52.886c-32.245 0-58.48 27.33-58.48 60.923s26.235 60.922 58.48 60.922c32.246 0 58.48-27.329 58.48-60.922 0-33.593-26.234-60.922-58.48-60.922zm0 113.991c-28.088 0-50.94-23.806-50.94-53.068 0-29.262 22.852-53.068 50.94-53.068 28.089 0 50.94 23.806 50.94 53.068 0 29.262-22.851 53.068-50.94 53.068z" fill="#fff"/><path d="M140.708 83.413l-18.671 19.451a11.267 11.267 0 00-10.349 0l-8.356-8.705a3.665 3.665 0 00-5.332 0c-1.472 1.533-1.472 4.02 0 5.554l8.357 8.705a12.533 12.533 0 00-1.209 5.391c0 6.728 5.255 12.203 11.715 12.203 6.459 0 11.714-5.475 11.714-12.203 0-1.935-.437-3.764-1.209-5.391l18.124-18.88.548-.571c1.472-1.534 1.472-4.02 0-5.554a3.665 3.665 0 00-5.332 0zm-23.845 34.745c-2.302 0-4.175-1.951-4.175-4.349s1.873-4.349 4.175-4.349c2.301 0 4.174 1.951 4.174 4.349s-1.873 4.349-4.174 4.349zm40.305-8.229h-3.493c-2.082 0-3.77 1.759-3.77 3.928s1.688 3.927 3.77 3.927h3.493c2.081 0 3.769-1.758 3.769-3.927s-1.688-3.928-3.769-3.928zm-77.119-.095h-3.493c-2.081 0-3.77 1.758-3.77 3.927s1.689 3.927 3.77 3.927h3.493c2.081 0 3.77-1.758 3.77-3.927s-1.689-3.927-3.77-3.927zm36.859-30.449c2.081 0 3.77-1.759 3.77-3.928V71.82c0-2.169-1.689-3.927-3.77-3.927-2.082 0-3.77 1.758-3.77 3.927v3.638c0 2.17 1.688 3.928 3.77 3.928zm-.092 68.848c-2.081 0-3.769 1.758-3.769 3.927v3.638c0 2.169 1.688 3.927 3.769 3.927 2.082 0 3.77-1.758 3.77-3.927v-3.638c0-2.169-1.688-3.927-3.77-3.927zM3.77 134.114c-.992 0-1.964.42-2.665 1.15a4.044 4.044 0 000 5.553 3.721 3.721 0 002.665 1.151 3.72 3.72 0 002.664-1.151 4.04 4.04 0 000-5.553 3.722 3.722 0 00-2.664-1.15z" fill="#fff"/></svg>