<svg width="210" height="187" fill="none" xmlns="http://www.w3.org/2000/svg"><path d="M208.245 86.49l-38.596-32.943c.045-.225.09-.45.135-.72V9.743a4.805 4.805 0 00-4.644-4.732h-21.552c-2.48 0-4.509 2.208-4.509 4.732V27.59L108.193 1.272c-1.668-1.443-4.148-1.443-5.862 0L2.279 86.445C.34 88.022.115 90.862 1.693 92.8c1.578 1.938 4.418 2.163 6.357.586l.09-.09 97.122-82.65 34.764 29.608 20.786 17.666 41.617 35.421a4.505 4.505 0 006.357-.496 4.546 4.546 0 00-.541-6.354zm-47.523-40.559l-12.625-10.635V14.07h12.625v31.861z" fill="#fff"/><path d="M188.361 95.593l-12.67-10.815-67.498-57.64c-1.668-1.441-4.148-1.441-5.862 0l-67.498 57.64-12.67 10.815a4.5 4.5 0 00-.496 6.355 4.389 4.389 0 006.223.54l.045-.045 5.636-4.867v84.498c.045 2.524 2.119 4.597 4.644 4.642h134.049a4.727 4.727 0 004.645-4.642V97.576l5.636 4.867c.811.676 1.803 1.082 2.885 1.082 1.308 0 2.57-.586 3.427-1.577 1.668-1.938 1.398-4.777-.496-6.355zm-65.063 82.065H87.227v-48.671h36.071v48.671zm9.018 0v-53.042c0-2.479-1.849-4.642-4.329-4.642h-45.45c-2.48 0-4.328 2.163-4.328 4.642v53.042h-35.62V89.87l62.673-53.357 62.674 53.357v87.788h-35.62z" fill="#fff"/></svg>