<svg width="21" height="19" fill="none" xmlns="http://www.w3.org/2000/svg"><path d="M15.093 18.448c-.678 0-1.35-.106-2.007-.315-2.896-.924-5.583-2.43-7.773-4.352C3.124 11.857 1.411 9.495.36 6.952a4.523 4.523 0 01-.296-2.508 4.883 4.883 0 011.011-2.227A5.789 5.789 0 013.124.614 6.502 6.502 0 015.924 0c.31 0 .577.19.641.456l1.03 4.222a.532.532 0 01-.177.529l-1.76 1.546c1.66 2.9 4.354 5.266 7.655 6.725l1.76-1.546a.718.718 0 01.602-.156l4.807.905c.302.056.518.291.518.563 0 .874-.235 1.702-.7 2.46a5.539 5.539 0 01-1.824 1.8 6.436 6.436 0 01-2.535.889 6.643 6.643 0 01-.848.055zM20.344 9.8c-.363 0-.656-.258-.656-.577 0-4.45-4.122-8.07-9.187-8.07-.363 0-.657-.258-.657-.577 0-.318.294-.576.657-.576 2.804 0 5.44.96 7.424 2.701C19.908 4.444 21 6.76 21 9.223c0 .319-.294.577-.656.577z" fill="#FF6B00"/><path d="M17.719 9.8c-.363 0-.656-.258-.656-.577 0-3.178-2.944-5.764-6.562-5.764-.363 0-.657-.259-.657-.577 0-.318.294-.576.657-.576 4.342 0 7.874 3.103 7.874 6.917 0 .319-.294.577-.656.577z" fill="#FF6B00"/><path d="M15.094 9.8c-.362 0-.656-.258-.656-.576 0-1.908-1.767-3.46-3.938-3.46-.362 0-.656-.257-.656-.576 0-.318.294-.576.657-.576 2.894 0 5.25 2.069 5.25 4.612 0 .318-.294.576-.657.576z" fill="#FF6B00"/></svg>