<svg width="21" height="12" fill="none" xmlns="http://www.w3.org/2000/svg"><path d="M10.627 11.989c3.038 0 1.955-1.69 2.19-2.176-.004-.362-.008-.711.006-.923.193.047.647.25 1.585 1.05 1.448 1.284 1.818 2.049 2.988 2.049h2.153c.683 0 1.038-.248 1.216-.457.171-.201.34-.555.155-1.105-.48-1.325-3.282-3.614-3.456-3.855.026-.045.068-.104.09-.134h-.002c.553-.642 2.664-3.42 2.975-4.532l.001-.006c.168-.507.014-.836-.145-1.022-.24-.278-.621-.419-1.136-.419h-2.154c-.72 0-1.268.319-1.544.9-.463 1.035-1.763 3.16-2.738 3.913-.03-1.066-.01-1.88.006-2.485.031-1.18.133-2.328-1.26-2.328H8.171c-.874 0-1.71.838-.805 1.832.792.872.285 1.358.455 3.776-.665-.626-1.848-2.318-2.684-4.48C4.904 1.002 4.548.46 3.548.46H1.395C.52.46 0 .878 0 1.578c0 1.573 3.963 10.41 10.627 10.41z" fill="#FF6B00"/></svg>