<svg width="20" height="20" fill="none" xmlns="http://www.w3.org/2000/svg"><path d="M12.463 19.659a5.573 5.573 0 002.719.282 5.663 5.663 0 004.152-2.916A5.568 5.568 0 0020 14.359a.625.625 0 00-.494-.611l-4.578-.981a.625.625 0 00-.572.169l-1.677 1.676A16.451 16.451 0 015.39 7.32l1.676-1.676a.625.625 0 00.169-.573L6.253.494A.625.625 0 005.642 0a5.57 5.57 0 00-2.667.666A5.663 5.663 0 00.06 4.82a5.532 5.532 0 00.283 2.719A20.383 20.383 0 005.06 14.94a20.386 20.386 0 007.403 4.719zm6.912-9.034A.625.625 0 0118.75 10c0-4.825-3.925-8.75-8.75-8.75A.625.625 0 0110 0a9.934 9.934 0 017.071 2.929A9.934 9.934 0 0120 9.999c0 .346-.28.626-.625.626z" fill="#fff"/><path d="M16.875 10.625A.625.625 0 0116.25 10 6.257 6.257 0 0010 3.75a.625.625 0 010-1.25c4.136 0 7.5 3.364 7.5 7.5 0 .345-.28.625-.625.625z" fill="#fff"/><path d="M14.375 10.625A.625.625 0 0113.75 10 3.754 3.754 0 0010 6.25.625.625 0 0110 5c2.757 0 5 2.243 5 5 0 .345-.28.625-.625.625z" fill="#fff"/></svg>