<svg width="93" height="92" fill="none" xmlns="http://www.w3.org/2000/svg"><path d="M52.367 40H40.894v11.467h11.473V40z" fill="#5126FF"/><path d="M92.654 51.6V40.133H80.665a34.185 34.185 0 00-5.88-14.167l8.485-8.48-8.112-8.106-8.484 8.48A34.222 34.222 0 0052.5 11.982V0H41.027v11.983a34.29 34.29 0 00-14.174 5.87L18.369 9.38l-8.111 8.107 8.484 8.48a34.185 34.185 0 00-5.88 14.166H.873V51.6h11.989a34.185 34.185 0 005.88 14.167l-8.484 8.48 8.11 8.107 8.485-8.48a34.222 34.222 0 0014.174 5.877v11.982H52.5V79.751a34.289 34.289 0 0014.174-5.871l8.484 8.48 8.112-8.108-8.484-8.48a34.241 34.241 0 005.88-14.172h11.988zm-45.89 17.2c-12.655 0-22.946-10.286-22.946-22.933 0-12.648 10.291-22.934 22.946-22.934 12.654 0 22.945 10.286 22.945 22.934 0 12.647-10.291 22.933-22.945 22.933z" fill="#5126FF"/></svg>