<svg width="231" height="230" fill="none" xmlns="http://www.w3.org/2000/svg"><path d="M224.551 91.734h-20.112a90.443 90.443 0 00-6.981-18.386l15.448-15.44a5.728 5.728 0 000-8.107l-28.395-28.38a5.732 5.732 0 00-8.111 0l-14.243 14.236a91.024 91.024 0 00-17.915-8.067V5.734a5.733 5.733 0 00-5.736-5.733H98.352a5.733 5.733 0 00-5.737 5.733v20.101a91.29 91.29 0 00-18.207 6.863L56.31 17.155c-1.153-.992-2.713-1.468-4.17-1.37a5.747 5.747 0 00-3.924 1.978l-26.17 30.444a5.734 5.734 0 00.615 8.084l13.801 11.856a91.066 91.066 0 00-8.03 17.854H6.57a5.733 5.733 0 00-5.736 5.733v40.134a5.733 5.733 0 005.736 5.733h20.112a90.466 90.466 0 006.981 18.387l-15.448 15.44a5.724 5.724 0 00-1.68 4.053 5.72 5.72 0 001.68 4.054l28.395 28.38a5.733 5.733 0 008.111 0l14.243-14.236a91.572 91.572 0 0017.915 8.066v21.856a5.733 5.733 0 005.736 5.733h40.154a5.733 5.733 0 005.737-5.733V203.5a90.64 90.64 0 0018.39-6.978l15.448 15.44a5.733 5.733 0 008.112 0l28.394-28.38a5.725 5.725 0 000-8.107l-14.243-14.241a90.96 90.96 0 008.065-17.905h21.879a5.734 5.734 0 005.736-5.734V97.462a5.732 5.732 0 00-5.736-5.728zm-5.737 40.134h-20.398a5.742 5.742 0 00-5.53 4.202c-2.277 8.233-5.759 15.91-10.348 22.83a5.73 5.73 0 00.728 7.219l13.418 13.41-20.284 20.273-14.41-14.402a5.732 5.732 0 00-6.889-.935c-7.44 4.22-15.339 7.201-23.479 8.847a5.752 5.752 0 00-4.589 5.63v18.926H98.352V197.48a5.734 5.734 0 00-4.205-5.527c-8.232-2.276-15.913-5.751-22.837-10.337a5.743 5.743 0 00-7.227.722l-13.418 13.41-20.283-20.273 14.41-14.396a5.726 5.726 0 00.929-6.886c-4.216-7.43-7.2-15.325-8.851-23.472a5.748 5.748 0 00-5.628-4.587H12.307V97.468h20.398a5.741 5.741 0 005.53-4.203c2.3-8.336 5.834-16.1 10.492-23.065a5.728 5.728 0 00-1.039-7.528L34.495 51.337l18.689-21.74 16.721 14.356a5.724 5.724 0 006.54.653c7.29-4.07 15.04-6.96 23.054-8.588a5.741 5.741 0 004.589-5.625V11.468h28.681v20.387a5.734 5.734 0 004.205 5.527c8.226 2.27 15.907 5.75 22.837 10.337a5.75 5.75 0 007.227-.722l13.418-13.41 20.283 20.273-14.409 14.396a5.725 5.725 0 00-.93 6.886c4.216 7.43 7.199 15.325 8.857 23.472a5.737 5.737 0 005.622 4.587h18.935v28.667z" fill="#5126FF"/><path d="M115.561 57.334c-31.63 0-57.363 25.72-57.363 57.334 0 31.613 25.733 57.333 57.363 57.333s57.363-25.72 57.363-57.333c0-31.614-25.733-57.334-57.363-57.334zm0 103.2c-25.303 0-45.89-20.577-45.89-45.866 0-25.29 20.587-45.867 45.89-45.867s45.89 20.577 45.89 45.867c0 25.289-20.587 45.866-45.89 45.866z" fill="#5126FF"/></svg>