<svg width="81" height="82" fill="none" xmlns="http://www.w3.org/2000/svg"><g clip-path="url(#clip0)" fill="#5126FF"><path d="M40.5.501C18.169.501 0 18.67 0 41.001s18.169 40.5 40.5 40.5S81 63.332 81 41.001 62.831.501 40.5.501zm0 75.938C20.96 76.439 5.063 60.542 5.063 41c0-19.54 15.896-35.438 35.437-35.438 19.54 0 35.438 15.897 35.438 35.438 0 19.54-15.897 35.438-35.438 35.438z"/><path d="M43.031 15.688H37.97V42.05l15.929 15.93 3.58-3.58L43.03 39.953V15.688z"/></g><defs><clipPath id="clip0"><path fill="#fff" transform="translate(0 .501)" d="M0 0h81v81H0z"/></clipPath></defs></svg>