<svg width="317" height="317" fill="none" xmlns="http://www.w3.org/2000/svg"><path d="M303.91 121.564h-29.977a119.847 119.847 0 00-8.182-19.681l21.213-21.225a12.143 12.143 0 000-17.19L252.586 29.09a12.143 12.143 0 00-17.189 0l-21.213 21.213a120.405 120.405 0 00-19.681-8.169V12.156c0-6.71-5.434-12.156-12.157-12.156h-48.625c-6.723 0-12.157 5.446-12.157 12.156v29.978a120.405 120.405 0 00-19.681 8.17L80.67 29.101a12.143 12.143 0 00-17.19 0l-34.377 34.38a12.143 12.143 0 000 17.189l21.213 21.225a119.27 119.27 0 00-8.18 19.669H12.155C5.434 121.564 0 127.01 0 133.721v48.625c0 6.71 5.434 12.157 12.156 12.157h29.978a119.863 119.863 0 008.181 19.681l-21.213 21.225a12.143 12.143 0 000 17.189l34.379 34.378a12.141 12.141 0 0017.189 0l21.213-21.213a120.23 120.23 0 0019.681 8.17v29.977c0 6.711 5.434 12.157 12.157 12.157h48.625c6.723 0 12.157-5.446 12.157-12.157v-29.977a120.409 120.409 0 0019.681-8.17l21.213 21.213a12.141 12.141 0 0017.189 0l34.378-34.378a12.143 12.143 0 000-17.189l-21.213-21.225a120.938 120.938 0 008.182-19.681h29.977c6.723 0 12.157-5.447 12.157-12.157v-48.625c0-6.711-5.434-12.157-12.157-12.157zm-12.156 48.626h-27.109a12.157 12.157 0 00-11.852 9.457 96.956 96.956 0 01-12.485 30.075 12.156 12.156 0 001.69 15.074l19.195 19.207-17.19 17.19-19.195-19.195c-4.023-4.012-10.284-4.717-15.073-1.69-9.312 5.859-19.426 10.065-30.075 12.485a12.145 12.145 0 00-9.47 11.852v27.109h-24.313v-27.109c0-5.677-3.927-10.6-9.458-11.852-10.649-2.42-20.763-6.626-30.075-12.485a12.157 12.157 0 00-15.074 1.69l-19.195 19.195-17.189-17.19 19.195-19.207a12.156 12.156 0 001.69-15.074c-5.847-9.299-10.053-19.413-12.485-30.075a12.172 12.172 0 00-11.864-9.457h-27.11v-24.313h27.11a12.159 12.159 0 0011.852-9.458 96.944 96.944 0 0112.485-30.075 12.156 12.156 0 00-1.69-15.074L54.874 72.063l17.19-17.189 19.194 19.195a12.143 12.143 0 0015.074 1.69c9.312-5.86 19.426-10.066 30.075-12.485a12.147 12.147 0 009.47-11.852v-27.11h24.313v27.11c0 5.677 3.926 10.6 9.457 11.852 10.649 2.42 20.764 6.625 30.075 12.485a12.158 12.158 0 0015.074-1.69l19.195-19.195 17.189 17.19-19.195 19.206a12.156 12.156 0 00-1.689 15.074c5.847 9.3 10.053 19.414 12.484 30.075a12.174 12.174 0 0011.865 9.458h27.109v24.313z" fill="#FF6B00"/><path d="M158.034 97.251c-33.516 0-60.782 27.267-60.782 60.783 0 33.515 27.266 60.782 60.782 60.782 33.515 0 60.782-27.267 60.782-60.782 0-33.516-27.267-60.782-60.782-60.782zm0 97.252c-20.107 0-36.47-16.363-36.47-36.469 0-20.107 16.363-36.47 36.47-36.47 20.106 0 36.469 16.363 36.469 36.47 0 20.106-16.363 36.469-36.469 36.469z" fill="#FF6B00"/></svg>