<svg width="150" height="150" fill="none" xmlns="http://www.w3.org/2000/svg"><path d="M143.472 57.333h-14.145a56.568 56.568 0 00-3.861-9.282l10.01-10.01a5.725 5.725 0 000-8.107L119.254 13.72a5.732 5.732 0 00-8.111 0l-10.01 10.004a56.855 56.855 0 00-9.287-3.852V5.733A5.733 5.733 0 0086.109 0H63.164a5.733 5.733 0 00-5.736 5.733v14.139a56.837 56.837 0 00-9.287 3.852l-10.01-9.998a5.732 5.732 0 00-8.111 0L13.797 29.939a5.725 5.725 0 000 8.107l10.01 10.01a56.237 56.237 0 00-3.86 9.277H5.8a5.733 5.733 0 00-5.737 5.734V86A5.733 5.733 0 005.8 91.733h14.146a56.538 56.538 0 003.86 9.283l-10.01 10.01a5.725 5.725 0 000 8.107l16.223 16.214a5.732 5.732 0 008.11 0l10.01-10.005a56.665 56.665 0 009.288 3.853v14.138a5.734 5.734 0 005.736 5.734h22.945a5.734 5.734 0 005.737-5.734v-14.138a56.794 56.794 0 009.287-3.853l10.01 10.005a5.731 5.731 0 008.111 0l16.222-16.214a5.725 5.725 0 000-8.107l-10.01-10.01a57.089 57.089 0 003.861-9.283h14.145A5.733 5.733 0 00149.209 86V63.067a5.733 5.733 0 00-5.737-5.734zm-5.736 22.934h-12.792a5.737 5.737 0 00-5.593 4.46 45.704 45.704 0 01-5.891 14.184 5.732 5.732 0 00.797 7.11l9.058 9.058-8.111 8.107-9.058-9.053a5.74 5.74 0 00-7.113-.796 45.55 45.55 0 01-14.191 5.888 5.728 5.728 0 00-4.469 5.59V137.6H68.9v-12.785c0-2.678-1.853-5-4.463-5.59a45.55 45.55 0 01-14.191-5.888 5.739 5.739 0 00-7.113.796l-9.058 9.053-8.111-8.107 9.058-9.058a5.731 5.731 0 00.797-7.11 45.652 45.652 0 01-5.891-14.184 5.743 5.743 0 00-5.599-4.46H11.537V68.8H24.33a5.737 5.737 0 005.593-4.46 45.707 45.707 0 015.891-14.185 5.73 5.73 0 00-.797-7.11l-9.058-9.058 8.111-8.107 9.058 9.053a5.733 5.733 0 007.113.797 45.539 45.539 0 0114.192-5.888 5.73 5.73 0 004.468-5.59V11.467h11.473v12.785c0 2.678 1.853 5 4.463 5.59a45.54 45.54 0 0114.192 5.888 5.74 5.74 0 007.113-.797l9.057-9.053 8.111 8.107-9.057 9.059a5.731 5.731 0 00-.798 7.11 45.672 45.672 0 015.892 14.184 5.742 5.742 0 005.598 4.46h12.792v11.467z" fill="#FF6B00"/><path d="M74.637 45.867c-15.815 0-28.682 12.86-28.682 28.666 0 15.807 12.867 28.667 28.682 28.667 15.815 0 28.681-12.86 28.681-28.667 0-15.806-12.866-28.666-28.681-28.666zm0 45.866c-9.488 0-17.21-7.717-17.21-17.2s7.722-17.2 17.21-17.2 17.209 7.717 17.209 17.2-7.721 17.2-17.21 17.2z" fill="#FF6B00"/></svg>