<svg width="20" height="21" fill="none" xmlns="http://www.w3.org/2000/svg"><g clip-path="url(#clip0)" fill="#5126FF"><path d="M18.67 11.183a.586.586 0 010-.518l.746-1.526a1.736 1.736 0 00-.75-2.306l-1.5-.796a.586.586 0 01-.304-.419l-.293-1.673a1.736 1.736 0 00-1.962-1.425l-1.681.238a.586.586 0 01-.493-.16l-1.22-1.181a1.736 1.736 0 00-2.425 0l-1.22 1.181a.586.586 0 01-.494.16L5.393 2.52A1.736 1.736 0 003.43 3.945l-.293 1.673a.586.586 0 01-.304.42l-1.5.795a1.736 1.736 0 00-.75 2.306l.746 1.526c.08.165.08.353 0 .518l-.746 1.526a1.736 1.736 0 00.75 2.306l1.5.796a.586.586 0 01.304.419l.293 1.673a1.735 1.735 0 001.962 1.425l1.682-.238a.586.586 0 01.492.16l1.22 1.18a1.738 1.738 0 002.425 0l1.22-1.18a.587.587 0 01.494-.16l1.681.238a1.736 1.736 0 001.962-1.425l.293-1.673a.586.586 0 01.305-.42l1.5-.796a1.736 1.736 0 00.75-2.305l-.747-1.526zm-.544 2.813l-1.5.796a1.732 1.732 0 00-.9 1.238l-.294 1.673a.587.587 0 01-.663.482l-1.682-.237a1.732 1.732 0 00-1.456.473l-1.22 1.18a.588.588 0 01-.821 0l-1.22-1.18a1.73 1.73 0 00-1.457-.473l-1.682.237a.588.588 0 01-.663-.482l-.294-1.673a1.732 1.732 0 00-.9-1.238l-1.5-.796a.587.587 0 01-.254-.78l.746-1.526a1.732 1.732 0 000-1.532L1.62 8.632a.587.587 0 01.254-.78l1.5-.796c.478-.254.807-.705.9-1.239l.294-1.673a.587.587 0 01.663-.482l1.682.238a1.732 1.732 0 001.456-.473l1.22-1.18a.588.588 0 01.821 0l1.22 1.18c.39.377.92.55 1.457.473l1.682-.238a.588.588 0 01.663.482l.294 1.673c.093.534.421.985.9 1.24l1.5.795c.283.15.394.493.254.78l-.746 1.526a1.732 1.732 0 000 1.531l.746 1.526c.14.288.029.63-.254.78z"/><path d="M14.214 6.71a.577.577 0 00-.815 0l-7.613 7.612a.577.577 0 00.815.816l7.613-7.613a.577.577 0 000-.816zm-6.521-.977a2.117 2.117 0 00-2.115 2.115c0 1.166.949 2.115 2.115 2.115a2.117 2.117 0 002.115-2.115 2.117 2.117 0 00-2.115-2.115zm0 3.076a.962.962 0 010-1.922.962.962 0 010 1.922zm4.614 3.076A2.117 2.117 0 0010.192 14c0 1.166.949 2.115 2.115 2.115A2.117 2.117 0 0014.422 14a2.117 2.117 0 00-2.115-2.115zm0 3.076a.962.962 0 010-1.922.962.962 0 010 1.922z"/></g><defs><clipPath id="clip0"><path fill="#fff" transform="translate(0 .924)" d="M0 0h20v20H0z"/></clipPath></defs></svg>