<svg width="128" height="90" fill="none" xmlns="http://www.w3.org/2000/svg"><path d="M127.376 76.697a2.057 2.057 0 00-1.509-.675h-8.533V6.912c-.004-3.816-2.867-6.908-6.4-6.912H17.067c-3.533.004-6.396 3.096-6.4 6.911v69.111H2.134c-.566 0-1.109.242-1.51.675A2.4 2.4 0 000 78.326v3.677c-.002 2.311 1.068 4.47 2.85 5.75l1.29.93a6.042 6.042 0 003.552 1.161h112.616a6.035 6.035 0 003.55-1.16l1.29-.93c1.783-1.28 2.854-3.439 2.852-5.75v-3.678a2.395 2.395 0 00-.624-1.63zM14.933 6.91c.002-1.272.956-2.302 2.134-2.304h93.867c1.177.002 2.132 1.032 2.133 2.304v69.111H14.934V6.912zM7.692 85.237c-.421 0-.833-.135-1.183-.387l-1.294-.932c-.593-.426-.95-1.146-.948-1.916V80.63h42.667l3.2 4.607H7.692zm64.842 0H55.467l-3.2-4.608h23.467l-3.2 4.608zm51.2-3.234c.001.77-.356 1.49-.95 1.917l-1.294.93c-.35.253-.761.387-1.181.387H77.867l3.2-4.608h42.667v1.374z" fill="#FFFBFB"/><path d="M106.213 10.702H20.426v59.046h85.787V10.702zm-4.085 54.95H24.511V14.97h77.617v50.681z" fill="#FFFBFB"/><path d="M29.867 25.34a2.05 2.05 0 001.508-.674l2.134-2.304c.82-.902.814-2.349-.014-3.243a2.023 2.023 0 00-3.003-.014l-2.133 2.303c-.61.66-.792 1.65-.462 2.51.33.861 1.107 1.422 1.97 1.423zm0 13.823a2.05 2.05 0 001.508-.675L46.31 22.362c.82-.902.814-2.349-.014-3.243-.828-.893-2.168-.9-3.003-.014L28.36 35.23c-.61.659-.792 1.65-.462 2.51.33.861 1.107 1.423 1.97 1.423z" fill="#FFFBFB"/></svg>