<svg width="128" height="114" fill="none" xmlns="http://www.w3.org/2000/svg"><path d="M111.683 88.917H29.905c-1.035 0-1.873.742-1.873 1.657 0 .916.838 1.657 1.873 1.657h81.778c1.035 0 1.873-.741 1.873-1.657 0-.915-.838-1.657-1.873-1.657zM71.876 53.782c-2.205-.848-3.616-2.812-3.594-5.002.018-1.742.965-3.375 2.533-4.368.696-.44 1.123-1.134 1.172-1.904.048-.768-.288-1.498-.921-2.006-1.675-1.343-3.728-2.212-5.906-2.523.163-.148.322-.3.474-.46 2.008-2.11 2.803-4.953 2.238-8.005-.233-1.262-1.463-2.245-2.861-2.284-3.372-.097-6.345 1.013-8.353 3.124-1.96 2.06-2.761 4.819-2.273 7.788a12.76 12.76 0 00-3.018-.396h-.11c-6.237 0-11.355 4.433-11.693 10.141-.88 8.83 6.299 16.216 6.927 16.843 1.153 1.227 2.821 1.939 4.584 1.954a7.701 7.701 0 00.775-.042c.174-.019.336-.042.496-.072l.106-.02a6.61 6.61 0 00.552-.137l.021-.006a6.513 6.513 0 00.637-.223l.19-.078a8.622 8.622 0 016.557.055l.19.081.027.012.017.007.046.019a6.436 6.436 0 001.115.349l.105.023a6.861 6.861 0 001.265.134h.057c1.758 0 3.431-.693 4.598-1.908l-.002-.001c.671-.659 3.567-3.646 5.496-7.858.574-1.257-.075-2.71-1.447-3.237zM59.739 32.813c1.01-1.061 2.482-1.693 4.21-1.821.096 1.585-.386 3.007-1.396 4.068-1.01 1.062-2.483 1.694-4.21 1.822-.097-1.585.385-3.007 1.396-4.069zm5.087 29.527a1.995 1.995 0 00-.067.066 2.12 2.12 0 01-1.529.637h-.019c-.053 0-.115-.004-.193-.011l-.065-.01a2.174 2.174 0 01-.155-.024l-.044-.01a2.084 2.084 0 01-.177-.045l-.014-.005a2.036 2.036 0 01-.194-.07l-.05-.021-.19-.08a13.051 13.051 0 00-9.928-.085l-.2.08-.042.017a2.16 2.16 0 01-.388.115l-.035.007c-.056.01-.111.018-.165.024l-.064.007a2.116 2.116 0 01-1.729-.655 2.132 2.132 0 00-.062-.065c-.067-.066-6.632-6.643-5.878-14.015.002-.027.005-.053.006-.08.206-3.729 3.544-6.628 7.613-6.628h.073c.351.004.708.031 1.09.085.386.054.754.13 1.09.225.06.017.12.037.18.057l.229.071c.122.042.241.088.352.132l.067.025a7.78 7.78 0 01.371.161c.914.45 1.776.675 2.633.691h.047c.859-.001 1.728-.213 2.653-.648a7.756 7.756 0 01.784-.3l.228-.068.185-.055a8.25 8.25 0 011.1-.208 8.166 8.166 0 014.696.8c-1.78 1.668-2.815 3.918-2.839 6.288-.033 3.276 1.823 6.253 4.827 7.898-1.788 3.372-4.143 5.645-4.197 5.697z" fill="#fff"/><path d="M104.445 4.428C104.319 4.369 99.58.002 91.678.002c-7.95 0-78.251-.026-74.792.106C9.333.855 3.094 5.608.962 11.751c-1.424 4.031-.844 4.182-.85 58.525 0 .915.838 1.657 1.873 1.657 1.034 0 1.873-.741 1.873-1.657.238-64.39-.712-51.025.972-58.277 2.676-6.254 9.021-7.85 9.1-7.906 4.96-1.568 4.613-.359 77.748-.777 1.511 0 3.01.203 4.433.592.072.042 5.281 1.19 8.496 5.867.503.92 1.926 2.609 2.181 6.292.03.576.101.527.106 2.29 0 .915.751 1.798 1.786 1.798 1.035 0 1.618-.201 1.618-1.117-.126-.72 1.275-8.81-5.853-14.61z" fill="#fff"/><path d="M122.844 82.577h-12.378c.154-1.421-.193-5.976-.168-64.22 0-.683-.327 1.363-1.362 1.363-1.035 0-1.361 0-2.042-2.046-.099 56.046.056 62.99-.195 64.903H18.744c-2.843 0-5.156 2.046-5.156 4.56v6.36c-5.718-1.945-9.73-6.863-9.73-12.495l.15-2.993c0-19.408-.78-6.448-1.815-6.448S.11 65.871.11 66.786v14.216c0 7.385 5.546 13.888 13.477 15.994v5.02c0 2.515 2.313 4.561 5.156 4.561h9.885c2.023 3.953 6.461 6.533 11.44 6.533h56.747c1.035 0-1.874-.741-1.874-1.657s2.909-1.657 1.874-1.657H40.069c-2.879 0-5.502-1.231-7.13-3.219h75.711c-1.629 1.988-4.252 3.219-7.131 3.219h-4.703c-1.035 0-1.874.741-1.874 1.657s.839 1.657 1.874 1.657h4.703c4.978 0 9.417-2.58 11.44-6.533h9.885c2.843 0 5.156-2.046 5.156-4.561V87.138c0-2.515-2.313-4.561-5.156-4.561zm1.409 19.439c0 .687-.632 1.246-1.409 1.246h-104.1c-.777 0-1.409-.559-1.409-1.246V87.138c0-.687.632-1.246 1.41-1.246h104.099c.777 0 1.409.559 1.409 1.246v14.878z" fill="#fff"/></svg>