<svg width="71" height="128" fill="none" xmlns="http://www.w3.org/2000/svg"><path d="M39.036 109.161H31.48c-3.193 0-5.792 2.663-5.792 5.936 0 3.272 2.599 5.935 5.793 5.935h7.555c3.194 0 5.792-2.663 5.792-5.935 0-3.273-2.598-5.936-5.792-5.936zm0 6.71H31.48a.766.766 0 01-.755-.774c0-.427.339-.775.755-.775h7.556c.416 0 .755.348.755.775a.766.766 0 01-.755.774z" fill="#FFFDFD"/><path d="M61.01 0H9.507C4.265 0 0 4.37 0 9.742v108.516C0 123.63 4.265 128 9.507 128H61.01c5.242 0 9.507-4.37 9.507-9.742V9.742C70.517 4.37 66.252 0 61.01 0zm4.47 118.258c0 2.526-2.005 4.581-4.47 4.581H9.507c-2.465 0-4.47-2.055-4.47-4.581v-10.645H65.48v10.645zm0-15.807h-2.645v-66.58c0-1.425-1.127-2.58-2.518-2.58-1.391 0-2.519 1.154-2.519 2.58v66.581H5.037V18.064H65.48v84.387zm0-89.548H5.037V9.742c0-2.526 2.005-4.58 4.47-4.58H61.01c2.465 0 4.47 2.054 4.47 4.58v3.161z" fill="#FFFDFD"/><path d="M56.035 6.451h-.503c-1.391 0-2.519 1.156-2.519 2.581 0 1.426 1.128 2.58 2.519 2.58h.503c1.391 0 2.519-1.154 2.519-2.58 0-1.425-1.128-2.58-2.519-2.58zm4.282 16c-1.39 0-2.519 1.156-2.519 2.581v1.807c0 1.425 1.128 2.58 2.519 2.58 1.391 0 2.519-1.155 2.519-2.58v-1.807c0-1.425-1.128-2.58-2.519-2.58z" fill="#FFFDFD"/></svg>