<svg width="92" height="92" fill="none" xmlns="http://www.w3.org/2000/svg"><path d="M51.534 40H40.062v11.467h11.472V40z" fill="#FF6B00"/><path d="M91.822 51.6V40.133h-11.99a34.185 34.185 0 00-5.879-14.167l8.484-8.48-8.111-8.106-8.484 8.48a34.222 34.222 0 00-14.175-5.877V0H40.195v11.983a34.289 34.289 0 00-14.175 5.87L17.536 9.38l-8.11 8.107 8.483 8.48a34.185 34.185 0 00-5.88 14.166H.041V51.6h11.988a34.185 34.185 0 005.88 14.167l-8.484 8.48 8.111 8.107 8.484-8.48a34.222 34.222 0 0014.175 5.877v11.982h11.472V79.751a34.29 34.29 0 0014.175-5.871l8.484 8.48 8.111-8.108-8.484-8.48a34.24 34.24 0 005.88-14.172h11.989zm-45.89 17.2c-12.655 0-22.946-10.286-22.946-22.933 0-12.648 10.29-22.934 22.945-22.934 12.654 0 22.945 10.286 22.945 22.934 0 12.647-10.29 22.933-22.945 22.933z" fill="#FF6B00"/></svg>