<svg width="166" height="166" fill="none" xmlns="http://www.w3.org/2000/svg"><path d="M110.506 36.908a2.268 2.268 0 002.27-2.27V21.347a2.268 2.268 0 10-4.539 0V34.64a2.27 2.27 0 001.401 2.097c.275.114.57.173.868.172z" fill="#fff"/><path d="M149.629 54.763h-12.891v-31.58a2.271 2.271 0 00-2.27-2.269h-13.915V8.27a2.268 2.268 0 00-2.27-2.27H47.396a2.27 2.27 0 00-2.27 2.27v12.644H31.212a2.27 2.27 0 00-2.27 2.27v31.579h-12.89A10.063 10.063 0 006 64.813v61.874a10.063 10.063 0 0010.05 10.051h29.073v20.672a2.27 2.27 0 002.27 2.27h70.894a2.267 2.267 0 002.27-2.27v-20.672h29.072a10.06 10.06 0 0010.051-10.051V64.813a10.06 10.06 0 00-10.051-10.05zm-17.43-29.31v29.31h-11.646v-29.31h11.646zM49.666 10.54h66.348v44.224H49.666V10.539zM33.48 25.453h11.646v29.31H33.48v-29.31zm0 106.746v-23.097h11.642v23.097H33.48zm16.18 22.942v-46.039h66.357v46.039H49.662zm70.896-22.942v-23.097h11.642v23.097h-11.642zm34.584-5.512a5.52 5.52 0 01-5.512 5.512h-12.891v-25.367a2.27 2.27 0 00-2.27-2.27H31.211a2.273 2.273 0 00-2.27 2.27v25.367h-12.89a5.52 5.52 0 01-5.512-5.512V64.813a5.518 5.518 0 015.512-5.511h133.578a5.517 5.517 0 015.512 5.511v61.874z" fill="#fff"/><path d="M52.147 70.32H19.94a2.27 2.27 0 100 4.539h32.206a2.27 2.27 0 100-4.54zm50.146 45.266H63.387a2.268 2.268 0 00-1.605 3.874 2.268 2.268 0 001.605.665h38.906a2.27 2.27 0 100-4.539zm0 11.672H63.387a2.268 2.268 0 00-1.605 3.874 2.268 2.268 0 001.605.665h38.906a2.27 2.27 0 100-4.539zm0 11.672H63.387a2.271 2.271 0 00-2.27 2.269 2.27 2.27 0 002.27 2.27h38.906a2.27 2.27 0 100-4.539zm39.555-72.5a6.16 6.16 0 106.16 6.16 6.167 6.167 0 00-6.16-6.16zm0 7.78a1.622 1.622 0 110-3.243 1.622 1.622 0 010 3.243zm-15.401-7.78a6.16 6.16 0 106.16 6.16 6.166 6.166 0 00-6.16-6.16zm0 7.78a1.619 1.619 0 01-1.497-1 1.623 1.623 0 01.351-1.767 1.624 1.624 0 011.767-.351 1.62 1.62 0 01-.621 3.118zm-15.4-7.78a6.162 6.162 0 00-4.358 10.513 6.16 6.16 0 104.358-10.514zm0 7.78a1.619 1.619 0 01-1.59-1.939 1.623 1.623 0 012.214-1.178 1.617 1.617 0 01.997 1.501 1.623 1.623 0 01-1.621 1.616z" fill="#fff"/></svg>