<svg width="128" height="91" fill="none" xmlns="http://www.w3.org/2000/svg"><path d="M58.113 50.737h4.008v3.398h-4.008v-3.398zm-8.015 0h4.008v3.398h-4.008v-3.398zm-8.016 0h4.008v3.398h-4.008v-3.398z" fill="#fff"/><path d="M10.02 63.196h66.128v-3.398h-62.37v-47.34H92.18V9.06H10.02v54.136z" fill="#fff"/><path d="M21.793 28.767v-9.06h10.27v-3.399H18.035v12.459h3.758z" fill="#fff"/><path d="M103.953 16.308V0H0v72.256h42.082V78.8l-8.016 7.248v4.328h35.82v-4.328L61.872 78.8v-6.544h18.285v18.12H128V16.308h-24.047zm-38.351 70.67h-27l6.262-5.662H59.34l6.263 5.662zm-19.762-9.06v-5.662h12.273v5.662H45.84zm34.316-9.06H3.758V3.398h96.437v12.91H80.156v52.55zm34.067 18.12h-20.29v-5.662h20.29v5.662zm10.019 0h-6.262v-9.06H90.176v9.06h-6.262V48.7h40.328v38.28zm0-41.677H83.914V39.64h40.328v5.66zm0-9.06H83.914v-5.662h40.328v5.662zm0-9.06H83.914v-7.475h40.328v7.475z" fill="#fff"/><path d="M104.203 69.425c3.246 0 5.887-2.388 5.887-5.323 0-2.936-2.641-5.324-5.887-5.324-3.245 0-5.886 2.388-5.886 5.324 0 2.935 2.641 5.323 5.886 5.323zm0-7.248c1.175 0 2.13.863 2.13 1.925 0 1.061-.955 1.925-2.13 1.925-1.174 0-2.129-.864-2.129-1.925 0-1.062.955-1.926 2.129-1.926z" fill="#fff"/></svg>