<svg width="166" height="166" fill="none" xmlns="http://www.w3.org/2000/svg"><g clip-path="url(#clip0)" fill="#fff"><path d="M127.818 0h-89.83C30.275 0 24 6.275 24 13.988v138.024C24 159.725 30.275 166 37.988 166h89.831c7.713 0 13.988-6.275 13.988-13.989V13.988C141.806 6.275 135.531 0 127.818 0zm8.633 152.012c0 4.76-3.872 8.633-8.634 8.633H37.988c-4.761 0-8.633-3.873-8.633-8.634V13.988c0-4.76 3.872-8.633 8.633-8.633h89.831c4.761 0 8.633 3.873 8.632 8.633v138.024z"/><path d="M139.129 18.742H26.678A2.677 2.677 0 0024 21.42v115.129a2.677 2.677 0 002.678 2.677h112.451a2.677 2.677 0 002.678-2.677V21.419a2.678 2.678 0 00-2.678-2.677zm-2.677 115.129H29.355V24.097h107.097V133.87z"/><path d="M114.749 30.318a2.676 2.676 0 000 3.786l12.048 12.048a2.677 2.677 0 103.786-3.785l-12.048-12.049a2.677 2.677 0 00-3.786 0zM99.727 32.61a2.677 2.677 0 000 3.785l24.097 24.097a2.677 2.677 0 103.786-3.786L103.513 32.61a2.676 2.676 0 00-3.786 0zM82.903 141.903c-4.429 0-8.032 3.603-8.032 8.033 0 4.429 3.603 8.032 8.032 8.032 4.43 0 8.033-3.603 8.033-8.032 0-4.43-3.604-8.033-8.033-8.033zm0 10.71a2.68 2.68 0 01-2.677-2.677 2.68 2.68 0 012.677-2.678 2.68 2.68 0 012.678 2.678 2.68 2.68 0 01-2.678 2.677z"/></g><defs><clipPath id="clip0"><path fill="#fff" d="M0 0h166v166H0z"/></clipPath></defs></svg>