<?xml version="1.0" standalone="no"?>
<!DOCTYPE svg PUBLIC "-//W3C//DTD SVG 20010904//EN"
 "http://www.w3.org/TR/2001/REC-SVG-20010904/DTD/svg10.dtd">
<svg version="1.0" xmlns="http://www.w3.org/2000/svg"
 width="700.000000pt" height="700.000000pt" viewBox="0 0 700.000000 700.000000"
 preserveAspectRatio="xMidYMid meet">
<metadata>
Created by potrace 1.11, written by Peter Selinger 2001-2013
</metadata>
<g transform="translate(0.000000,700.000000) scale(0.100000,-0.100000)"
fill="#000000" stroke="none">
<path d="M3059 6963 c0 -21 0 -226 0 -456 l-1 -417 -21 -5 c-12 -2 -56 -11
-97 -20 -41 -9 -86 -19 -99 -21 -32 -7 -282 -89 -323 -107 -212 -94 -313 -147
-446 -233 -45 -30 -87 -54 -91 -54 -5 0 -151 142 -324 315 -173 173 -319 315
-324 315 -4 0 -145 -138 -313 -305 l-304 -305 319 -320 c176 -177 321 -322
323 -324 2 -2 -13 -28 -33 -56 -107 -152 -234 -406 -302 -605 -38 -109 -88
-296 -98 -368 -5 -30 -12 -46 -23 -49 -10 -2 -215 -3 -458 -2 l-440 0 0 -435
1 -436 440 -1 c242 -1 447 -2 456 -3 15 -1 22 -25 45 -154 3 -16 12 -46 19
-68 8 -21 12 -39 10 -39 -6 0 70 -219 108 -310 64 -153 158 -328 252 -466 l26
-38 -322 -322 -323 -323 306 -305 c168 -168 308 -306 311 -306 4 0 149 142
322 315 174 173 320 315 326 315 6 0 48 -24 92 -53 45 -30 107 -68 137 -84 72
-40 164 -87 170 -88 3 0 21 -8 40 -17 158 -75 359 -138 617 -193 l22 -5 0
-383 c0 -210 0 -415 0 -454 l1 -73 435 0 435 0 0 455 0 455 23 5 c12 3 64 14
116 25 303 66 645 214 893 387 l47 32 323 -322 323 -323 310 308 309 309 -320
320 c-175 176 -320 321 -322 323 -2 2 26 48 61 102 68 103 150 256 206 384 61
137 147 420 167 550 3 19 8 37 10 39 3 3 206 6 452 7 246 0 450 2 453 3 3 0 5
196 5 434 l0 434 -453 -1 c-249 0 -455 2 -457 5 -3 3 -8 23 -11 45 -4 21 -10
55 -15 74 -5 19 -11 46 -14 60 -9 48 -57 204 -92 299 -53 140 -163 360 -244
485 -39 60 -70 110 -68 112 2 2 147 148 322 324 l320 321 -305 304 c-167 167
-308 305 -313 305 -5 0 -152 -143 -327 -319 l-319 -319 -93 62 c-246 162 -631
321 -888 366 -35 6 -72 13 -81 16 -17 5 -18 36 -18 460 l0 454 -435 0 -435 0
-1 -37z m625 -1717 c29 -4 63 -8 74 -11 11 -2 36 -6 57 -9 20 -4 40 -8 44 -10
3 -2 23 -7 44 -10 44 -7 188 -54 272 -90 313 -131 586 -359 775 -646 127 -194
226 -433 256 -620 3 -19 8 -38 9 -41 18 -28 26 -388 12 -509 -15 -131 -58
-301 -107 -426 -147 -371 -415 -680 -760 -876 -195 -111 -406 -184 -610 -213
-25 -3 -58 -8 -75 -11 -53 -9 -307 -6 -390 5 -214 28 -389 82 -576 175 -83 42
-237 138 -288 181 -285 236 -474 505 -581 823 -65 195 -85 326 -85 557 0 190
7 250 45 410 116 492 473 933 935 1155 131 63 322 127 430 144 80 13 184 26
215 29 58 4 246 -1 304 -7z"/>
<path d="M3050 3520 l0 -436 435 0 435 0 1 66 c0 62 0 588 -1 736 l0 70 -435
0 -435 0 0 -436z"/>
</g>
</svg>
