<svg width="194" height="194" viewBox="0 0 194 194" fill="none" xmlns="http://www.w3.org/2000/svg">
<g clip-path="url(#clip0)">
<path d="M159.27 102.738C157.719 102.738 156.462 103.995 156.462 105.546C156.462 107.513 154.862 109.113 152.895 109.113C150.929 109.113 149.329 107.513 149.329 105.546C149.329 103.995 148.071 102.738 146.52 102.738C144.968 102.738 143.711 103.995 143.711 105.546C143.711 110.611 147.831 114.73 152.895 114.73C157.959 114.73 162.079 110.61 162.079 105.546C162.079 103.994 160.822 102.738 159.27 102.738Z" fill="white"/>
<path d="M185.636 103.196L177.73 100.664C176.717 100.339 175.919 99.531 175.596 98.5015C173.929 93.204 171.415 88.2307 168.122 83.7191C166.621 81.6627 164.953 79.6991 163.13 77.8297C164.296 72.7131 164.93 66.9225 164.848 61.9198C164.73 54.763 163.3 50.5655 160.476 49.0863C158.955 48.2886 154.326 45.8654 129.27 57.3351C128.676 57.6065 128.122 57.9409 127.609 58.3239C125.92 57.87 124.193 57.4501 122.456 57.0731C122.247 57.0275 122.031 56.9871 121.821 56.9427C123.851 52.5072 125.037 47.69 125.259 42.717C125.329 41.1669 124.129 39.8543 122.579 39.7853C121.033 39.7084 119.716 40.9155 119.647 42.4656C119.281 50.6424 115.889 58.3359 110.097 64.1288C106.636 67.5898 102.583 70.1038 98.2643 71.687C90.7743 70.636 83.1453 70.636 75.6553 71.687C71.336 70.1038 67.2839 67.5898 63.823 64.1288C57.643 57.9488 54.2393 49.732 54.2393 40.992C54.2393 32.2516 57.643 24.0352 63.823 17.8552C70.003 11.6748 78.2202 8.27116 86.9598 8.27116C95.6994 8.27116 103.917 11.6748 110.097 17.8552C112.58 20.3387 114.632 23.1727 116.196 26.2778C116.894 27.6635 118.583 28.2214 119.969 27.5233C121.354 26.8259 121.912 25.1367 121.214 23.7514C119.381 20.1102 116.977 16.7903 114.069 13.8823C106.828 6.64115 97.2005 2.6532 86.9602 2.6532C76.7198 2.6532 67.0921 6.64115 59.8509 13.8823C52.6097 21.1239 48.6217 30.7513 48.6217 40.9916C48.6217 51.232 52.6097 60.8597 59.8509 68.1009C61.9397 70.1897 64.212 71.986 66.6156 73.4908L66.6178 73.4904C64.8713 73.9443 63.138 74.454 61.424 75.027C59.9527 75.5189 59.1588 77.1101 59.6507 78.5818C60.1423 80.0531 61.7342 80.847 63.2051 80.3554C78.5236 75.2343 95.3967 75.2343 110.715 80.3554C111.011 80.4542 111.311 80.5009 111.606 80.5009C112.781 80.5009 113.876 79.7575 114.27 78.5818C114.762 77.1105 113.968 75.5189 112.496 75.027C110.782 74.454 109.049 73.9439 107.303 73.4904L107.305 73.4908C109.709 71.986 111.981 70.1897 114.069 68.1009C115.917 66.253 117.549 64.2351 118.965 62.0905C119.739 62.2409 120.508 62.3985 121.265 62.5629C122.274 62.7819 123.278 63.0171 124.273 63.264C124.242 63.3862 124.21 63.5079 124.184 63.632C122.814 70.1328 122.903 75.8823 124.448 80.7199C125.837 85.0683 128.343 88.591 131.897 91.191C136.086 94.255 141.142 95.5785 145.723 95.5785C149.17 95.5785 152.348 94.8284 154.683 93.5063C157.323 92.0109 159.535 88.8598 161.286 84.1289C162.095 85.0735 162.862 86.0412 163.585 87.0319C166.517 91.0481 168.755 95.4745 170.237 100.187C171.108 102.955 173.269 105.134 176.017 106.015L183.923 108.547C185.997 109.212 187.391 111.121 187.391 113.299V126.408C187.391 128.586 185.997 130.496 183.923 131.16L171.185 135.24C169.148 135.893 167.423 137.294 166.329 139.184C161.325 147.832 153.457 154.989 142.943 160.456C141.729 161.088 140.887 162.218 140.634 163.558L136.554 185.159C136.442 185.755 135.92 186.186 135.315 186.186H122.05C121.444 186.186 120.923 185.754 120.81 185.159L118.551 173.221C118.106 170.872 115.903 169.312 113.532 169.671C107.818 170.535 101.931 170.973 96.0338 170.973C91.6466 170.973 87.3157 170.728 83.1603 170.245C80.8627 169.981 78.7223 171.547 78.2929 173.816L76.1457 185.159C76.033 185.755 75.5116 186.186 74.9059 186.186H61.6415C61.0357 186.186 60.5143 185.754 60.4001 185.15L56.4721 164.748C56.2192 163.434 55.3936 162.316 54.2058 161.681C36.2832 152.114 26.81 136.129 26.81 115.456C26.81 105.011 29.0952 95.7745 33.6018 88.003C37.8073 80.7505 43.9496 74.754 51.858 70.1795C53.2008 69.4026 53.6596 67.6844 52.883 66.3412C52.1064 64.9985 50.3882 64.5405 49.0451 65.3163C33.7104 74.1871 24.4615 87.8725 21.9151 105.255C21.6448 105.23 21.3741 105.206 21.1046 105.178C21.1536 103.303 20.8143 101.411 20.0754 99.574C18.4458 95.5231 15.0983 92.5993 11.5469 92.1255C8.7483 91.7508 6.08502 92.939 4.23675 95.381C1.55688 98.9222 1.99379 101.725 2.83179 103.452C4.24655 106.367 7.88316 108.429 13.918 109.725C13.7522 109.974 13.5697 110.223 13.3699 110.474C9.80419 114.946 5.60326 115.935 2.87551 116.028C1.27868 116.082 0 117.364 0 118.962V118.975C0 120.552 1.24362 121.837 2.81821 121.909C3.01989 121.918 3.23062 121.923 3.45001 121.923C6.90154 121.923 12.4411 120.65 17.7631 113.977C18.6034 112.924 19.288 111.812 19.8142 110.664C20.3442 110.724 20.8535 110.775 21.3413 110.82L21.3417 110.817C21.2459 112.34 21.1928 113.884 21.1928 115.456C21.1928 127.152 23.9812 137.581 29.48 146.454C34.5503 154.634 41.8096 161.332 51.0634 166.369L54.8821 186.204C55.4961 189.449 58.3389 191.804 61.6415 191.804H74.9059C78.2085 191.804 81.0512 189.449 81.6653 186.204L83.6067 175.947C87.6387 176.374 91.8133 176.591 96.0334 176.591C101.824 176.591 107.607 176.187 113.244 175.391L115.29 186.204C115.905 189.449 118.747 191.804 122.05 191.804H135.314C138.617 191.804 141.459 189.449 142.074 186.203L146.046 165.171C157.267 159.238 165.726 151.443 171.191 141.997C171.585 141.316 172.192 140.817 172.899 140.59L185.636 136.51C190.045 135.097 193.008 131.038 193.008 126.407V113.298C193.008 108.668 190.045 104.609 185.636 103.196ZM158.808 69.8131C157.727 79.0586 154.827 86.9674 151.913 88.6178C148.601 90.494 140.954 90.8562 135.213 86.6564C129.465 82.4517 127.552 74.8905 129.68 64.79C129.894 63.7756 130.615 62.8976 131.608 62.443C145.67 56.0059 153.778 53.9005 156.79 53.9005C157.244 53.9005 157.583 53.9484 157.808 54.0366C158.713 55.0009 159.9 60.4824 158.808 69.8131ZM7.88655 100.999C7.59591 100.4 8.28199 99.3459 8.71701 98.7707C9.40649 97.8599 10.0417 97.6737 10.5216 97.6737C10.623 97.6737 10.7176 97.682 10.8043 97.6937C12.0958 97.866 13.9052 99.2871 14.8639 101.67C15.0897 102.231 15.3829 103.16 15.4516 104.319C11.5631 103.513 8.5421 102.352 7.88655 100.999Z" fill="white"/>
<g clip-path="url(#clip1)">
<path d="M90.6106 40.6434C96.6746 40.6434 101.608 35.7099 101.608 29.6459C101.608 23.5819 96.6746 18.6484 90.6106 18.6484C90.5869 18.6484 90.5634 18.6488 90.54 18.6497H81.5565L81.554 18.6496C80.4822 18.6496 79.6133 19.5185 79.6133 20.5903V38.7026V44.5248H77.6724C76.6006 44.5248 75.7317 45.3938 75.7317 46.4656C75.7317 47.5374 76.6006 48.4063 77.6724 48.4063H79.6131V59.4038C79.6131 60.4756 80.4821 61.3445 81.5539 61.3445C82.6257 61.3445 83.4946 60.4756 83.4946 59.4038V48.4063H90.6106C91.6824 48.4063 92.5513 47.5374 92.5513 46.4656C92.5513 45.3938 91.6824 44.5248 90.6106 44.5248H83.4946V40.6434H90.6106ZM90.6106 22.5312C90.6316 22.5312 90.6525 22.5308 90.6732 22.5302C94.5684 22.5638 97.7266 25.743 97.7266 29.6459C97.7266 33.5697 94.5344 36.7619 90.6106 36.7619H83.4946V22.5312H90.6106Z" fill="white"/>
</g>
</g>
<defs>
<clipPath id="clip0">
<rect width="193.008" height="193.008" fill="white" transform="translate(0 0.724976)"/>
</clipPath>
<clipPath id="clip1">
<rect width="42.6961" height="42.696" fill="white" transform="translate(67.468 18.6484)"/>
</clipPath>
</defs>
</svg>
