<svg width="128" height="128" viewBox="0 0 128 128" fill="none" xmlns="http://www.w3.org/2000/svg">
<g clip-path="url(#clip0)">
<path d="M125.398 70.3421C117.477 70.3421 111.029 63.8942 111.029 55.9729V53.9201H90.5014V0.548706H21.9108L0.180542 22.279V119.608H83.0031C86.7878 122.874 91.0928 125.614 95.8508 127.653L96.6597 127.999L97.4685 127.653C115.683 119.849 127.451 101.999 127.451 82.1845V70.3421H125.398ZM7.18875 21.0762L20.708 7.55691V21.0762H7.18875ZM12.497 25.1817H24.8135V12.8652H78.1849V33.3927H12.497V25.1817ZM4.28604 25.1817H8.39153V37.4982H82.2904V8.7597H24.8135V4.6542H86.3959V53.9201H82.2904V55.9729C82.2904 63.8942 75.8425 70.3421 67.9212 70.3421H65.8685V82.1845C65.8685 94.7816 70.6395 106.571 78.7823 115.503H4.28604V25.1817ZM123.345 82.1845C123.345 100.062 112.901 116.19 96.6597 123.525C80.4181 116.192 69.9739 100.062 69.9739 82.1845V74.3343C78.5237 73.3862 85.3325 66.5774 86.2807 58.0276H107.037C107.985 66.5774 114.794 73.3862 123.343 74.3343V82.1845H123.345Z" fill="white"/>
<path d="M105.497 83.669L110.862 71.1491L107.09 69.5333L101.913 81.6143C100.283 80.9718 98.5159 80.6059 96.6596 80.6059C88.7383 80.6059 82.2904 87.0538 82.2904 94.9752C82.2904 102.896 88.7383 109.344 96.6596 109.344C104.581 109.344 111.029 102.896 111.029 94.9752C111.029 90.3856 108.857 86.3021 105.497 83.669ZM96.6596 105.239C91.0005 105.239 86.3959 100.634 86.3959 94.9752C86.3959 89.3161 91.0005 84.7114 96.6596 84.7114C97.9406 84.7114 99.1554 84.976 100.287 85.407L95.7445 96.0035L91.639 93.2672L89.3618 96.6831L97.5727 102.158L103.799 87.6282C105.721 89.4945 106.923 92.0935 106.923 94.9752C106.923 100.634 102.319 105.239 96.6596 105.239Z" fill="white"/>
<path d="M8.39148 111.397H61.7629V74.4476H8.39148V111.397ZM12.497 78.5531H57.6574V107.292H12.497V78.5531Z" fill="white"/>
<path d="M16.6025 41.6036H61.763V45.7091H16.6025V41.6036Z" fill="white"/>
<path d="M8.39148 41.6036H12.497V45.7091H8.39148V41.6036Z" fill="white"/>
<path d="M8.39148 49.8147H61.7629V53.9202H8.39148V49.8147Z" fill="white"/>
<path d="M8.39148 58.0255H61.7629V62.131H8.39148V58.0255Z" fill="white"/>
<path d="M8.39148 66.2366H61.7629V70.3421H8.39148V66.2366Z" fill="white"/>
</g>
<defs>
<clipPath id="clip0">
<rect width="127.451" height="127.451" fill="white" transform="translate(0 0.548706)"/>
</clipPath>
</defs>
</svg>
