<svg width="192" height="193" viewBox="0 0 192 193" fill="none" xmlns="http://www.w3.org/2000/svg">
<g clip-path="url(#clip0)">
<path d="M188.037 105.581C176.159 105.581 166.49 95.9123 166.49 84.0341V80.9559H135.709V0.924316H32.8556L0.27063 33.5093V179.456H124.465C130.14 184.353 136.596 188.462 143.73 191.519L144.943 192.039L146.156 191.519C173.469 179.817 191.115 153.052 191.115 123.339V105.581H188.037ZM10.7796 31.7057L31.052 11.4333V31.7057H10.7796ZM18.7395 37.862H37.2083V19.3932H117.24V50.1745H18.7395V37.862ZM6.42691 37.862H12.5832V56.3308H123.396V13.2369H37.2083V7.08059H129.552V80.9559H123.396V84.0341C123.396 95.9123 113.727 105.581 101.849 105.581H98.7711V123.339C98.7711 142.229 105.925 159.907 118.136 173.3H6.42691V37.862ZM184.959 123.339C184.959 150.146 169.298 174.331 144.943 185.33C120.589 174.334 104.927 150.146 104.927 123.339V111.567C117.748 110.146 127.958 99.9358 129.38 87.1152H160.504C161.926 99.9358 172.135 110.146 184.956 111.567V123.339H184.959Z" fill="white"/>
<path d="M158.195 125.565L166.241 106.791L160.583 104.368L152.82 122.484C150.377 121.52 147.727 120.972 144.943 120.972C133.065 120.972 123.396 130.641 123.396 142.519C123.396 154.397 133.065 164.066 144.943 164.066C156.821 164.066 166.49 154.397 166.49 142.519C166.49 135.637 163.233 129.513 158.195 125.565ZM144.943 157.909C136.457 157.909 129.553 151.005 129.553 142.519C129.553 134.033 136.457 127.128 144.943 127.128C146.864 127.128 148.686 127.525 150.383 128.171L143.571 144.061L137.415 139.958L134 145.08L146.312 153.289L155.649 131.502C158.53 134.3 160.334 138.198 160.334 142.519C160.334 151.005 153.429 157.909 144.943 157.909Z" fill="white"/>
<path d="M12.5833 167.144H92.6149V111.737H12.5833V167.144ZM18.7395 117.894H86.4586V160.988H18.7395V117.894Z" fill="white"/>
<path d="M24.8959 62.4871H92.6149V68.6433H24.8959V62.4871Z" fill="white"/>
<path d="M12.5833 62.4871H18.7395V68.6433H12.5833V62.4871Z" fill="white"/>
<path d="M12.5833 74.7998H92.6149V80.9561H12.5833V74.7998Z" fill="white"/>
<path d="M12.5833 87.1121H92.6149V93.2684H12.5833V87.1121Z" fill="white"/>
<path d="M12.5833 99.4248H92.6149V105.581H12.5833V99.4248Z" fill="white"/>
</g>
<defs>
<clipPath id="clip0">
<rect width="191.116" height="191.116" fill="white" transform="translate(0 0.924316)"/>
</clipPath>
</defs>
</svg>
