<svg width="176" height="137" viewBox="0 0 176 137" fill="none" xmlns="http://www.w3.org/2000/svg">
<path d="M168.409 51.2105L164.593 47.1696L151.198 11.0631C148.916 4.96433 143.079 0.923402 136.568 0.885986H40.8957C34.3853 0.885986 28.5484 4.96433 26.266 11.0631L13.0582 46.7206L7.55803 51.8092C2.76879 55.8875 0 61.8741 0 68.16V120.767C0.037416 129.373 7.03421 136.332 15.6399 136.332H25.5177C34.1234 136.332 41.1202 129.373 41.1576 120.767V113.134H133.949V120.767C133.987 129.373 140.984 136.332 149.589 136.332H159.467C168.073 136.332 175.07 129.373 175.107 120.767V66.7756C175.07 60.9013 172.675 55.2889 168.409 51.2105ZM33.3003 13.6074C34.4976 10.4271 37.5283 8.36919 40.8957 8.36919H136.606C139.973 8.36919 143.004 10.4645 144.201 13.6074L155.875 45.0369H147.157C145.099 31.0059 132.041 21.3151 118.01 23.4104C106.823 25.0567 98.03 33.8495 96.3837 45.0369H21.6265L33.3003 13.6074ZM139.524 45.0369H103.942C106 35.1965 115.653 28.9106 125.493 30.9685C132.528 32.4651 138.028 37.9653 139.524 45.0369ZM33.6744 120.767C33.637 125.257 30.0076 128.849 25.5177 128.849H15.6399C11.15 128.849 7.52062 125.257 7.4832 120.767V110.964C9.72816 112.423 12.684 113.134 15.6399 113.134H33.6744V120.767ZM167.624 120.767C167.586 125.257 163.957 128.849 159.467 128.849H149.589C145.099 128.849 141.47 125.219 141.433 120.767V113.134H159.467C162.423 113.134 165.379 112.423 167.624 110.964V120.767ZM159.467 105.651H15.6399C11.1874 105.688 7.52062 102.134 7.4832 97.6438V68.16C7.4832 64.0442 9.31659 60.1155 12.4595 57.459C12.4969 57.4216 12.5718 57.3468 12.6092 57.3093L17.6978 52.5201H159.392L162.984 56.3739C163.022 56.4488 163.134 56.4862 163.171 56.561C165.977 59.2176 167.586 62.9217 167.586 66.7756V97.6438H167.624C167.586 102.096 163.92 105.688 159.467 105.651Z" fill="white"/>
<path d="M49.3891 67.4866H21.3271C19.2692 67.4866 17.5854 69.1703 17.5854 71.2282V90.6845C17.5854 92.7424 19.2692 94.4261 21.3271 94.4261H49.3891C51.4469 94.4261 53.1307 92.7424 53.1307 90.6845V71.2282C53.1307 69.1703 51.4469 67.4866 49.3891 67.4866ZM45.6475 86.9429H25.0687V74.9698H45.6475V86.9429Z" fill="white"/>
<path d="M153.78 67.4866H125.718C123.66 67.4866 121.977 69.1703 121.977 71.2282V90.6845C121.977 92.7424 123.66 94.4261 125.718 94.4261H153.78C155.838 94.4261 157.522 92.7424 157.522 90.6845V71.2282C157.522 69.1703 155.838 67.4866 153.78 67.4866ZM150.039 86.9429H129.46V74.9698H150.039V86.9429Z" fill="white"/>
<path d="M105.626 83.2012H69.4818C67.424 83.2012 65.7402 84.8849 65.7402 86.9428C65.7402 89.0007 67.424 90.6844 69.4818 90.6844H105.626C107.684 90.6844 109.367 89.0007 109.367 86.9428C109.367 84.8849 107.684 83.2012 105.626 83.2012Z" fill="white"/>
<path d="M105.626 71.6021H69.4818C67.424 71.6021 65.7402 73.2858 65.7402 75.3437C65.7402 77.4015 67.424 79.0853 69.4818 79.0853H105.626C107.684 79.0853 109.367 77.4015 109.367 75.3437C109.367 73.2858 107.684 71.6021 105.626 71.6021Z" fill="white"/>
</svg>
