<svg width="194" height="142" viewBox="0 0 194 142" fill="none" xmlns="http://www.w3.org/2000/svg">
<path d="M156.632 77.9762L141.128 93.6276C140.926 93.38 140.711 93.1392 140.482 92.9077L120.459 72.6946C119.352 71.5772 117.558 71.5772 116.451 72.6946C115.344 73.8121 115.344 75.6238 116.451 76.7409L136.473 96.9539C138.195 98.6913 138.195 101.519 136.474 103.256C134.751 104.993 131.951 104.994 130.231 103.256L119.105 92.0241C117.997 90.9067 116.203 90.9067 115.096 92.0241C113.989 93.1415 113.989 94.9533 115.096 96.0704L126.222 107.302C126.222 107.303 126.223 107.303 126.224 107.304C127.057 108.145 127.515 109.264 127.515 110.454C127.515 111.644 127.056 112.763 126.222 113.605C125.388 114.446 124.28 114.91 123.101 114.91C121.922 114.91 120.813 114.446 119.98 113.605L108.854 102.373C107.747 101.255 105.952 101.255 104.845 102.373C103.738 103.49 103.738 105.302 104.845 106.419L115.971 117.651C117.693 119.388 117.693 122.216 115.972 123.953C115.138 124.795 114.029 125.259 112.85 125.259C111.671 125.259 110.562 124.795 109.729 123.954L98.6027 112.722C97.4954 111.604 95.7011 111.604 94.5942 112.722C93.4873 113.839 93.4873 115.651 94.5942 116.768L105.72 128C107.442 129.737 107.442 132.565 105.72 134.302C104.887 135.144 103.778 135.607 102.599 135.607C101.42 135.607 100.312 135.144 99.4779 134.302L92.2701 127.026C94.5666 123.162 94.0685 118.065 90.7728 114.739L90.602 114.566C88.4063 112.35 85.4318 111.387 82.5589 111.677C82.3976 109.25 81.3867 106.989 79.6664 105.253C78.3358 103.91 76.7191 103.027 75.0125 102.604C75.4474 101.465 75.6776 100.243 75.6776 98.9847C75.6776 96.2981 74.6414 93.7725 72.7598 91.873C70.8782 89.9735 68.3764 88.9274 65.7152 88.9274C64.1986 88.9274 62.7346 89.2681 61.407 89.9121C60.9603 88.3105 60.1165 86.7994 58.8705 85.5415C54.9867 81.6204 48.6662 81.6208 44.7817 85.5415L43.6128 86.7215L42.7606 85.8612C41.39 84.4775 40.6353 82.6382 40.6353 80.6815V73.2192C40.6353 72.4604 40.3367 71.7325 39.8054 71.1961L27.7055 58.981L31.1078 55.5459C32.2147 54.4284 32.2147 52.6166 31.1074 51.4996C30.0009 50.3818 28.2062 50.3822 27.0993 51.4996L22.5418 56.101C21.6824 56.9685 20.2834 56.9689 19.424 56.101L4.83865 41.3763C3.73175 40.2588 1.93744 40.2588 0.83017 41.3763C-0.276723 42.4937 -0.276723 44.3051 0.83017 45.4226L15.4159 60.1472C16.951 61.6965 18.9668 62.471 20.9825 62.471C21.628 62.471 22.2716 62.3825 22.9012 62.2238L34.9666 74.4038V80.6811C34.9666 84.1662 36.3112 87.4426 38.7522 89.9071L39.6047 90.7678L38.6562 91.7254C36.7746 93.6249 35.738 96.1505 35.738 98.8371C35.738 101.524 36.7742 104.049 38.6558 105.948C40.5982 107.909 43.1495 108.889 45.7008 108.889C45.7412 108.889 45.7816 108.887 45.8221 108.886C45.8217 108.929 45.819 108.971 45.819 109.013C45.819 111.7 46.8553 114.226 48.7369 116.125C50.6185 118.024 53.1206 119.07 55.7815 119.07C55.8234 119.07 55.8654 119.068 55.9073 119.067C55.8759 121.683 56.8445 124.31 58.8172 126.301C60.7597 128.262 63.3109 129.242 65.8622 129.242C65.9041 129.242 65.9461 129.239 65.9876 129.239C65.9551 131.857 66.9237 134.485 68.8979 136.478L69.0687 136.65C70.9503 138.55 73.4521 139.596 76.1129 139.596C78.7742 139.596 81.2759 138.55 83.1575 136.65L88.4728 131.285L95.4702 138.349C97.3745 140.271 99.9064 141.33 102.6 141.33C105.293 141.33 107.825 140.271 109.729 138.349C111.739 136.32 112.718 133.642 112.674 130.977C112.733 130.978 112.791 130.981 112.851 130.981C115.544 130.981 118.076 129.923 119.981 128C121.991 125.97 122.971 123.289 122.925 120.624C122.984 120.625 123.043 120.628 123.102 120.628C125.683 120.628 128.266 119.635 130.231 117.651C132.136 115.729 133.184 113.173 133.184 110.454C133.184 110.394 133.181 110.335 133.18 110.275C133.238 110.277 133.295 110.28 133.352 110.28C135.934 110.28 138.517 109.287 140.482 107.303C142.62 105.145 143.592 102.252 143.406 99.423L160.641 82.0233C161.748 80.9058 161.748 79.094 160.641 77.977C159.533 76.8588 157.739 76.8588 156.632 77.9762ZM42.6639 101.902C41.8529 101.083 41.4066 99.9946 41.4066 98.8371C41.4066 97.6792 41.8533 96.5907 42.6643 95.772L48.7898 89.5882C49.6272 88.7431 50.7266 88.3204 51.8263 88.3204C52.9256 88.3204 54.025 88.7427 54.862 89.5878C56.5362 91.2782 56.5362 94.0282 54.862 95.7179L48.7361 101.902C47.062 103.592 44.3384 103.592 42.6639 101.902ZM55.7807 113.348C54.6341 113.348 53.5556 112.897 52.7446 112.078C51.9336 111.26 51.4873 110.171 51.4873 109.014C51.4873 107.856 51.934 106.767 52.745 105.949L58.8709 99.7645L62.6794 95.9197C63.4904 95.101 64.5682 94.65 65.7152 94.65C66.8621 94.65 67.9403 95.101 68.7509 95.9197C69.5619 96.7384 70.0086 97.8272 70.0086 98.9847C70.0086 100.142 69.5619 101.231 68.7509 102.05L58.8165 112.079C58.0055 112.897 56.9277 113.348 55.7807 113.348ZM62.8249 122.255C61.1508 120.565 61.1508 117.815 62.8249 116.125L69.5861 109.299C70.4232 108.454 71.5225 108.032 72.6222 108.032C73.7215 108.032 74.8213 108.454 75.6579 109.299C76.4689 110.118 76.9156 111.207 76.9156 112.364C76.9156 113.521 76.4697 114.609 75.6595 115.427L68.8968 122.254C67.223 123.945 64.4991 123.945 62.8249 122.255ZM79.1479 132.604C78.3369 133.422 77.2591 133.873 76.1122 133.873C74.9656 133.873 73.8871 133.422 73.0765 132.604L72.906 132.431C71.2315 130.741 71.2315 127.991 72.906 126.301L79.6668 119.476C79.6691 119.474 79.671 119.472 79.6728 119.47L80.5212 118.613C81.3587 117.768 82.458 117.346 83.5577 117.346C84.6571 117.346 85.7568 117.768 86.5935 118.613L86.7639 118.785C88.4384 120.475 88.4384 123.225 86.7639 124.915L79.1479 132.604Z" fill="white"/>
<path d="M192.269 53.4322C191.162 52.3148 189.368 52.3144 188.26 53.4322L177.639 64.1549C177.493 64.3025 177.252 64.3048 177.103 64.161L139.553 27.951C139.475 27.8762 139.435 27.7835 139.434 27.6751C139.433 27.5668 139.471 27.4729 139.547 27.3966L161.818 4.91364C162.925 3.79621 162.925 1.98443 161.818 0.867374C160.711 -0.250062 158.917 -0.250062 157.81 0.867374L135.538 23.3504C134.377 24.5235 133.747 26.0827 133.766 27.7411C133.782 29.0779 134.223 30.3365 135.013 31.3761L124.821 41.4666L115.218 36.0599C113.963 35.353 112.54 34.9795 111.103 34.9795H83.8182L81.7416 32.8835C79.812 30.9355 77.5408 29.4507 74.9911 28.4698L67.4378 25.5646L63.9474 22.041C65.7523 18.9894 65.3638 14.9736 62.7634 12.3488L51.3903 0.867374C50.2834 -0.250062 48.4891 -0.250062 47.3818 0.867374C46.2749 1.98481 46.2749 3.79659 47.3818 4.91364L58.755 16.3951C59.6143 17.2627 59.6143 18.6746 58.755 19.5425L35.641 42.8767C34.5341 43.9941 34.5341 45.8059 35.641 46.923C36.1946 47.4815 36.9202 47.7611 37.6454 47.7611C38.3706 47.7611 39.0962 47.4819 39.6498 46.923L60.1139 26.2639L63.8579 30.0435C64.1406 30.3289 64.4799 30.5506 64.8533 30.6944L72.973 33.8174C74.725 34.4915 76.2888 35.5056 77.6266 36.8279C77.4546 36.974 77.2857 37.1251 77.1247 37.2876L66.3453 48.1705C64.2059 50.3298 63.028 53.2014 63.028 56.2554C63.028 59.3094 64.2059 62.1806 66.3449 64.3403C68.5553 66.5717 71.4467 67.7037 74.3509 67.7037C76.8889 67.7037 79.4364 66.8388 81.5463 65.0877L89.7038 58.3174H98.2011L107.91 68.1191C108.464 68.6777 109.19 68.9573 109.915 68.9573C110.64 68.9573 111.366 68.678 111.919 68.1191C113.026 67.0017 113.026 65.1899 111.919 64.0729L104.905 56.9917C105.186 56.5476 105.35 56.0219 105.35 55.4561C105.35 53.8759 104.082 52.5948 102.516 52.5948H88.688C88.0315 52.5948 87.3951 52.8249 86.888 53.2461L77.9463 60.6672C75.6853 62.543 72.422 62.3824 70.3534 60.294C69.2846 59.2151 68.6962 57.781 68.6962 56.2558C68.6962 54.7305 69.2846 53.296 70.3534 52.2175L81.1332 41.3346C81.5364 40.9272 82.0731 40.7029 82.6437 40.7029H111.103C111.576 40.7029 112.043 40.8257 112.457 41.0584L123.077 47.0382C124.654 47.9267 126.659 47.6577 127.955 46.3789L139.057 35.3873L169.622 64.8622L165.173 69.3541C164.066 70.4715 164.066 72.2833 165.173 73.4003C165.726 73.9593 166.452 74.2385 167.177 74.2385C167.902 74.2385 168.628 73.9593 169.182 73.4003L173.759 68.7792C174.824 69.5754 176.094 69.9771 177.366 69.9771C178.922 69.9771 180.476 69.3838 181.647 68.2015L192.269 57.4793C193.375 56.3611 193.375 54.5497 192.269 53.4322Z" fill="white"/>
</svg>
