<svg width="186" height="187" viewBox="0 0 186 187" fill="none" xmlns="http://www.w3.org/2000/svg">
<path d="M140.949 1.4436H43.167C38.113 1.4436 34 5.58848 34 10.6817C34 15.7749 38.113 19.9198 43.167 19.9198H140.949C146.003 19.9198 150.116 15.7749 150.116 10.6817C150.116 5.58848 146.003 1.4436 140.949 1.4436ZM140.949 13.761H43.167C41.4833 13.761 40.1115 12.3814 40.1115 10.6817C40.1115 8.98205 41.4833 7.60246 43.167 7.60246H140.949C142.633 7.60246 144.005 8.98205 144.005 10.6817C144.005 12.3814 142.632 13.761 140.949 13.761Z" fill="white"/>
<path d="M140.949 167.729H43.167C38.113 167.729 34 171.874 34 176.967C34 182.061 38.113 186.205 43.167 186.205H140.949C146.003 186.205 150.116 182.061 150.116 176.967C150.116 171.874 146.003 167.729 140.949 167.729ZM140.949 180.047H43.167C41.4833 180.047 40.1115 178.667 40.1115 176.967C40.1115 175.268 41.4833 173.888 43.167 173.888H140.949C142.633 173.888 144.005 175.268 144.005 176.967C144.005 178.667 142.632 180.047 140.949 180.047Z" fill="white"/>
<path d="M113.833 82.3939C129.35 66.7569 137.893 45.9679 137.893 23.8582V16.8405C137.893 15.1376 136.524 13.7612 134.838 13.7612H49.2782C47.5916 13.7612 46.2227 15.1376 46.2227 16.8405V23.8582C46.2227 45.9712 54.7663 66.7569 70.2801 82.3939L73.351 85.4886C75.5296 87.6841 76.7794 90.7205 76.7794 93.8246C76.7794 96.9287 75.5296 99.9651 73.3539 102.161L70.2829 105.255C54.7663 120.892 46.2227 141.678 46.2227 163.791V170.809C46.2227 172.512 47.5916 173.888 49.2782 173.888H134.837C136.524 173.888 137.893 172.512 137.893 170.809V163.791C137.893 141.681 129.349 120.892 113.832 105.255L110.762 102.161C108.552 99.934 107.336 96.9749 107.336 93.8246C107.336 90.6743 108.552 87.7152 110.762 85.4886L113.833 82.3939ZM106.441 81.1345C103.077 84.5219 101.225 89.0269 101.225 93.8246C101.225 98.6223 103.077 103.127 106.441 106.515L109.512 109.609C123.874 124.083 131.782 143.325 131.782 163.791V167.729H52.3341V163.791C52.3341 143.322 60.2421 124.083 74.6007 109.609L77.6717 106.515C81.0392 103.127 82.8908 98.619 82.8908 93.8246C82.8908 89.0302 81.0392 84.5219 77.6749 81.1345L74.604 78.0397C60.2421 63.5665 52.3341 44.3235 52.3341 23.8582V19.9197H131.782V23.8582C131.782 44.3239 123.874 63.5665 109.512 78.0397L106.441 81.1345Z" fill="white"/>
<path d="M117.882 53.3218C117.573 52.5398 116.522 50.7135 113.448 50.7135C97.5708 50.7135 90.4968 47.286 87.6915 45.2413C84.1926 42.6886 79.704 42.0203 75.6734 43.4583C71.8264 44.8285 69.009 47.8771 67.9487 51.8188C67.6737 52.8444 67.6246 53.5094 67.6246 53.5094C67.5788 54.116 67.7102 54.7721 68.0067 55.3047C70.87 60.4196 74.173 65.8145 78.9277 70.6061L81.9954 73.7008C86.5148 78.2491 89.0021 84.303 89.0021 90.7451C89.0021 92.448 90.3711 93.8244 92.0577 93.8244C93.7443 93.8244 95.1132 92.448 95.1132 90.7451C95.1132 84.3062 97.6005 78.252 102.117 73.7008L105.191 70.6028C105.946 69.8454 106.929 68.9093 108.011 67.887C115.911 60.4012 119.233 56.7583 117.882 53.3218ZM103.82 63.4007C102.689 64.4753 101.656 65.4547 100.868 66.249L97.7939 69.347C95.4198 71.7366 93.4947 74.4586 92.0552 77.4087C90.616 74.4586 88.6909 71.7366 86.3165 69.347L83.2484 66.2522C79.496 62.4679 76.7491 58.3013 73.8919 53.2788C74.6467 50.7077 76.6023 49.6605 77.7116 49.2631C79.8444 48.5024 82.2371 48.8629 84.1071 50.2303C87.9998 53.0695 95.6758 56.4165 110.38 56.8294C108.492 58.9725 105.528 61.784 103.82 63.4007Z" fill="white"/>
<path d="M125.46 158.251C124.693 148.268 120.721 144.123 116.125 139.319C115.505 138.669 114.857 137.995 114.194 137.28C110.356 133.148 104.935 130.777 99.3155 130.777H84.7979C79.1817 130.777 73.7577 133.148 69.9198 137.28C69.2566 137.995 68.612 138.666 67.9915 139.316C63.3925 144.12 59.4203 148.268 58.6565 158.254C58.5891 159.11 58.8824 159.954 59.46 160.585C60.0405 161.214 60.8505 161.571 61.7027 161.571H122.413C123.262 161.571 124.075 161.214 124.656 160.582C125.234 159.951 125.524 159.104 125.46 158.251ZM65.1833 155.412C66.2193 150.035 68.6883 147.461 72.3916 143.593C73.0333 142.922 73.6994 142.223 74.384 141.487C77.0701 138.592 80.8651 136.936 84.7979 136.936H99.3155C103.251 136.936 107.046 138.595 109.732 141.484C110.42 142.229 111.086 142.922 111.731 143.597C115.431 147.464 117.897 150.039 118.936 155.412H65.1833Z" fill="white"/>
<path d="M91.9667 99.9832C90.2801 99.9832 88.9111 101.359 88.9111 103.062V106.142C88.9111 107.845 90.2801 109.221 91.9667 109.221C93.6533 109.221 95.0223 107.845 95.0223 106.142V103.062C95.0223 101.359 93.6533 99.9832 91.9667 99.9832Z" fill="white"/>
<path d="M91.9667 115.38C90.2801 115.38 88.9111 116.756 88.9111 118.459V121.538C88.9111 123.241 90.2801 124.618 91.9667 124.618C93.6533 124.618 95.0223 123.241 95.0223 121.538V118.459C95.0223 116.757 93.6533 115.38 91.9667 115.38Z" fill="white"/>
</svg>
