<svg width="129" height="129" viewBox="0 0 129 129" fill="none" xmlns="http://www.w3.org/2000/svg">
<path d="M128.465 70.836C127.309 58.7264 122.116 47.31 113.841 38.6897C106.77 31.3233 98.115 26.5895 89.0079 24.4846V17.8303C92.7276 16.8663 95.4925 13.3587 95.4925 9.18955C95.4925 4.27949 91.6582 0.285034 86.945 0.285034H68.8445C64.1313 0.285034 60.297 4.27949 60.297 9.18955C60.297 13.3584 63.0619 16.866 66.7813 17.8303V24.5032C57.7021 26.617 49.0757 31.3442 42.0246 38.6899C40.4815 40.2975 39.0586 41.9838 37.7561 43.7364C37.693 43.7315 37.6299 43.7265 37.5656 43.7265H19.6509C18.2626 43.7265 17.1369 44.899 17.1369 46.3455C17.1369 47.7919 18.2626 48.9644 19.6509 48.9644H34.3354C32.4922 52.1792 31.0059 55.5554 29.8746 59.0307H2.51396C1.12575 59.0307 0 60.2032 0 61.6497C0 63.0962 1.12575 64.2687 2.51396 64.2687H28.454C27.7295 67.5819 27.3137 70.9539 27.2063 74.3352H16.0893C14.7011 74.3352 13.5754 75.5077 13.5754 76.9542C13.5754 78.4007 14.7011 79.5732 16.0893 79.5732H27.2865C27.4987 82.9632 28.0218 86.3354 28.8562 89.6397H12.5698C11.1816 89.6397 10.0558 90.8122 10.0558 92.2587C10.0558 93.7052 11.1816 94.8777 12.5698 94.8777H30.4606C32.9268 101.674 36.781 108.044 42.0246 113.507C50.3071 122.135 61.277 127.547 72.9131 128.744C74.5738 128.915 76.2358 129 77.8955 129C87.7055 129 97.3907 126.042 105.609 120.467C106.772 119.678 107.101 118.055 106.344 116.843C105.586 115.631 104.029 115.288 102.865 116.077C84.876 128.281 60.784 125.643 45.5798 109.803C27.7403 91.2184 27.7403 60.979 45.5798 42.394C63.4191 23.8095 92.446 23.8095 110.286 42.394C125.47 58.2126 128.017 83.2895 116.341 102.021C115.585 103.234 115.916 104.856 117.08 105.644C118.245 106.432 119.802 106.087 120.558 104.874C126.796 94.8651 129.604 82.7772 128.465 70.836ZM65.325 9.18981C65.325 7.16796 66.9037 5.52324 68.8445 5.52324H86.945C88.8858 5.52324 90.4645 7.16796 90.4645 9.18981C90.4645 11.2117 88.8858 12.8564 86.945 12.8564H86.494H69.2952H68.8445C66.9037 12.8564 65.325 11.2114 65.325 9.18981ZM71.8092 23.6028V18.0943H83.98V23.5934C79.9386 23.0926 75.8499 23.0958 71.8092 23.6028Z" fill="white"/>
<path d="M112.065 109.035C111.401 109.035 110.755 109.315 110.287 109.802C109.817 110.289 109.551 110.965 109.551 111.654C109.551 112.342 109.817 113.018 110.287 113.505C110.755 113.995 111.401 114.273 112.065 114.273C112.726 114.273 113.372 113.995 113.842 113.505C114.31 113.018 114.578 112.342 114.578 111.654C114.578 110.965 114.31 110.289 113.842 109.802C113.372 109.315 112.725 109.035 112.065 109.035Z" fill="white"/>
<path d="M77.933 35.4701C56.4291 35.4701 38.9342 53.6955 38.9342 76.098C38.9342 98.5004 56.4291 116.726 77.933 116.726C99.4369 116.726 116.932 98.5004 116.932 76.098C116.932 53.6955 99.4369 35.4701 77.933 35.4701ZM77.933 111.488C59.2012 111.488 43.9621 95.612 43.9621 76.098C43.9621 56.584 59.2012 40.708 77.933 40.708C96.6647 40.708 111.904 56.584 111.904 76.098C111.904 95.612 96.6647 111.488 77.933 111.488Z" fill="white"/>
<path d="M93.8356 55.8277L81.3839 68.7992C80.3427 68.2628 79.1714 67.9598 77.9333 67.9598C76.6949 67.9598 75.5239 68.2628 74.4826 68.7992L68.9099 62.9937C67.928 61.971 66.3366 61.971 65.3544 62.9937C64.3727 64.0164 64.3727 65.6748 65.3544 66.6975L70.9271 72.503C70.412 73.5877 70.1214 74.8079 70.1214 76.0978C70.1214 80.5851 73.6256 84.236 77.9333 84.236C82.2409 84.236 85.7452 80.5851 85.7452 76.0978C85.7452 74.8079 85.4543 73.5877 84.9394 72.503L97.0255 59.912L97.3908 59.5315C98.3725 58.5087 98.3725 56.8504 97.3908 55.8277C96.4091 54.805 94.8178 54.805 93.8356 55.8277ZM77.9333 78.9983C76.3983 78.9983 75.1493 77.6972 75.1493 76.098C75.1493 74.4989 76.3983 73.1978 77.9333 73.1978C79.4683 73.1978 80.7172 74.4989 80.7172 76.098C80.7172 77.6972 79.4683 78.9983 77.9333 78.9983Z" fill="white"/>
<path d="M104.812 73.511H102.483C101.094 73.511 99.9688 74.6835 99.9688 76.1299C99.9688 77.5764 101.094 78.7489 102.483 78.7489H104.812C106.2 78.7489 107.326 77.5764 107.326 76.1299C107.326 74.6835 106.2 73.511 104.812 73.511Z" fill="white"/>
<path d="M53.3829 73.4473H51.054C49.6658 73.4473 48.54 74.6198 48.54 76.0662C48.54 77.5126 49.6658 78.6851 51.054 78.6851H53.3829C54.771 78.6851 55.8968 77.5126 55.8968 76.0662C55.8968 74.6198 54.771 73.4473 53.3829 73.4473Z" fill="white"/>
<path d="M77.9634 53.1412C79.3516 53.1412 80.4773 51.9687 80.4773 50.5223V48.0961C80.4773 46.6497 79.3516 45.4772 77.9634 45.4772C76.5752 45.4772 75.4495 46.6497 75.4495 48.0961V50.5223C75.4495 51.9687 76.5752 53.1412 77.9634 53.1412Z" fill="white"/>
<path d="M77.9023 99.0547C76.5142 99.0547 75.3884 100.227 75.3884 101.674V104.1C75.3884 105.546 76.5142 106.719 77.9023 106.719C79.2905 106.719 80.4163 105.546 80.4163 104.1V101.674C80.4163 100.227 79.2905 99.0547 77.9023 99.0547Z" fill="white"/>
<path d="M2.51392 89.6387C1.85276 89.6387 1.20417 89.9189 0.736578 90.406C0.268989 90.8931 0 91.5688 0 92.2576C0 92.949 0.268738 93.6221 0.736578 94.1092C1.20442 94.5963 1.85276 94.8765 2.51392 94.8765C3.17508 94.8765 3.82367 94.5963 4.29101 94.1092C4.7586 93.6221 5.02784 92.9464 5.02784 92.2576C5.02784 91.5688 4.75885 90.8931 4.29101 90.406C3.82367 89.9189 3.17508 89.6387 2.51392 89.6387Z" fill="white"/>
</svg>
