<svg width="194" height="194" viewBox="0 0 194 194" fill="none" xmlns="http://www.w3.org/2000/svg">
<path d="M192.635 105.918C190.902 87.7598 183.115 70.6407 170.708 57.7143C160.104 46.6683 147.126 39.5698 133.469 36.4135V26.4353C139.047 24.9897 143.193 19.73 143.193 13.4782C143.193 6.11551 137.443 0.125732 130.376 0.125732H103.234C96.1663 0.125732 90.4167 6.11551 90.4167 13.4782C90.4167 19.7296 94.5627 24.9893 100.14 26.4353V36.4414C86.5256 39.6111 73.5901 46.6997 63.0168 57.7147C60.7029 60.1252 58.5692 62.654 56.6161 65.2821C56.5215 65.2746 56.4269 65.2671 56.3304 65.2671H29.4669C27.3852 65.2671 25.6972 67.0254 25.6972 69.1944C25.6972 71.3633 27.3852 73.1216 29.4669 73.1216H51.4867C48.7227 77.9422 46.494 83.0048 44.7976 88.2162H3.76973C1.68809 88.2162 0 89.9744 0 92.1434C0 94.3124 1.68809 96.0706 3.76973 96.0706H42.6674C41.5809 101.039 40.9574 106.095 40.7964 111.166H24.1263C22.0447 111.166 20.3566 112.924 20.3566 115.093C20.3566 117.262 22.0447 119.02 24.1263 119.02H40.9167C41.2349 124.103 42.0193 129.16 43.2705 134.115H18.8487C16.767 134.115 15.0789 135.873 15.0789 138.042C15.0789 140.211 16.767 141.969 18.8487 141.969H45.6764C49.3745 152.161 55.1539 161.713 63.0168 169.904C75.4365 182.843 91.8862 190.957 109.335 192.753C111.825 193.009 114.317 193.136 116.806 193.136C131.516 193.136 146.04 188.701 158.363 180.341C160.107 179.157 160.601 176.724 159.465 174.907C158.328 173.089 155.993 172.575 154.249 173.759C127.273 192.059 91.1469 188.102 68.3479 164.351C41.5971 136.482 41.5971 91.1376 68.3479 63.269C95.0984 35.4011 138.625 35.4011 165.376 63.269C188.145 86.9893 191.964 124.593 174.456 152.681C173.322 154.5 173.818 156.933 175.564 158.113C177.311 159.295 179.645 158.778 180.779 156.958C190.133 141.951 194.344 123.825 192.635 105.918ZM97.9562 13.4786C97.9562 10.4468 100.324 7.98054 103.234 7.98054H130.376C133.286 7.98054 135.654 10.4468 135.654 13.4786C135.654 16.5104 133.286 18.9767 130.376 18.9767H129.7H103.91H103.234C100.324 18.9767 97.9562 16.51 97.9562 13.4786ZM107.679 35.0912V26.8311H125.93V35.0771C119.87 34.3262 113.739 34.3309 107.679 35.0912Z" fill="white"/>
<path d="M168.043 163.198C167.048 163.198 166.079 163.618 165.378 164.348C164.673 165.079 164.273 166.092 164.273 167.125C164.273 168.158 164.673 169.171 165.378 169.901C166.079 170.636 167.048 171.052 168.043 171.052C169.035 171.052 170.003 170.636 170.708 169.901C171.409 169.171 171.813 168.158 171.813 167.125C171.813 166.092 171.41 165.079 170.708 164.348C170.003 163.618 169.034 163.198 168.043 163.198Z" fill="white"/>
<path d="M116.862 52.8865C84.6167 52.8865 58.3827 80.2159 58.3827 113.809C58.3827 147.402 84.6167 174.731 116.862 174.731C149.108 174.731 175.342 147.402 175.342 113.809C175.342 80.2159 149.108 52.8865 116.862 52.8865ZM116.862 166.877C88.7735 166.877 65.9222 143.071 65.9222 113.809C65.9222 84.5472 88.7735 60.7409 116.862 60.7409C144.951 60.7409 167.802 84.5472 167.802 113.809C167.802 143.071 144.951 166.877 116.862 166.877Z" fill="white"/>
<path d="M140.708 83.4131L122.037 102.864C120.475 102.06 118.719 101.606 116.863 101.606C115.006 101.606 113.25 102.06 111.688 102.864L103.332 94.1587C101.859 92.6252 99.4731 92.6252 98.0003 94.1587C96.5282 95.6923 96.5282 98.179 98.0003 99.7126L106.357 108.418C105.584 110.045 105.148 111.874 105.148 113.809C105.148 120.537 110.403 126.012 116.863 126.012C123.322 126.012 128.577 120.537 128.577 113.809C128.577 111.874 128.14 110.045 127.368 108.418L145.492 89.5376L146.04 88.967C147.512 87.4334 147.512 84.9467 146.04 83.4131C144.567 81.8795 142.181 81.8795 140.708 83.4131ZM116.863 118.158C114.561 118.158 112.688 116.207 112.688 113.809C112.688 111.411 114.561 109.46 116.863 109.46C119.164 109.46 121.037 111.411 121.037 113.809C121.037 116.207 119.164 118.158 116.863 118.158Z" fill="white"/>
<path d="M157.168 109.929H153.675C151.593 109.929 149.905 111.688 149.905 113.857C149.905 116.026 151.593 117.784 153.675 117.784H157.168C159.249 117.784 160.937 116.026 160.937 113.857C160.937 111.688 159.249 109.929 157.168 109.929Z" fill="white"/>
<path d="M80.0488 109.834H76.5565C74.4749 109.834 72.7869 111.592 72.7869 113.761C72.7869 115.93 74.4749 117.688 76.5565 117.688H80.0488C82.1304 117.688 83.8184 115.93 83.8184 113.761C83.8184 111.592 82.1304 109.834 80.0488 109.834Z" fill="white"/>
<path d="M116.908 79.3845C118.989 79.3845 120.678 77.6263 120.678 75.4573V71.8192C120.678 69.6503 118.989 67.8921 116.908 67.8921C114.826 67.8921 113.138 69.6503 113.138 71.8192V75.4573C113.138 77.6263 114.826 79.3845 116.908 79.3845Z" fill="white"/>
<path d="M116.816 148.233C114.735 148.233 113.047 149.991 113.047 152.16V155.798C113.047 157.967 114.735 159.725 116.816 159.725C118.898 159.725 120.586 157.967 120.586 155.798V152.16C120.586 149.991 118.898 148.233 116.816 148.233Z" fill="white"/>
<path d="M3.76968 134.114C2.77825 134.114 1.80567 134.534 1.10452 135.264C0.403355 135.995 0 137.008 0 138.041C0 139.077 0.402978 140.087 1.10452 140.817C1.80605 141.548 2.77825 141.968 3.76968 141.968C4.7611 141.968 5.73368 141.548 6.43446 140.817C7.13562 140.087 7.53935 139.074 7.53935 138.041C7.53935 137.008 7.136 135.995 6.43446 135.264C5.73368 134.534 4.7611 134.114 3.76968 134.114Z" fill="white"/>
</svg>
