<svg width="210" height="187" viewBox="0 0 210 187" fill="none" xmlns="http://www.w3.org/2000/svg">
<path d="M208.245 86.4902L169.649 53.5474C169.694 53.3221 169.739 53.0967 169.784 52.8263V9.74381C169.739 7.17508 167.71 5.10207 165.14 5.01194H143.588C141.108 5.01194 139.079 7.22014 139.079 9.74381V27.5897L108.193 1.27151C106.525 -0.170582 104.045 -0.170582 102.331 1.27151L2.27889 86.4451C0.34006 88.0224 0.114616 90.8615 1.69273 92.7994C3.27084 94.7372 6.11145 94.9625 8.05027 93.3852C8.09536 93.3401 8.09536 93.3401 8.14045 93.2951L105.262 10.6451L140.026 40.2531L160.812 57.9187L202.429 93.3401C204.323 94.9625 207.163 94.7372 208.786 92.8444C210.364 90.9517 210.139 88.1126 208.245 86.4902ZM160.722 45.9313L148.097 35.2959V14.0701H160.722V45.9313Z" fill="white"/>
<path d="M188.361 95.5934L175.691 84.7777L108.193 27.1389C106.525 25.6968 104.045 25.6968 102.331 27.1389L34.8332 84.7777L22.1632 95.5934C20.2695 97.2158 20.044 100.055 21.6672 101.948C23.2453 103.84 26.0409 104.066 27.8895 102.488L27.9346 102.443L33.5707 97.5763V182.074C33.6158 184.598 35.6899 186.671 38.2149 186.716H172.264C174.789 186.671 176.863 184.643 176.909 182.074V97.5763L182.545 102.443C183.356 103.119 184.348 103.525 185.43 103.525C186.738 103.525 188 102.939 188.857 101.948C190.525 100.01 190.255 97.1707 188.361 95.5934ZM123.298 177.658H87.2266V128.987H123.298V177.658ZM132.316 177.658V124.616C132.316 122.137 130.467 119.974 127.987 119.974H82.5373C80.0574 119.974 78.2088 122.137 78.2088 124.616V177.658H42.5885V89.8701L105.262 36.5126L167.936 89.8701V177.658H132.316Z" fill="white"/>
</svg>
