<svg width="129" height="130" viewBox="0 0 129 130" fill="none" xmlns="http://www.w3.org/2000/svg">
<g clip-path="url(#clip0)">
<path d="M104.454 70.5524L94.1156 80.99C93.9805 80.8249 93.8373 80.6644 93.6843 80.5099L80.3319 67.0303C79.5934 66.2851 78.3969 66.2851 77.6587 67.0303C76.9205 67.7755 76.9205 68.9837 77.6587 69.7286L91.0112 83.2083C92.1591 84.3669 92.1591 86.2524 91.0114 87.4111C89.863 88.5697 87.9955 88.5699 86.8481 87.4111L79.4284 79.9207C78.69 79.1755 77.4934 79.1755 76.7552 79.9207C76.017 80.6659 76.017 81.8741 76.7552 82.6191L84.1749 90.1094C84.1752 90.1097 84.1757 90.1099 84.1759 90.1104C84.7314 90.6717 85.0373 91.4174 85.0373 92.2109C85.0373 93.0047 84.7311 93.7509 84.1749 94.3124C83.6189 94.8737 82.8798 95.1828 82.0935 95.1828C81.3072 95.1828 80.568 94.8737 80.0121 94.3124L72.5923 86.8221C71.8539 86.0769 70.6573 86.0769 69.9192 86.8221C69.181 87.5673 69.181 88.7755 69.9192 89.5204L77.3389 97.0108C78.4868 98.1694 78.4868 100.055 77.3391 101.214C76.7829 101.775 76.0435 102.084 75.2572 102.084C74.4709 102.084 73.7317 101.775 73.1758 101.214L65.7561 93.7235C65.0177 92.9783 63.8211 92.9783 63.0829 93.7235C62.3447 94.4687 62.3447 95.6769 63.0829 96.4218L70.5026 103.912C71.6506 105.071 71.6506 106.956 70.5026 108.115C69.9466 108.676 69.2075 108.985 68.4212 108.985C67.6349 108.985 66.8957 108.676 66.3397 108.115L61.533 103.262C63.0645 100.686 62.7323 97.2871 60.5345 95.0686L60.4206 94.9536C58.9563 93.4754 56.9727 92.8335 55.0568 93.0266C54.9492 91.408 54.2751 89.9008 53.1279 88.7427C52.2405 87.8469 51.1624 87.2581 50.0243 86.9763C50.3143 86.2163 50.4678 85.4014 50.4678 84.5626C50.4678 82.771 49.7768 81.0867 48.522 79.8199C47.2672 78.5532 45.5988 77.8556 43.8241 77.8556C42.8127 77.8556 41.8364 78.0828 40.9511 78.5122C40.6532 77.4442 40.0904 76.4364 39.2595 75.5976C36.6695 72.9827 32.4545 72.9829 29.864 75.5976L29.0845 76.3845L28.5162 75.8108C27.6021 74.888 27.0988 73.6615 27.0988 72.3565V67.3801C27.0988 66.8741 26.8997 66.3886 26.5454 66.0309L18.4762 57.8849L20.7452 55.5941C21.4833 54.8489 21.4833 53.6407 20.7449 52.8957C20.007 52.1503 18.8102 52.1505 18.072 52.8957L15.0326 55.9643C14.4595 56.5428 13.5266 56.5431 12.9535 55.9643L3.22679 46.1447C2.48863 45.3995 1.29204 45.3995 0.553623 46.1447C-0.184541 46.8899 -0.184541 48.0979 0.553623 48.8431L10.2806 58.6627C11.3043 59.6959 12.6485 60.2123 13.9928 60.2123C14.4233 60.2123 14.8524 60.1533 15.2723 60.0475L23.3185 68.1701V72.3563C23.3185 74.6804 24.2152 76.8654 25.843 78.5089L26.4116 79.0829L25.779 79.7215C24.5242 80.9882 23.8329 82.6725 23.8329 84.4641C23.8329 86.2557 24.5239 87.94 25.7787 89.2065C27.0741 90.514 28.7755 91.1678 30.4769 91.1678C30.5039 91.1678 30.5308 91.1663 30.5578 91.1658C30.5575 91.194 30.5558 91.222 30.5558 91.2505C30.5558 93.0421 31.2468 94.7264 32.5016 95.9929C33.7564 97.2596 35.425 97.9573 37.1995 97.9573C37.2275 97.9573 37.2555 97.9555 37.2834 97.9552C37.2625 99.6998 37.9084 101.451 39.224 102.779C40.5194 104.087 42.2207 104.741 43.9221 104.741C43.9501 104.741 43.9781 104.739 44.0058 104.739C43.9841 106.484 44.63 108.237 45.9466 109.566L46.0605 109.681C47.3153 110.948 48.9837 111.645 50.7581 111.645C52.5329 111.645 54.2012 110.948 55.456 109.681L59.0007 106.103L63.6671 110.814C64.937 112.096 66.6255 112.802 68.4217 112.802C70.2178 112.802 71.9063 112.096 73.1763 110.814C74.5163 109.461 75.1695 107.675 75.1398 105.898C75.1791 105.898 75.2181 105.9 75.2577 105.9C77.0538 105.9 78.7424 105.194 80.0126 103.912C81.3533 102.559 82.0065 100.771 81.976 98.9933C82.0154 98.994 82.0547 98.996 82.094 98.996C83.8155 98.9958 85.5378 98.334 86.8483 97.0111C88.1185 95.729 88.8179 94.0244 88.8179 92.2112C88.8179 92.1712 88.8156 92.1318 88.8151 92.0921C88.8534 92.0929 88.8917 92.0949 88.93 92.0949C90.6518 92.0949 92.3738 91.4332 93.6849 90.1099C95.1103 88.6709 95.7587 86.7414 95.6342 84.8549L107.128 73.2513C107.866 72.5061 107.866 71.2979 107.128 70.553C106.389 69.8073 105.193 69.8073 104.454 70.5524ZM28.4517 86.5079C27.9108 85.9619 27.6132 85.236 27.6132 84.4641C27.6132 83.692 27.9111 82.9661 28.4519 82.4201L32.5369 78.2962C33.0954 77.7327 33.8285 77.4508 34.5619 77.4508C35.295 77.4508 36.0281 77.7324 36.5863 78.296C37.7028 79.4233 37.7028 81.2572 36.5863 82.384L32.5011 86.5081C31.3847 87.6352 29.5684 87.6349 28.4517 86.5079ZM37.199 94.1412C36.4344 94.1412 35.7151 93.8405 35.1743 93.2945C34.6334 92.7485 34.3358 92.0227 34.3358 91.2508C34.3358 90.4788 34.6337 89.7527 35.1745 89.2067L39.2598 85.0826L41.7996 82.5186C42.3404 81.9726 43.0592 81.6719 43.8241 81.6719C44.589 81.6719 45.308 81.9726 45.8486 82.5186C46.3894 83.0646 46.6873 83.7907 46.6873 84.5626C46.6873 85.3345 46.3894 86.0606 45.8486 86.6066L39.2235 93.2948C38.6826 93.8405 37.9639 94.1412 37.199 94.1412ZM41.8966 100.081C40.7802 98.9538 40.7802 97.12 41.8966 95.9929L46.4055 91.4408C46.9637 90.8775 47.6969 90.5959 48.4302 90.5959C49.1634 90.5959 49.8967 90.8778 50.4547 91.4411C50.9955 91.987 51.2934 92.7132 51.2934 93.4851C51.2934 94.2567 50.9961 94.9821 50.4557 95.5278L45.9458 100.081C44.8296 101.208 43.0131 101.208 41.8966 100.081ZM52.7821 106.982C52.2413 107.528 51.5225 107.829 50.7576 107.829C49.993 107.829 49.2738 107.528 48.7332 106.982L48.6195 106.868C47.5028 105.74 47.5028 103.907 48.6195 102.78L53.1281 98.228C53.1297 98.2264 53.1309 98.2249 53.1322 98.2236L53.698 97.6522C54.2564 97.0887 54.9896 96.807 55.7229 96.807C56.4561 96.807 57.1894 97.0889 57.7474 97.6522L57.8611 97.7669C58.9778 98.894 58.9778 100.728 57.8611 101.855L52.7821 106.982Z" fill="white"/>
<path d="M128.22 54.1846C127.482 53.4394 126.285 53.4392 125.547 54.1846L118.464 61.3353C118.366 61.4338 118.206 61.4353 118.106 61.3394L93.065 37.1917C93.0133 37.1418 92.9866 37.08 92.9858 37.0077C92.9851 36.9355 93.0105 36.8729 93.0609 36.822L107.913 21.8286C108.651 21.0834 108.651 19.8751 107.913 19.1302C107.175 18.385 105.978 18.385 105.24 19.1302L90.3878 34.1236C89.6131 34.906 89.1935 35.9458 89.2061 37.0517C89.2164 37.9432 89.5107 38.7826 90.0377 39.4759L83.2408 46.205L76.8367 42.5994C75.9997 42.1279 75.0509 41.8789 74.0925 41.8789H55.8967L54.5118 40.4811C53.225 39.182 51.7104 38.1918 50.01 37.5377L44.9729 35.6003L42.6452 33.2505C43.8489 31.2154 43.5898 28.5373 41.8556 26.7869L34.2711 19.1302C33.533 18.385 32.3364 18.385 31.598 19.1302C30.8598 19.8754 30.8598 21.0836 31.598 21.8286L39.1825 29.4853C39.7556 30.0639 39.7556 31.0055 39.1825 31.5843L23.7682 47.1453C23.0301 47.8905 23.0301 49.0988 23.7682 49.8437C24.1374 50.2162 24.6213 50.4027 25.1049 50.4027C25.5886 50.4027 26.0724 50.2164 26.4416 49.8437L40.0887 36.0666L42.5855 38.5872C42.774 38.7775 43.0003 38.9253 43.2493 39.0212L48.6642 41.1039C49.8326 41.5534 50.8754 42.2297 51.7676 43.1115C51.6529 43.209 51.5402 43.3097 51.4329 43.4181L44.2443 50.6757C42.8176 52.1157 42.0321 54.0307 42.0321 56.0673C42.0321 58.1039 42.8176 60.0187 44.244 61.459C45.7181 62.9471 47.6463 63.7019 49.5831 63.7019C51.2756 63.7019 52.9745 63.1252 54.3815 61.9574L59.8216 57.4425H65.4883L71.9631 63.979C72.3324 64.3515 72.8162 64.538 73.2999 64.538C73.7835 64.538 74.2674 64.3517 74.6366 63.979C75.3747 63.2338 75.3747 62.0256 74.6366 61.2806L69.9588 56.5583C70.1461 56.2622 70.256 55.9116 70.256 55.5343C70.256 54.4805 69.4099 53.6262 68.3658 53.6262H59.1442C58.7064 53.6262 58.282 53.7796 57.9438 54.0605L51.9808 59.0094C50.4729 60.2604 48.2968 60.1533 46.9172 58.7606C46.2045 58.0411 45.8121 57.0847 45.8121 56.0676C45.8121 55.0504 46.2045 54.0938 46.9172 53.3745L54.1061 46.117C54.375 45.8452 54.7328 45.6957 55.1134 45.6957H74.0922C74.4075 45.6957 74.7195 45.7776 74.9949 45.9328L82.0777 49.9205C83.1291 50.5131 84.4661 50.3337 85.3305 49.4809L92.7341 42.1508L113.118 61.807L110.15 64.8026C109.412 65.5477 109.412 66.756 110.151 67.5009C110.52 67.8737 111.003 68.0599 111.487 68.0599C111.971 68.0599 112.455 67.8737 112.824 67.5009L115.877 64.4191C116.586 64.9501 117.433 65.218 118.282 65.218C119.319 65.218 120.356 64.8224 121.137 64.034L128.22 56.8835C128.958 56.1378 128.958 54.9298 128.22 54.1846Z" fill="white"/>
</g>
<defs>
<clipPath id="clip0">
<rect width="128.774" height="130" fill="white" transform="translate(0 -0.00012207)"/>
</clipPath>
</defs>
</svg>
