<svg width="129" height="129" viewBox="0 0 129 129" fill="none" xmlns="http://www.w3.org/2000/svg">
<g clip-path="url(#clip0)">
<path d="M106.214 68.317C105.18 68.317 104.341 69.1557 104.341 70.1901C104.341 71.5016 103.274 72.5686 101.962 72.5686C100.651 72.5686 99.584 71.5016 99.584 70.1901C99.584 69.1554 98.7454 68.317 97.7109 68.317C96.6764 68.317 95.8378 69.1557 95.8378 70.1901C95.8378 73.5673 98.5855 76.3148 101.962 76.3148C105.339 76.3148 108.087 73.5671 108.087 70.1901C108.087 69.1552 107.248 68.317 106.214 68.317Z" fill="white"/>
<path d="M123.797 68.623L118.524 66.9341C117.849 66.7177 117.317 66.1787 117.101 65.4921C115.99 61.9593 114.313 58.6427 112.117 55.634C111.116 54.2627 110.004 52.9532 108.788 51.7065C109.566 48.2944 109.988 44.4328 109.934 41.0965C109.855 36.3238 108.901 33.5246 107.018 32.5381C106.004 32.0062 102.917 30.3902 86.2072 38.0391C85.8115 38.2201 85.442 38.4431 85.0998 38.6985C83.9733 38.3958 82.822 38.1158 81.6636 37.8644C81.524 37.834 81.3802 37.8071 81.2397 37.7774C82.5937 34.8195 83.3843 31.607 83.5329 28.2906C83.5792 27.2569 82.779 26.3815 81.7453 26.3355C80.7143 26.2842 79.8362 27.0892 79.7902 28.1229C79.5461 33.5759 77.284 38.7065 73.4212 42.5697C71.1131 44.8777 68.4107 46.5543 65.5304 47.6101C60.5355 46.9092 55.4478 46.9092 50.4529 47.6101C47.5725 46.5543 44.8703 44.8777 42.5622 42.5697C38.4409 38.4484 36.1711 32.9688 36.1711 27.1402C36.1711 21.3114 38.4409 15.8321 42.5622 11.7108C46.6836 7.5892 52.1634 5.31938 57.9917 5.31938C63.82 5.31938 69.2998 7.5892 73.4212 11.7108C75.0773 13.3669 76.4459 15.2569 77.4889 17.3276C77.9543 18.2518 79.0807 18.6238 80.0046 18.1582C80.9287 17.6932 81.3005 16.5667 80.8352 15.6428C79.6127 13.2146 78.0096 11.0006 76.0706 9.06135C71.2416 4.23236 64.821 1.57288 57.9919 1.57288C51.1629 1.57288 44.7423 4.23236 39.9133 9.06135C35.0843 13.8906 32.4248 20.3109 32.4248 27.14C32.4248 33.9691 35.0843 40.3896 39.9133 45.2186C41.3063 46.6116 42.8217 47.8095 44.4245 48.813L44.4261 48.8128C43.2614 49.1154 42.1054 49.4553 40.9624 49.8374C39.9812 50.1655 39.4518 51.2266 39.7798 52.2081C40.1076 53.1893 41.1693 53.7187 42.1502 53.3909C52.3658 49.9757 63.6181 49.9757 73.8337 53.3909C74.0308 53.4567 74.2309 53.4879 74.4277 53.4879C75.2113 53.4879 75.9419 52.9922 76.2041 52.2081C76.5321 51.2269 76.0027 50.1655 75.0215 49.8374C73.8784 49.4553 72.7225 49.1152 71.5578 48.8128L71.5593 48.813C73.1625 47.8095 74.6776 46.6116 76.0706 45.2186C77.3029 43.9863 78.3907 42.6406 79.3352 41.2104C79.8515 41.3107 80.3641 41.4158 80.8691 41.5254C81.5419 41.6715 82.2116 41.8283 82.8753 41.993C82.8544 42.0744 82.833 42.1556 82.8157 42.2383C81.9021 46.5736 81.9614 50.4078 82.9919 53.634C83.918 56.5338 85.5895 58.883 87.9594 60.6169C90.7526 62.6602 94.1248 63.5428 97.1795 63.5428C99.4785 63.5428 101.598 63.0426 103.155 62.1609C104.915 61.1637 106.39 59.0623 107.558 55.9073C108.098 56.5373 108.61 57.1826 109.092 57.8433C111.047 60.5216 112.539 63.4735 113.528 66.6164C114.108 68.4623 115.549 69.9149 117.382 70.5024L122.654 72.1912C124.038 72.6344 124.967 73.9078 124.967 75.3603V84.1025C124.967 85.555 124.038 86.8283 122.654 87.2715L114.16 89.9923C112.801 90.428 111.651 91.3619 110.922 92.6224C107.584 98.3898 102.338 103.163 95.326 106.808C94.516 107.23 93.9549 107.983 93.7859 108.877L91.0654 123.282C90.9902 123.679 90.6425 123.967 90.2385 123.967H81.3928C80.9888 123.967 80.6411 123.679 80.566 123.282L79.0591 115.321C78.7625 113.755 77.2933 112.714 75.7121 112.954C71.9017 113.53 67.9755 113.822 64.043 113.822C61.1173 113.822 58.229 113.659 55.4579 113.337C53.9257 113.16 52.4983 114.205 52.2119 115.718L50.78 123.282C50.7048 123.679 50.3572 123.967 49.9532 123.967H41.1074C40.7034 123.967 40.3558 123.679 40.2796 123.276L37.6601 109.671C37.4914 108.794 36.9408 108.049 36.1487 107.626C24.1965 101.245 17.879 90.5849 17.879 76.7985C17.879 69.8329 19.403 63.6736 22.4084 58.4909C25.2129 53.6543 29.3091 49.6554 34.583 46.6048C35.4785 46.0867 35.7844 44.9408 35.2666 44.0451C34.7487 43.1496 33.6029 42.8442 32.7071 43.3616C22.4808 49.2773 16.3128 58.4039 14.6147 69.9956C14.4344 69.9792 14.2539 69.9634 14.0742 69.9448C14.1069 68.6941 13.8806 67.4321 13.3879 66.2074C12.3011 63.5059 10.0688 61.5561 7.7004 61.2401C5.83406 60.9902 4.05798 61.7826 2.8254 63.4111C1.03825 65.7727 1.32961 67.6415 1.88846 68.7934C2.83193 70.7374 5.25712 72.1126 9.28166 72.9771C9.17104 73.1428 9.04937 73.3092 8.91613 73.4764C6.53821 76.4586 3.7367 77.118 1.91762 77.1801C0.852723 77.2161 0 78.0711 0 79.1367V79.1458C0 80.1968 0.829343 81.0541 1.87941 81.1021C2.0139 81.1084 2.15443 81.1117 2.30074 81.1117C4.60249 81.1117 8.2967 80.2627 11.8459 75.8123C12.4062 75.1099 12.8627 74.3688 13.2137 73.6031C13.5671 73.643 13.9068 73.6772 14.2321 73.7074L14.2323 73.7054C14.1685 74.7205 14.133 75.7505 14.133 76.7985C14.133 84.5987 15.9926 91.5535 19.6596 97.4705C23.0409 102.926 27.8819 107.392 34.0531 110.752L36.5997 123.979C37.0092 126.143 38.905 127.714 41.1074 127.714H49.9532C52.1556 127.714 54.0514 126.143 54.4609 123.979L55.7556 117.139C58.4444 117.424 61.2284 117.568 64.0427 117.568C67.9041 117.568 71.7609 117.299 75.5198 116.768L76.8846 123.979C77.2943 126.143 79.1901 127.714 81.3923 127.714H90.238C92.4405 127.714 94.3362 126.143 94.746 123.978L97.3949 109.953C104.878 105.996 110.519 100.797 114.164 94.4985C114.427 94.0445 114.831 93.7114 115.303 93.5603L123.797 90.8395C126.737 89.8971 128.713 87.1898 128.713 84.102V75.3598C128.713 72.2722 126.737 69.5649 123.797 68.623ZM105.906 46.3604C105.185 52.5261 103.251 57.8003 101.308 58.9009C99.0991 60.1521 93.9996 60.3937 90.1709 57.5929C86.3377 54.7889 85.0619 49.7464 86.481 43.0106C86.6235 42.3341 87.1042 41.7486 87.7666 41.4455C97.1445 37.1527 102.551 35.7487 104.56 35.7487C104.863 35.7487 105.089 35.7806 105.239 35.8394C105.842 36.4825 106.634 40.138 105.906 46.3604ZM5.25938 67.1576C5.06556 66.7579 5.52309 66.0553 5.8132 65.6716C6.27299 65.0643 6.69659 64.9401 7.01661 64.9401C7.08424 64.9401 7.14734 64.9456 7.20516 64.9534C8.06643 65.0683 9.27311 66.0161 9.9124 67.6051C10.063 67.9792 10.2586 68.5989 10.3043 69.3716C7.71121 68.8344 5.69655 68.0599 5.25938 67.1576Z" fill="white"/>
<g clip-path="url(#clip1)">
<path d="M60.4265 26.9077C64.4704 26.9077 67.7605 23.6177 67.7605 19.5737C67.7605 15.5298 64.4704 12.2397 60.4265 12.2397C60.4107 12.2397 60.395 12.24 60.3794 12.2406H54.3885L54.3868 12.2405C53.6721 12.2405 53.0926 12.82 53.0926 13.5348V25.6135V29.4962H51.7983C51.0835 29.4962 50.504 30.0756 50.504 30.7904C50.504 31.5052 51.0835 32.0846 51.7983 32.0846H53.0925V39.4186C53.0925 40.1334 53.672 40.7129 54.3867 40.7129C55.1015 40.7129 55.681 40.1334 55.681 39.4186V32.0846H60.4265C61.1412 32.0846 61.7207 31.5052 61.7207 30.7904C61.7207 30.0756 61.1412 29.4962 60.4265 29.4962H55.681V26.9077H60.4265ZM60.4265 14.8291C60.4405 14.8291 60.4544 14.8288 60.4682 14.8284C63.0658 14.8508 65.172 16.9709 65.172 19.5737C65.172 22.1904 63.0432 24.3192 60.4265 24.3192H55.681V14.8291H60.4265Z" fill="white"/>
</g>
</g>
<defs>
<clipPath id="clip0">
<rect width="128.713" height="128.713" fill="white" transform="translate(0 0.286987)"/>
</clipPath>
<clipPath id="clip1">
<rect width="28.4731" height="28.4731" fill="white" transform="translate(44.993 12.2397)"/>
</clipPath>
</defs>
</svg>
