<svg width="21" height="12" viewBox="0 0 21 12" fill="none" xmlns="http://www.w3.org/2000/svg">
<path d="M10.6269 11.9888C13.6649 11.9888 12.5816 10.2993 12.8161 9.81348C12.8126 9.45068 12.8091 9.10171 12.8231 8.88956C13.0156 8.93722 13.4697 9.13937 14.4077 9.94031C15.8559 11.224 16.226 11.9888 17.3959 11.9888H19.5492C20.2317 11.9888 20.587 11.7405 20.7646 11.5322C20.9361 11.3308 21.1041 10.9772 20.9204 10.4269C20.44 9.10171 17.6382 6.81343 17.4641 6.57208C17.4904 6.52749 17.5324 6.46831 17.5543 6.43756H17.5525C18.1055 5.79574 20.216 3.01783 20.5266 1.90636C20.5266 1.90636 20.5284 1.90251 20.5284 1.90021C20.6964 1.3929 20.5424 1.06391 20.3831 0.8779C20.1434 0.599648 19.7619 0.458984 19.2465 0.458984H17.0931C16.3721 0.458984 15.8252 0.777975 15.5487 1.35984C15.0859 2.39368 13.7856 4.51977 12.8109 5.27228C12.7811 4.20616 12.8012 3.39216 12.817 2.78723C12.8485 1.60735 12.95 0.458984 11.5561 0.458984H8.17163C7.29838 0.458984 6.46275 1.29682 7.3675 2.29145C8.1585 3.1631 7.65187 3.64889 7.8225 6.06707C7.1575 5.44062 5.9745 3.74882 5.138 1.5866C4.9035 1.00165 4.54825 0.459753 3.54812 0.459753H1.39475C0.5215 0.459753 0 0.8779 0 1.57814C0 3.1508 3.96287 11.9888 10.6269 11.9888Z" fill="#FF6B00"/>
</svg>
