<svg width="21" height="19" viewBox="0 0 21 19" fill="none" xmlns="http://www.w3.org/2000/svg">
<path d="M15.0931 18.4477C14.4152 18.4477 13.7431 18.3424 13.0858 18.1326C10.1903 17.2086 7.5027 15.7037 5.31337 13.7805C3.12405 11.8573 1.4109 9.49626 0.359096 6.95268C0.0211004 6.13525 -0.0786455 5.29145 0.0627295 4.44462C0.195164 3.6514 0.54493 2.88135 1.07426 2.2177C1.60592 1.55112 2.31472 0.996709 3.12401 0.614404C3.98703 0.206735 4.92899 0 5.92383 0C6.23324 0 6.50065 0.189909 6.56549 0.45566L7.59551 4.67823C7.64215 4.86944 7.57525 5.06839 7.41788 5.20667L5.65785 6.75275C7.31818 9.65259 10.0123 12.0193 13.3133 13.4778L15.0733 11.9317C15.2307 11.7934 15.4572 11.7347 15.6749 11.7756L20.4817 12.6805C20.7842 12.7374 21.0004 12.9723 21.0004 13.2442C21.0004 14.1181 20.765 14.9456 20.3009 15.7037C19.8657 16.4146 19.2346 17.0373 18.4758 17.5043C17.7204 17.9693 16.8438 18.2766 15.9408 18.3929C15.6578 18.4294 15.3749 18.4476 15.0931 18.4477Z" fill="#FF6B00"/>
<path d="M20.3438 9.79991C19.9814 9.79991 19.6876 9.5418 19.6876 9.22345C19.6876 4.77335 15.5663 1.15293 10.5005 1.15293C10.1381 1.15293 9.84424 0.894819 9.84424 0.576465C9.84424 0.258112 10.1381 0 10.5005 0C13.305 0 15.9417 0.959383 17.9248 2.70146C19.9079 4.44354 21 6.75974 21 9.22345C21 9.5418 20.7063 9.79991 20.3438 9.79991Z" fill="#FF6B00"/>
<path d="M17.7189 9.79971C17.3565 9.79971 17.0627 9.5416 17.0627 9.22325C17.0627 6.04462 14.1189 3.45859 10.5005 3.45859C10.1381 3.45859 9.84424 3.20048 9.84424 2.88213C9.84424 2.56378 10.1381 2.30566 10.5005 2.30566C14.8426 2.30566 18.3751 5.40888 18.3751 9.22325C18.3751 9.5416 18.0814 9.79971 17.7189 9.79971Z" fill="#FF6B00"/>
<path d="M15.094 9.80001C14.7316 9.80001 14.4378 9.54189 14.4378 9.22354C14.4378 7.31634 12.6715 5.76475 10.5005 5.76475C10.1381 5.76475 9.84424 5.50664 9.84424 5.18828C9.84424 4.86993 10.1381 4.61182 10.5005 4.61182C13.3952 4.61182 15.7502 6.68061 15.7502 9.22354C15.7502 9.54189 15.4565 9.80001 15.094 9.80001Z" fill="#FF6B00"/>
</svg>
