<svg width="20" height="20" viewBox="0 0 20 20" fill="none" xmlns="http://www.w3.org/2000/svg">
<path d="M12.4627 19.6585C13.0887 19.8859 13.7288 20 14.3744 20C14.6428 20 14.9122 19.9802 15.1817 19.9407C16.0417 19.8145 16.8766 19.4814 17.596 18.9773C18.3187 18.471 18.9198 17.7959 19.3342 17.0252C19.7763 16.2032 20.0004 15.3061 20.0004 14.3586C20.0004 14.064 19.7945 13.8093 19.5064 13.7475L14.9285 12.7665C14.7212 12.7222 14.5055 12.7858 14.3556 12.9357L12.6794 14.6119C9.53555 13.0307 6.96972 10.4648 5.38845 7.32099L7.06467 5.64481C7.21455 5.49489 7.27826 5.2792 7.23385 5.0719L6.25287 0.494003C6.19112 0.20589 5.93644 0 5.64176 0C4.6943 0 3.79719 0.224131 2.97527 0.666105C2.20452 1.08058 1.52947 1.68165 1.02312 2.40432C0.519005 3.12382 0.185893 3.95867 0.0597656 4.81863C-0.0748773 5.73672 0.0201189 6.65152 0.34202 7.53774C1.34374 10.2954 2.97531 12.8551 5.06038 14.9401C7.14545 17.0251 9.70511 18.6567 12.4627 19.6585Z" fill="white"/>
<path d="M19.375 10.6246C19.0298 10.6246 18.75 10.3447 18.75 9.99959C18.75 5.17502 14.8249 1.24995 10.0003 1.24995C9.6552 1.24995 9.37537 0.970116 9.37537 0.624974C9.37537 0.279832 9.6552 0 10.0003 0C12.6714 0 15.1825 1.04011 17.0711 2.92879C18.9598 4.81746 19.9999 7.32857 19.9999 9.99959C19.9999 10.3447 19.7201 10.6246 19.375 10.6246Z" fill="white"/>
<path d="M16.8751 10.6246C16.5299 10.6246 16.2501 10.3447 16.2501 9.99958C16.2501 6.55348 13.4464 3.74984 10.0003 3.74984C9.6552 3.74984 9.37537 3.47001 9.37537 3.12487C9.37537 2.77973 9.6552 2.49989 10.0003 2.49989C14.1357 2.49989 17.5 5.86425 17.5 9.99958C17.5 10.3447 17.2202 10.6246 16.8751 10.6246Z" fill="white"/>
<path d="M14.3752 10.6246C14.03 10.6246 13.7502 10.3447 13.7502 9.99958C13.7502 7.93189 12.068 6.24974 10.0003 6.24974C9.6552 6.24974 9.37537 5.9699 9.37537 5.62476C9.37537 5.27962 9.6552 4.99979 10.0003 4.99979C12.7573 4.99979 15.0001 7.24266 15.0001 9.99958C15.0001 10.3447 14.7203 10.6246 14.3752 10.6246Z" fill="white"/>
</svg>
