<svg width="20" height="20" viewBox="0 0 20 20" fill="none" xmlns="http://www.w3.org/2000/svg">
<path d="M14.3744 20C13.7288 20 13.0887 19.8859 12.4627 19.6585C9.70511 18.6567 7.14545 17.0251 5.06038 14.9401C2.97531 12.8551 1.34374 10.2954 0.34202 7.53774C0.0201189 6.65152 -0.0748773 5.73672 0.0597656 4.81863C0.185893 3.95867 0.519005 3.12382 1.02312 2.40432C1.52947 1.68165 2.20452 1.08058 2.97527 0.666105C3.79719 0.224131 4.6943 0 5.64176 0C5.93644 0 6.19112 0.20589 6.25287 0.494003L7.23385 5.0719C7.27826 5.2792 7.21455 5.49489 7.06467 5.64481L5.38845 7.32099C6.96972 10.4648 9.53555 13.0307 12.6794 14.6119L14.3556 12.9357C14.5055 12.7858 14.7212 12.7222 14.9285 12.7665L19.5064 13.7475C19.7945 13.8093 20.0004 14.064 20.0004 14.3586C20.0004 15.3061 19.7763 16.2032 19.3342 17.0252C18.9198 17.7959 18.3187 18.471 17.596 18.9773C16.8766 19.4814 16.0417 19.8145 15.1817 19.9407C14.9122 19.9802 14.6428 20 14.3744 20ZM5.14241 1.27729C3.89266 1.41525 2.7834 2.07031 2.04679 3.12163C1.21847 4.30381 1.02531 5.75785 1.51685 7.111C3.44271 12.4126 7.58789 16.5578 12.8895 18.4836C14.2426 18.9752 15.6967 18.782 16.8788 17.9537C17.9302 17.2171 18.5852 16.1078 18.7232 14.8581L14.9991 14.06L13.2485 15.8106C13.0622 15.9969 12.7792 16.0464 12.5409 15.9343C8.82265 14.1875 5.81293 11.1778 4.06612 7.45962C3.95414 7.22123 4.00359 6.93819 4.18987 6.75195L5.94042 5.0014L5.14241 1.27729Z" fill="white"/>
<path d="M19.375 10.6246C19.0298 10.6246 18.75 10.3447 18.75 9.99959C18.75 5.17502 14.8249 1.24995 10.0003 1.24995C9.6552 1.24995 9.37537 0.970116 9.37537 0.624974C9.37537 0.279832 9.6552 0 10.0003 0C12.6714 0 15.1825 1.04011 17.0711 2.92879C18.9598 4.81746 19.9999 7.32857 19.9999 9.99959C19.9999 10.3447 19.7201 10.6246 19.375 10.6246Z" fill="white"/>
<path d="M16.8751 10.6246C16.5299 10.6246 16.2501 10.3447 16.2501 9.99958C16.2501 6.55348 13.4464 3.74984 10.0003 3.74984C9.6552 3.74984 9.37537 3.47001 9.37537 3.12487C9.37537 2.77973 9.6552 2.49989 10.0003 2.49989C14.1357 2.49989 17.5 5.86425 17.5 9.99958C17.5 10.3447 17.2202 10.6246 16.8751 10.6246Z" fill="white"/>
<path d="M14.3752 10.6246C14.03 10.6246 13.7502 10.3447 13.7502 9.99958C13.7502 7.93189 12.068 6.24974 10.0003 6.24974C9.6552 6.24974 9.37537 5.9699 9.37537 5.62476C9.37537 5.27962 9.6552 4.99979 10.0003 4.99979C12.7573 4.99979 15.0001 7.24266 15.0001 9.99958C15.0001 10.3447 14.7203 10.6246 14.3752 10.6246Z" fill="white"/>
</svg>
