<svg width="231" height="230" viewBox="0 0 231 230" fill="none" xmlns="http://www.w3.org/2000/svg">
<path d="M224.551 91.7343H204.439C202.804 85.4161 200.47 79.2643 197.458 73.3475L212.906 57.9076C213.984 56.8298 214.587 55.3735 214.587 53.8542C214.587 52.3348 213.984 50.8728 212.906 49.8007L184.511 21.4207C182.268 19.179 178.643 19.179 176.4 21.4207L162.157 35.6566C156.535 32.3484 150.541 29.648 144.242 27.5898V5.73431C144.242 2.56951 141.678 0.000976562 138.506 0.000976562H98.3515C95.1793 0.000976562 92.6152 2.56951 92.6152 5.73431V25.8354C86.3569 27.4522 80.2649 29.7512 74.4081 32.6982L56.31 17.1551C55.157 16.1632 53.5967 15.6874 52.1397 15.7848C50.6196 15.8995 49.2084 16.6104 48.216 17.7628L22.0469 48.2068C19.9876 50.6091 20.2572 54.2268 22.6607 56.2908L36.4623 68.1473C33.1754 73.7431 30.4851 79.7172 28.4314 86.0009H6.57031C3.39812 86.0009 0.833984 88.5695 0.833984 91.7343V131.868C0.833984 135.032 3.39812 137.601 6.57031 137.601H26.6819C28.3167 143.919 30.6514 150.071 33.663 155.988L18.2151 171.428C17.1366 172.505 16.5343 173.962 16.5343 175.481C16.5343 177 17.1366 178.462 18.2151 179.535L46.6099 207.915C48.8528 210.156 52.4781 210.156 54.721 207.915L68.9643 193.679C74.5802 196.981 80.5804 199.681 86.8789 201.745V223.601C86.8789 226.766 89.443 229.334 92.6152 229.334H132.769C135.942 229.334 138.506 226.766 138.506 223.601V203.5C144.821 201.866 150.977 199.532 156.896 196.522L172.344 211.962C174.587 214.204 178.213 214.204 180.456 211.962L208.85 183.582C211.093 181.341 211.093 177.717 208.85 175.475L194.607 161.234C197.911 155.621 200.613 149.629 202.672 143.329H224.551C227.723 143.329 230.287 140.76 230.287 137.595V97.4619C230.287 94.3028 227.723 91.7343 224.551 91.7343ZM218.814 131.868H198.416C195.84 131.868 193.575 133.588 192.886 136.07C190.609 144.303 187.127 151.98 182.538 158.9C181.029 161.171 181.339 164.192 183.266 166.119L196.684 179.529L176.4 199.802L161.99 185.4C160.172 183.577 157.355 183.187 155.101 184.465C147.661 188.685 139.762 191.666 131.622 193.312C128.955 193.862 127.033 196.213 127.033 198.942V217.868H98.3515V197.48C98.3515 194.9 96.6306 192.641 94.1468 191.953C85.9152 189.677 78.2342 186.202 71.3105 181.616C69.0389 180.114 66.0101 180.406 64.0827 182.338L50.6654 195.748L30.3818 175.475L44.7914 161.079C46.6156 159.256 46.9999 156.435 45.7207 154.193C41.5045 146.763 38.5216 138.868 36.8696 130.721C36.3246 128.055 33.967 126.134 31.2422 126.134H12.3066V97.4676H32.705C35.2806 97.4676 37.5465 95.7476 38.2348 93.2651C40.5351 84.9288 44.0687 77.1659 48.7266 70.1999C50.3327 67.7919 49.891 64.5583 47.6883 62.672L34.4947 51.3372L53.1837 29.5964L69.9051 43.9527C71.7292 45.5236 74.345 45.7874 76.4445 44.6063C83.7354 40.5356 91.4851 37.646 99.4988 36.0178C102.166 35.4731 104.088 33.1224 104.088 30.3934V11.4676H132.769V31.8554C132.769 34.4354 134.49 36.6943 136.974 37.3823C145.2 39.6527 152.881 43.1328 159.811 47.7195C162.082 49.2216 165.105 48.9235 167.038 46.9971L180.456 33.5868L200.739 53.8599L186.33 68.2563C184.505 70.0795 184.121 72.9003 185.4 75.142C189.616 82.5724 192.599 90.4672 194.257 98.6143C194.796 101.28 197.154 103.201 199.879 103.201H218.814V131.868Z" fill="#5126FF"/>
<path d="M115.561 57.3342C83.9309 57.3342 58.1978 83.054 58.1978 114.668C58.1978 146.281 83.9309 172.001 115.561 172.001C147.191 172.001 172.924 146.281 172.924 114.668C172.924 83.054 147.191 57.3342 115.561 57.3342ZM115.561 160.534C90.258 160.534 69.6704 139.957 69.6704 114.668C69.6704 89.3779 90.258 68.8009 115.561 68.8009C140.864 68.8009 161.451 89.3779 161.451 114.668C161.451 139.957 140.864 160.534 115.561 160.534Z" fill="#5126FF"/>
</svg>
