<svg width="81" height="82" viewBox="0 0 81 82" fill="none" xmlns="http://www.w3.org/2000/svg">
<g clip-path="url(#clip0)">
<path d="M40.5 0.500977C18.1687 0.500977 0 18.6697 0 41.001C0 63.3323 18.1687 81.501 40.5 81.501C62.8313 81.501 81 63.3323 81 41.001C81 18.6697 62.8313 0.500977 40.5 0.500977ZM40.5 76.4385C20.9594 76.4385 5.06252 60.5416 5.06252 41.001C5.06252 21.4604 20.9594 5.5635 40.5 5.5635C60.0406 5.5635 75.9375 21.4604 75.9375 41.001C75.9375 60.5416 60.0406 76.4385 40.5 76.4385Z" fill="#5126FF"/>
<path d="M43.0313 15.6885H37.9688V42.049L53.8978 57.9781L57.4772 54.3987L43.0313 39.9528V15.6885Z" fill="#5126FF"/>
</g>
<defs>
<clipPath id="clip0">
<rect width="81" height="81" fill="white" transform="translate(0 0.500977)"/>
</clipPath>
</defs>
</svg>
