<svg width="150" height="150" viewBox="0 0 150 150" fill="none" xmlns="http://www.w3.org/2000/svg">
<path d="M143.472 57.3333H129.327C128.317 54.1341 127.032 51.0324 125.466 48.0511L135.476 38.0407C137.719 35.7989 137.719 32.1755 135.476 29.9337L119.254 13.7199C117.011 11.4781 113.385 11.4781 111.143 13.7199L101.133 23.7245C98.1555 22.1651 95.0465 20.8808 91.8456 19.8717V5.73333C91.8456 2.56853 89.2815 0 86.1093 0H63.164C59.9918 0 57.4277 2.56853 57.4277 5.73333V19.8717C54.2268 20.8808 51.1177 22.1651 48.1406 23.7245L38.1307 13.7256C35.8878 11.4839 32.2624 11.4839 30.0195 13.7256L13.7972 29.9395C11.5543 32.1812 11.5543 35.8047 13.7972 38.0464L23.8071 48.0568C22.2411 51.0324 20.9561 54.1341 19.9465 57.3333H5.80077C2.62859 57.3333 0.0644531 59.9019 0.0644531 63.0667V86C0.0644531 89.1648 2.62859 91.7333 5.80077 91.7333H19.9465C20.9561 94.9325 22.2411 98.0342 23.8071 101.016L13.7972 111.026C11.5543 113.268 11.5543 116.891 13.7972 119.133L30.0195 135.347C32.2624 137.589 35.8878 137.589 38.1307 135.347L48.1406 125.342C51.1234 126.902 54.2325 128.192 57.4277 129.195V143.333C57.4277 146.498 59.9918 149.067 63.164 149.067H86.1093C89.2815 149.067 91.8456 146.498 91.8456 143.333V129.195C95.0465 128.186 98.1555 126.902 101.133 125.342L111.143 135.347C113.385 137.589 117.011 137.589 119.254 135.347L135.476 119.133C137.719 116.891 137.719 113.268 135.476 111.026L125.466 101.016C127.026 98.0342 128.317 94.9325 129.327 91.7333H143.472C146.645 91.7333 149.209 89.1648 149.209 86V63.0667C149.209 59.9019 146.645 57.3333 143.472 57.3333ZM137.736 80.2667H124.944C122.265 80.2667 119.948 82.1185 119.351 84.7272C118.204 89.7496 116.219 94.5255 113.46 98.9115C112.032 101.176 112.364 104.129 114.257 106.021L123.315 115.079L115.204 123.186L106.146 114.133C104.248 112.241 101.293 111.909 99.0332 113.337C94.6392 116.1 89.8666 118.084 84.8416 119.225C82.2258 119.815 80.373 122.137 80.373 124.815V137.6H68.9003V124.815C68.9003 122.137 67.0475 119.815 64.4375 119.225C59.4124 118.084 54.6398 116.1 50.2458 113.337C47.9799 111.909 45.0315 112.241 43.1328 114.133L34.0751 123.186L25.9639 115.079L35.0216 106.021C36.9146 104.129 37.2473 101.176 35.8189 98.9115C33.0598 94.5255 31.075 89.7553 29.9277 84.7272C29.3312 82.1185 27.008 80.2667 24.3291 80.2667H11.5371V68.8H24.3291C27.008 68.8 29.3254 66.9481 29.922 64.3395C31.0693 59.3171 33.054 54.5412 35.8132 50.1552C37.2416 47.8905 36.9088 44.9379 35.0159 43.0459L25.9582 33.9872L34.0694 25.8803L43.127 34.9332C45.0257 36.8309 47.9799 37.1577 50.2401 35.7301C54.6341 32.9667 59.4067 30.9829 64.4317 29.842C67.0475 29.2515 68.9003 26.9295 68.9003 24.252V11.4667H80.373V24.252C80.373 26.9295 82.2258 29.2515 84.8358 29.842C89.8608 30.9829 94.6335 32.9667 99.0275 35.7301C101.293 37.1577 104.242 36.8252 106.141 34.9332L115.198 25.8803L123.309 33.9872L114.252 43.0459C112.359 44.9379 112.026 47.8905 113.454 50.1552C116.213 54.5412 118.198 59.3113 119.346 64.3395C119.942 66.9481 122.265 68.8 124.944 68.8H137.736V80.2667Z" fill="#FF6B00"/>
<path d="M74.6367 45.8667C58.8217 45.8667 45.9551 58.7265 45.9551 74.5333C45.9551 90.3401 58.8217 103.2 74.6367 103.2C90.4517 103.2 103.318 90.3401 103.318 74.5333C103.318 58.7265 90.4517 45.8667 74.6367 45.8667ZM74.6367 91.7333C65.1488 91.7333 57.4277 84.0162 57.4277 74.5333C57.4277 65.0504 65.1488 57.3333 74.6367 57.3333C84.1246 57.3333 91.8457 65.0504 91.8457 74.5333C91.8457 84.0162 84.1246 91.7333 74.6367 91.7333Z" fill="#FF6B00"/>
</svg>
