<svg width="93" height="92" viewBox="0 0 93 92" fill="none" xmlns="http://www.w3.org/2000/svg">
<path d="M52.3667 40H40.894V51.4666H52.3667V40Z" fill="#5126FF"/>
<path d="M92.6542 51.6V40.1334H80.6653C79.7819 34.9218 77.7397 30.1058 74.7855 25.9663L83.2696 17.4867L75.1584 9.37974L66.6744 17.8593C62.5328 14.9067 57.7142 12.8656 52.4999 11.9827V0H41.0273V11.9827C35.813 12.8656 30.9945 14.9067 26.8528 17.8536L18.3688 9.37974L10.2577 17.4867L18.7417 25.9663C15.7875 30.1058 13.7454 34.9218 12.862 40.1334H0.873047V51.6H12.862C13.7454 56.8116 15.7875 61.6276 18.7417 65.7671L10.2577 74.2467L18.3688 82.3537L26.8528 73.8741C30.9945 76.8267 35.813 78.8678 41.0273 79.7507V91.7334H52.4999V79.7507C57.7142 78.8678 62.5328 76.8267 66.6744 73.8798L75.1584 82.3594L83.2696 74.2525L74.7855 65.7729C77.7397 61.6276 79.7819 56.8116 80.6653 51.6H92.6542ZM46.7636 68.8C34.1093 68.8 23.8183 58.5144 23.8183 45.8667C23.8183 33.219 34.1093 22.9334 46.7636 22.9334C59.4179 22.9334 69.7089 33.219 69.7089 45.8667C69.7089 58.5144 59.4179 68.8 46.7636 68.8Z" fill="#5126FF"/>
</svg>
