<svg width="317" height="317" viewBox="0 0 317 317" fill="none" xmlns="http://www.w3.org/2000/svg">
<path d="M303.91 121.564H273.933C271.793 114.781 269.07 108.204 265.751 101.883L286.964 80.6578C291.717 75.9046 291.717 68.2218 286.964 63.4686L252.586 29.0903C247.833 24.3371 240.15 24.3371 235.397 29.0903L214.184 50.3032C207.875 46.9967 201.286 44.2736 194.503 42.1341V12.1564C194.503 5.44607 189.069 0 182.346 0H133.721C126.998 0 121.564 5.44607 121.564 12.1564V42.1341C114.781 44.2736 108.192 46.9967 101.883 50.3032L80.6699 29.1024C75.9168 24.3493 68.2339 24.3493 63.4808 29.1024L29.1024 63.4808C24.3493 68.2339 24.3493 75.9168 29.1024 80.6699L50.3154 101.895C46.9967 108.204 44.2736 114.781 42.1341 121.564H12.1564C5.43392 121.564 0 127.01 0 133.721V182.346C0 189.056 5.43392 194.503 12.1564 194.503H42.1341C44.2736 201.286 46.9967 207.862 50.3154 214.184L29.1024 235.409C24.3493 240.162 24.3493 247.845 29.1024 252.598L63.4808 286.976C68.2339 291.73 75.9168 291.73 80.6699 286.976L101.883 265.763C108.204 269.07 114.793 271.805 121.564 273.933V303.91C121.564 310.621 126.998 316.067 133.721 316.067H182.346C189.069 316.067 194.503 310.621 194.503 303.91V273.933C201.286 271.793 207.875 269.07 214.184 265.763L235.397 286.976C240.15 291.73 247.833 291.73 252.586 286.976L286.964 252.598C291.717 247.845 291.717 240.162 286.964 235.409L265.751 214.184C269.058 207.862 271.793 201.286 273.933 194.503H303.91C310.633 194.503 316.067 189.056 316.067 182.346V133.721C316.067 127.01 310.633 121.564 303.91 121.564ZM291.754 170.19H264.645C258.968 170.19 254.057 174.116 252.793 179.647C250.361 190.296 246.155 200.423 240.308 209.722C237.281 214.524 237.986 220.785 241.998 224.796L261.193 244.003L244.003 261.193L224.808 241.998C220.785 237.986 214.524 237.281 209.735 240.308C200.423 246.167 190.309 250.373 179.66 252.793C174.116 254.045 170.19 258.968 170.19 264.645V291.754H145.877V264.645C145.877 258.968 141.95 254.045 136.419 252.793C125.77 250.373 115.656 246.167 106.344 240.308C101.542 237.281 95.2941 237.986 91.2703 241.998L72.0753 261.193L54.8862 244.003L74.0812 224.796C78.0928 220.785 78.7978 214.524 75.7709 209.722C69.9237 200.423 65.7175 190.309 63.2863 179.647C62.022 174.116 57.0987 170.19 51.4216 170.19H24.3128V145.877H51.4216C57.0987 145.877 62.0098 141.95 63.2741 136.419C65.7054 125.77 69.9115 115.644 75.7587 106.344C78.7857 101.542 78.0806 95.2819 74.069 91.2703L54.874 72.0632L72.0632 54.874L91.2582 74.069C95.2819 78.0928 101.542 78.7857 106.332 75.7587C115.644 69.8994 125.758 65.6932 136.407 63.2741C141.95 62.022 145.877 57.0987 145.877 51.4216V24.3128H170.19V51.4216C170.19 57.0987 174.116 62.022 179.647 63.2741C190.296 65.6932 200.411 69.8994 209.722 75.7587C214.524 78.7857 220.773 78.0806 224.796 74.069L243.991 54.874L261.18 72.0632L241.985 91.2703C237.974 95.2819 237.269 101.542 240.296 106.344C246.143 115.644 250.349 125.758 252.78 136.419C254.045 141.95 258.968 145.877 264.645 145.877H291.754V170.19Z" fill="#FF6B00"/>
<path d="M158.034 97.2515C124.518 97.2515 97.2515 124.518 97.2515 158.034C97.2515 191.549 124.518 218.816 158.034 218.816C191.549 218.816 218.816 191.549 218.816 158.034C218.816 124.518 191.549 97.2515 158.034 97.2515ZM158.034 194.503C137.927 194.503 121.564 178.14 121.564 158.034C121.564 137.927 137.927 121.564 158.034 121.564C178.14 121.564 194.503 137.927 194.503 158.034C194.503 178.14 178.14 194.503 158.034 194.503Z" fill="#FF6B00"/>
</svg>
