<svg width="20" height="21" viewBox="0 0 20 21" fill="none" xmlns="http://www.w3.org/2000/svg">
<g clip-path="url(#clip0)">
<path d="M18.6701 11.1829C18.5897 11.0183 18.5897 10.8295 18.6701 10.6649L19.4161 9.13889C19.8314 8.28925 19.5023 7.27656 18.6669 6.83332L17.1666 6.03723C17.0047 5.95137 16.8937 5.79856 16.862 5.61813L16.5686 3.94513C16.4052 3.01365 15.5436 2.38772 14.6074 2.52018L12.9256 2.75807C12.7441 2.7837 12.5646 2.72534 12.4329 2.59795L11.2122 1.41702C10.5325 0.759449 9.46762 0.75941 8.78793 1.41702L7.56716 2.59807C7.43544 2.72549 7.25595 2.78373 7.07447 2.75819L5.39272 2.5203C4.4562 2.38776 3.59488 3.01377 3.43148 3.94525L3.13805 5.61817C3.10637 5.79864 2.99539 5.95141 2.83356 6.03731L1.33317 6.8334C0.497788 7.2766 0.168727 8.28937 0.584037 9.13901L1.32993 10.6649C1.4104 10.8296 1.4104 11.0184 1.32993 11.183L0.583998 12.7089C0.168688 13.5586 0.497749 14.5713 1.33313 15.0145L2.83352 15.8106C2.99539 15.8965 3.10637 16.0493 3.13805 16.2297L3.43148 17.9027C3.58023 18.7507 4.30734 19.3454 5.14299 19.3453C5.2253 19.3453 5.30881 19.3395 5.39276 19.3276L7.07451 19.0897C7.25587 19.064 7.43548 19.1225 7.5672 19.2498L8.78793 20.4308C9.12785 20.7596 9.56387 20.924 10 20.9239C10.4361 20.9239 10.8724 20.7595 11.2121 20.4308L12.4329 19.2498C12.5646 19.1225 12.7442 19.0643 12.9256 19.0897L14.6074 19.3276C15.544 19.4601 16.4052 18.8341 16.5686 17.9027L16.8621 16.2297C16.8937 16.0493 17.0047 15.8965 17.1666 15.8106L18.6669 15.0145C19.5023 14.5713 19.8314 13.5586 19.4161 12.7089L18.6701 11.1829ZM18.1263 13.9955L16.6259 14.7916C16.1475 15.0455 15.8195 15.4969 15.7259 16.0304L15.4325 17.7033C15.3772 18.0185 15.0858 18.2302 14.7689 18.1854L13.0872 17.9476C12.5508 17.8716 12.0201 18.0442 11.6309 18.4207L10.4101 19.6016C10.1802 19.824 9.81992 19.824 9.58992 19.6016L8.36919 18.4207C8.0402 18.1024 7.61013 17.93 7.16115 17.93C7.07888 17.93 6.99595 17.9358 6.91291 17.9475L5.23116 18.1854C4.91452 18.2302 4.62292 18.0184 4.56761 17.7033L4.27413 16.0303C4.18054 15.4969 3.85249 15.0453 3.3741 14.7916L1.87372 13.9955C1.59106 13.8455 1.47974 13.5029 1.62024 13.2154L2.36618 11.6895C2.60399 11.2029 2.60399 10.6449 2.36618 10.1583L1.62024 8.63233C1.47974 8.34487 1.59106 8.00226 1.87372 7.8523L3.3741 7.05621C3.85246 6.80234 4.18054 6.35086 4.27409 5.81743L4.56753 4.14447C4.62284 3.82931 4.91417 3.6176 5.23108 3.66236L6.91283 3.90025C7.44896 3.97615 7.97985 3.80361 8.36911 3.42709L9.58988 2.24616C9.8198 2.02374 10.1801 2.02374 10.4101 2.24616L11.6308 3.42709C12.0201 3.80365 12.5509 3.97615 13.0871 3.90025L14.7688 3.66236C15.0855 3.61756 15.3771 3.82931 15.4324 4.14447L15.7258 5.81747C15.8194 6.3509 16.1475 6.80242 16.6259 7.05621L18.1262 7.8523C18.4089 8.00226 18.5202 8.34487 18.3797 8.63233L17.6338 10.1583C17.396 10.6448 17.396 11.2029 17.6338 11.6894L18.3797 13.2154C18.5203 13.5029 18.4089 13.8455 18.1263 13.9955Z" fill="#5126FF"/>
<path d="M14.2142 6.70945C13.989 6.48422 13.6238 6.48422 13.3986 6.70945L5.78575 14.3223C5.56051 14.5475 5.56051 14.9127 5.78575 15.138C5.89836 15.2506 6.04598 15.3069 6.19356 15.3069C6.34113 15.3069 6.48879 15.2506 6.60137 15.138L14.2142 7.52515C14.4395 7.29988 14.4395 6.93472 14.2142 6.70945Z" fill="#5126FF"/>
<path d="M7.69292 5.73315C6.52683 5.73315 5.57812 6.68186 5.57812 7.84795C5.57812 9.01404 6.52683 9.96274 7.69292 9.96274C8.859 9.96274 9.80771 9.01404 9.80771 7.84795C9.80771 6.68186 8.859 5.73315 7.69292 5.73315ZM7.69292 8.80919C7.16288 8.80919 6.73167 8.37798 6.73167 7.84791C6.73167 7.31787 7.16288 6.88666 7.69292 6.88666C8.22295 6.88666 8.6542 7.31787 8.6542 7.84791C8.65416 8.37798 8.22295 8.80919 7.69292 8.80919Z" fill="#5126FF"/>
<path d="M12.3069 11.8853C11.1408 11.8853 10.1921 12.834 10.1921 14C10.1921 15.1661 11.1408 16.1148 12.3069 16.1148C13.473 16.1148 14.4217 15.1661 14.4217 14C14.4217 12.834 13.473 11.8853 12.3069 11.8853ZM12.3069 14.9613C11.7769 14.9613 11.3456 14.5301 11.3456 14C11.3456 13.47 11.7769 13.0388 12.3069 13.0388C12.837 13.0388 13.2682 13.47 13.2682 14C13.2682 14.5301 12.837 14.9613 12.3069 14.9613Z" fill="#5126FF"/>
</g>
<defs>
<clipPath id="clip0">
<rect width="20" height="20" fill="white" transform="translate(0 0.923828)"/>
</clipPath>
</defs>
</svg>
