<svg width="128" height="91" viewBox="0 0 128 91" fill="none" xmlns="http://www.w3.org/2000/svg">
<path d="M58.1133 50.7372H62.1211V54.1352H58.1133V50.7372Z" fill="white"/>
<path d="M50.0978 50.7372H54.1056V54.1352H50.0978V50.7372Z" fill="white"/>
<path d="M42.082 50.7372H46.0898V54.1352H42.082V50.7372Z" fill="white"/>
<path d="M10.0195 63.1955H76.1484V59.7975H13.7773V12.4583H92.1797V9.0603H10.0195V63.1955Z" fill="white"/>
<path d="M21.7931 28.7667V19.7065H32.0626V16.3085H18.0353V28.7667H21.7931Z" fill="white"/>
<path d="M103.953 16.3084V0H0V72.2556H42.082V78.8L34.0664 86.0482V90.3761H69.8867V86.0482L61.8711 78.8V72.2556H80.1562V90.3761H128V16.3084H103.953ZM65.6016 86.9781H38.6016L44.8643 81.3159H59.3389L65.6016 86.9781ZM45.8398 77.9178V72.2556H58.1133V77.9178H45.8398ZM80.1562 68.8576H3.75781V3.39802H100.195V16.3084H80.1562V68.8576ZM114.223 86.9781H93.9336V81.3159H114.223V86.9781ZM124.242 86.9781H117.98V77.9178H90.1758V86.9781H83.9141V48.6991H124.242V86.9781ZM124.242 45.3011H83.9141V39.6389H124.242V45.3011ZM124.242 36.2409H83.9141V30.5787H124.242V36.2409ZM124.242 27.1806H83.9141V19.7064H124.242V27.1806Z" fill="white"/>
<path d="M104.203 69.4246C107.449 69.4246 110.09 67.0368 110.09 64.1015C110.09 61.1662 107.449 58.7784 104.203 58.7784C100.958 58.7784 98.3173 61.1662 98.3173 64.1015C98.3173 67.0368 100.958 69.4246 104.203 69.4246ZM104.203 62.1765C105.378 62.1765 106.333 63.0401 106.333 64.1015C106.333 65.163 105.378 66.0266 104.203 66.0266C103.029 66.0266 102.074 65.163 102.074 64.1015C102.074 63.0401 103.029 62.1765 104.203 62.1765Z" fill="white"/>
</svg>
