<svg width="128" height="114" viewBox="0 0 128 114" fill="none" xmlns="http://www.w3.org/2000/svg">
<path d="M111.683 88.9168H29.9051C28.8704 88.9168 28.0316 89.6586 28.0316 90.5741C28.0316 91.4897 28.8704 92.2315 29.9051 92.2315H111.683C112.718 92.2315 113.556 91.4897 113.556 90.5741C113.556 89.6586 112.718 88.9168 111.683 88.9168Z" fill="white"/>
<path d="M71.8759 53.7818C69.6707 52.9339 68.2598 50.9703 68.2822 48.7803C68.2996 47.038 69.2469 45.4046 70.8151 44.4116C71.5113 43.9715 71.9383 43.2777 71.9866 42.5078C72.0348 41.7405 71.6989 41.0095 71.0657 40.502C69.3909 39.1591 67.3384 38.2902 65.16 37.979C65.3225 37.8309 65.4818 37.6793 65.6339 37.5195C67.6422 35.4091 68.4373 32.5659 67.8724 29.5142C67.6389 28.2517 66.4092 27.2694 65.0108 27.2295C61.6386 27.1326 58.6664 28.243 56.6578 30.3539C54.6975 32.4138 53.8966 35.1728 54.3847 38.1424C53.9501 38.033 53.5021 37.9388 53.0366 37.8736C52.4694 37.7942 51.908 37.7515 51.3673 37.7465C51.3299 37.7463 51.2934 37.746 51.2563 37.746C45.0198 37.746 39.9024 42.1791 39.5637 47.8871C38.6849 56.7161 45.8626 64.1027 46.4909 64.7304C47.6441 65.9574 49.3123 66.6687 51.0755 66.6837C51.2713 66.6827 51.478 66.6772 51.7002 66.6582C51.7482 66.6539 51.7959 66.6489 51.8496 66.6422C52.0239 66.6232 52.1861 66.5995 52.3462 66.57L52.4523 66.5493C52.6423 66.5108 52.828 66.4649 53.0036 66.4132C53.0107 66.4112 53.0181 66.4089 53.0252 66.4069C53.2417 66.3425 53.4372 66.2746 53.6177 66.2014C53.6283 66.1969 53.6512 66.1877 53.6619 66.1837L53.8525 66.1062C55.9448 65.2601 58.3351 65.2806 60.4091 66.1614L60.5986 66.2421C60.6087 66.2466 60.6188 66.2506 60.6264 66.2538C60.633 66.2568 60.6392 66.2593 60.6433 66.2611C60.6586 66.2673 60.6739 66.2738 60.6891 66.2798C60.853 66.348 61.0245 66.4107 61.2119 66.4704C61.2192 66.4729 61.2266 66.4754 61.2339 66.4774C61.415 66.5346 61.6059 66.5858 61.8038 66.629L61.9094 66.6517C62.0692 66.6837 62.2355 66.7106 62.3991 66.7311C62.4506 66.7384 62.5025 66.7451 62.5469 66.7494C62.7689 66.7723 62.9739 66.7843 63.1741 66.7861C63.1932 66.7861 63.2117 66.7863 63.2308 66.7863C64.9893 66.7861 66.6625 66.0928 67.8285 64.8782L67.8271 64.877C68.4984 64.2184 71.3938 61.2309 73.3227 57.0188C73.897 55.7616 73.2483 54.3095 71.8759 53.7818ZM59.7386 32.8134C60.7488 31.7517 62.221 31.1199 63.9485 30.9917C64.0453 32.5769 63.5629 33.999 62.5529 35.0604C61.5426 36.1219 60.0704 36.7537 58.343 36.8821C58.2462 35.2969 58.7283 33.8746 59.7386 32.8134ZM64.826 62.3397C64.8031 62.3615 64.781 62.3834 64.7592 62.4062C64.3698 62.8115 63.8132 63.0433 63.2302 63.0433C63.224 63.0433 63.2177 63.0433 63.2114 63.043C63.1577 63.0425 63.0961 63.039 63.0184 63.0316L62.9532 63.0228C62.897 63.0158 62.8414 63.0071 62.798 62.9983L62.7544 62.9888C62.6911 62.9749 62.6314 62.9596 62.5774 62.9426C62.5725 62.9409 62.5676 62.9394 62.563 62.9379C62.4864 62.9137 62.4209 62.8902 62.3688 62.8675C62.3519 62.8605 62.3353 62.8535 62.3184 62.8467L62.1286 62.7661C58.9876 61.4316 55.3691 61.4009 52.2006 62.6822L52.0018 62.7626C51.9873 62.7681 51.9734 62.7738 51.9592 62.7793C51.9102 62.7993 51.8483 62.8208 51.7752 62.843C51.7695 62.8445 51.764 62.8462 51.7583 62.848C51.7024 62.8645 51.6394 62.8802 51.5712 62.8939C51.5677 62.8947 51.539 62.9002 51.5358 62.9009C51.4804 62.9112 51.4245 62.9187 51.3711 62.9247L51.3073 62.9322C51.2309 62.9381 51.1671 62.9396 51.1137 62.9404C50.5236 62.9354 49.9638 62.6939 49.5785 62.2771C49.5588 62.2558 49.5365 62.2326 49.5158 62.2121C49.4492 62.1464 42.8839 55.569 43.6376 48.1968C43.6403 48.1704 43.6425 48.1436 43.6438 48.1169C43.8497 44.3881 47.1879 41.489 51.2571 41.489C51.2811 41.489 51.3054 41.4893 51.3296 41.4895C51.6814 41.4925 52.0378 41.52 52.4198 41.5737C52.8056 41.6276 53.1738 41.7041 53.5094 41.799C53.5705 41.8164 53.63 41.8359 53.6897 41.8557L53.919 41.9271C54.0409 41.969 54.1603 42.0147 54.271 42.0585C54.286 42.0642 54.3147 42.0752 54.3384 42.0839C54.4625 42.1341 54.5843 42.1873 54.7046 42.2433C54.706 42.244 54.7076 42.2448 54.7092 42.2455C55.623 42.6941 56.4849 42.9198 57.3422 42.9361C57.3578 42.9363 57.375 42.9356 57.3886 42.9366C58.2478 42.9348 59.1166 42.7228 60.0423 42.2877C60.1626 42.234 60.2845 42.1836 60.4034 42.1376C60.4282 42.1291 60.4516 42.1206 60.4702 42.1134C60.5891 42.0687 60.7088 42.0255 60.8263 41.9875L61.0545 41.9201C61.1172 41.9011 61.1794 41.8816 61.2394 41.8654C61.5808 41.775 61.9508 41.7048 62.3386 41.6571C62.7195 41.6101 63.0756 41.5879 63.4287 41.5917C64.6983 41.6022 65.9369 41.9036 67.0347 42.4578C65.2557 44.1251 64.2201 46.3749 64.1961 48.7445C64.1628 52.021 66.0192 54.9983 69.0233 56.6434C67.2346 60.0153 64.8802 62.288 64.826 62.3397Z" fill="white"/>
<path d="M104.445 4.42787C104.319 4.36927 99.58 0.00169403 91.6782 0.00169403C83.7272 0.00257865 13.4266 -0.0244022 16.8859 0.10829C9.33285 0.855128 3.09434 5.60707 0.961589 11.7509C-0.462163 15.7821 0.118338 15.933 0.111088 70.2761C0.111088 71.1914 0.949839 71.9334 1.98459 71.9334C3.01934 71.9334 3.85809 71.1917 3.85809 70.2761C4.09634 5.88528 3.14634 19.2512 4.83034 11.9993C7.50585 5.74507 13.8514 4.14811 13.9304 4.09282C18.8899 2.52506 18.5429 3.73411 91.6785 3.31635C93.1895 3.31635 94.6875 3.51871 96.1105 3.9075C96.1835 3.94996 101.392 5.09863 104.607 9.77538C105.11 10.6947 106.533 12.3837 106.788 16.0666C106.818 16.6435 106.889 16.5937 106.894 18.3561C106.894 19.2717 107.645 20.1546 108.68 20.1546C109.715 20.1546 110.298 19.9538 110.298 19.0382C110.172 18.3177 111.573 10.2283 104.445 4.42787Z" fill="white"/>
<path d="M122.844 82.577H110.466C110.62 81.1556 110.273 76.6013 110.298 18.3561C110.298 17.674 109.971 19.7203 108.936 19.7203C107.901 19.7203 107.575 19.7203 106.894 17.674C106.795 73.7202 106.95 80.6631 106.699 82.577H18.7439C15.9009 82.577 13.5879 84.6231 13.5879 87.1378V93.4965C7.86985 91.5516 3.8576 86.6341 3.8576 81.0021L4.00809 78.009C4.00809 58.6009 3.22769 71.5611 2.19294 71.5611C1.15819 71.5611 0.110596 65.8707 0.110596 66.7863V81.0021C0.110596 88.3874 5.65685 94.8897 13.5879 96.9958V102.016C13.5879 104.531 15.9009 106.577 18.7439 106.577H28.6286C30.6521 110.53 35.0904 113.11 40.0684 113.11H96.8157C97.8507 113.11 94.9422 112.369 94.9422 111.453C94.9422 110.537 97.8507 109.796 96.8157 109.796H40.0686C37.1901 109.796 34.5674 108.565 32.9384 106.577H108.65C107.021 108.565 104.398 109.796 101.519 109.796H96.8157C95.7807 109.796 94.9422 110.537 94.9422 111.453C94.9422 112.369 95.7807 113.11 96.8157 113.11H101.519C106.497 113.11 110.936 110.53 112.959 106.577H122.844C125.687 106.577 128 104.531 128 102.016V87.1378C128 84.6229 125.687 82.577 122.844 82.577ZM124.253 102.016C124.253 102.703 123.621 103.262 122.844 103.262C118.067 103.262 22.9426 103.262 18.7441 103.262C17.9671 103.262 17.3351 102.703 17.3351 102.016C17.3351 99.0178 17.3351 90.1206 17.3351 87.1378C17.3351 86.4507 17.9671 85.8916 18.7441 85.8916C25.7446 85.8916 118.687 85.8916 122.844 85.8916C123.621 85.8916 124.253 86.4507 124.253 87.1378V102.016Z" fill="white"/>
</svg>
