<svg width="166" height="166" viewBox="0 0 166 166" fill="none" xmlns="http://www.w3.org/2000/svg">
<path d="M110.506 36.9084C110.804 36.9086 111.1 36.85 111.375 36.736C111.65 36.622 111.901 36.4549 112.112 36.2441C112.322 36.0333 112.489 35.7831 112.603 35.5076C112.717 35.2322 112.776 34.937 112.776 34.6389V21.3459C112.776 20.744 112.537 20.1668 112.111 19.7411C111.686 19.3155 111.108 19.0764 110.506 19.0764C109.904 19.0764 109.327 19.3155 108.902 19.7411C108.476 20.1668 108.237 20.744 108.237 21.3459V34.6389C108.237 34.937 108.295 35.2322 108.409 35.5076C108.523 35.7831 108.69 36.0333 108.901 36.2441C109.112 36.4549 109.362 36.622 109.638 36.736C109.913 36.85 110.208 36.9086 110.506 36.9084V36.9084Z" fill="white"/>
<path d="M149.629 54.7625H136.738V23.1836C136.738 22.5818 136.498 22.0047 136.073 21.5792C135.647 21.1536 135.07 20.9144 134.468 20.9141H120.553V8.26953C120.553 7.66761 120.314 7.09035 119.888 6.66473C119.463 6.23911 118.885 6 118.283 6H47.3963C46.7943 6 46.2171 6.23911 45.7915 6.66473C45.3658 7.09035 45.1267 7.66761 45.1267 8.26953V20.9141H31.2113C30.6094 20.9144 30.0324 21.1536 29.6068 21.5792C29.1813 22.0047 28.9421 22.5818 28.9417 23.1836V54.7625H16.0508C13.3861 54.7656 10.8314 55.8255 8.94722 57.7097C7.063 59.5939 6.00309 62.1486 6 64.8133V126.687C6.00309 129.352 7.063 131.907 8.94722 133.791C10.8314 135.675 13.3861 136.735 16.0508 136.738H45.1228V157.41C45.1228 158.012 45.3619 158.589 45.7876 159.015C46.2132 159.441 46.7904 159.68 47.3924 159.68H118.287C118.889 159.68 119.467 159.441 119.892 159.015C120.318 158.589 120.557 158.012 120.557 157.41V136.738H149.629C152.294 136.735 154.848 135.675 156.732 133.791C158.617 131.907 159.677 129.352 159.68 126.687V64.8133C159.677 62.1486 158.617 59.5939 156.732 57.7097C154.848 55.8255 152.294 54.7656 149.629 54.7625ZM132.199 25.4531V54.7625H120.553V25.4531H132.199ZM49.6658 10.5391H116.014V54.7625H49.6658V10.5391ZM33.4808 25.4531H45.1267V54.7625H33.4808V25.4531ZM33.4808 132.199V109.102H45.1228V132.199H33.4808ZM49.6619 155.141V109.102H116.018C116.018 109.102 116.018 134.455 116.018 134.468C116.018 134.481 116.018 155.141 116.018 155.141H49.6619ZM120.557 132.199V109.102H132.199V132.199H120.557ZM155.141 126.687C155.139 128.148 154.558 129.549 153.524 130.583C152.491 131.616 151.09 132.197 149.629 132.199H136.738V106.832C136.738 106.23 136.498 105.653 136.073 105.228C135.647 104.802 135.07 104.563 134.468 104.562H31.2113C30.6094 104.563 30.0324 104.802 29.6068 105.228C29.1813 105.653 28.9421 106.23 28.9417 106.832V132.199H16.0508C14.5895 132.197 13.1886 131.616 12.1553 130.583C11.122 129.549 10.5408 128.148 10.5391 126.687V64.8133C10.5408 63.352 11.122 61.9511 12.1553 60.9178C13.1886 59.8845 14.5895 59.3033 16.0508 59.3016H149.629C151.09 59.3033 152.491 59.8845 153.524 60.9178C154.558 61.9511 155.139 63.352 155.141 64.8133V126.687Z" fill="white"/>
<path d="M52.1467 70.3198H19.9414C19.3395 70.3198 18.7622 70.5589 18.3366 70.9846C17.911 71.4102 17.6719 71.9874 17.6719 72.5894C17.6719 73.1913 17.911 73.7685 18.3366 74.1942C18.7622 74.6198 19.3395 74.8589 19.9414 74.8589H52.1467C52.7486 74.8589 53.3259 74.6198 53.7515 74.1942C54.1771 73.7685 54.4162 73.1913 54.4162 72.5894C54.4162 71.9874 54.1771 71.4102 53.7515 70.9846C53.3259 70.5589 52.7486 70.3198 52.1467 70.3198Z" fill="white"/>
<path d="M102.293 115.586H63.3867C62.7848 115.586 62.2075 115.825 61.7819 116.251C61.3563 116.676 61.1172 117.254 61.1172 117.855C61.1172 118.457 61.3563 119.035 61.7819 119.46C62.2075 119.886 62.7848 120.125 63.3867 120.125H102.293C102.895 120.125 103.472 119.886 103.898 119.46C104.323 119.035 104.562 118.457 104.562 117.855C104.562 117.254 104.323 116.676 103.898 116.251C103.472 115.825 102.895 115.586 102.293 115.586V115.586Z" fill="white"/>
<path d="M102.293 127.258H63.3867C62.7848 127.258 62.2075 127.497 61.7819 127.923C61.3563 128.348 61.1172 128.925 61.1172 129.527C61.1172 130.129 61.3563 130.707 61.7819 131.132C62.2075 131.558 62.7848 131.797 63.3867 131.797H102.293C102.895 131.797 103.472 131.558 103.898 131.132C104.323 130.707 104.562 130.129 104.562 129.527C104.562 128.925 104.323 128.348 103.898 127.923C103.472 127.497 102.895 127.258 102.293 127.258Z" fill="white"/>
<path d="M102.293 138.93H63.3867C62.7848 138.93 62.2075 139.169 61.7819 139.594C61.3563 140.02 61.1172 140.597 61.1172 141.199C61.1172 141.801 61.3563 142.378 61.7819 142.804C62.2075 143.23 62.7848 143.469 63.3867 143.469H102.293C102.895 143.469 103.472 143.23 103.898 142.804C104.323 142.378 104.562 141.801 104.562 141.199C104.562 140.597 104.323 140.02 103.898 139.594C103.472 139.169 102.895 138.93 102.293 138.93V138.93Z" fill="white"/>
<path d="M141.848 66.4292C140.629 66.4292 139.438 66.7905 138.425 67.4674C137.412 68.1443 136.623 69.1063 136.156 70.232C135.69 71.3576 135.568 72.5962 135.806 73.7911C136.044 74.9861 136.63 76.0837 137.492 76.9452C138.353 77.8068 139.451 78.3935 140.646 78.6311C141.841 78.8688 143.079 78.7468 144.205 78.2806C145.331 77.8143 146.293 77.0248 146.97 76.0118C147.646 74.9987 148.008 73.8077 148.008 72.5894C148.006 70.9562 147.356 69.3905 146.201 68.2357C145.046 67.0809 143.481 66.4313 141.848 66.4292V66.4292ZM141.848 74.2104C141.527 74.2104 141.214 74.1154 140.947 73.9372C140.68 73.7591 140.473 73.5059 140.35 73.2097C140.227 72.9135 140.195 72.5876 140.258 72.2731C140.32 71.9586 140.475 71.6698 140.701 71.4431C140.928 71.2164 141.217 71.062 141.531 70.9994C141.846 70.9369 142.172 70.969 142.468 71.0917C142.764 71.2144 143.017 71.4221 143.196 71.6887C143.374 71.9553 143.469 72.2687 143.469 72.5894C143.468 73.0192 143.297 73.4313 142.994 73.7353C142.69 74.0392 142.277 74.2101 141.848 74.2104Z" fill="white"/>
<path d="M126.447 66.4292C125.229 66.4292 124.038 66.7905 123.025 67.4674C122.012 68.1443 121.222 69.1063 120.756 70.232C120.29 71.3576 120.168 72.5962 120.405 73.7911C120.643 74.9861 121.23 76.0837 122.091 76.9452C122.953 77.8068 124.051 78.3935 125.245 78.6311C126.44 78.8688 127.679 78.7468 128.805 78.2806C129.93 77.8143 130.892 77.0248 131.569 76.0118C132.246 74.9987 132.607 73.8077 132.607 72.5894C132.605 70.9562 131.956 69.3905 130.801 68.2357C129.646 67.0809 128.08 66.4313 126.447 66.4292V66.4292ZM126.447 74.2104C126.127 74.2104 125.813 74.1154 125.547 73.9372C125.28 73.7591 125.072 73.5059 124.95 73.2097C124.827 72.9135 124.795 72.5876 124.857 72.2731C124.92 71.9586 125.074 71.6698 125.301 71.4431C125.528 71.2164 125.817 71.062 126.131 70.9994C126.445 70.9369 126.771 70.969 127.068 71.0917C127.364 71.2144 127.617 71.4221 127.795 71.6887C127.973 71.9553 128.068 72.2687 128.068 72.5894C128.068 73.0192 127.897 73.4313 127.593 73.7353C127.289 74.0392 126.877 74.2101 126.447 74.2104Z" fill="white"/>
<path d="M111.047 66.4292C109.829 66.4292 108.638 66.7904 107.625 67.467C106.612 68.1437 105.823 69.1055 105.356 70.2308C104.89 71.3561 104.767 72.5944 105.005 73.7892C105.242 74.984 105.828 76.0817 106.689 76.9434C107.55 77.8051 108.647 78.3922 109.842 78.6305C111.037 78.8688 112.275 78.7475 113.401 78.2821C114.526 77.8166 115.489 77.0279 116.166 76.0155C116.844 75.0032 117.206 73.8127 117.207 72.5945C117.206 70.9605 116.557 69.3935 115.402 68.2376C114.247 67.0816 112.681 66.4313 111.047 66.4292V66.4292ZM111.047 74.2104C110.726 74.2104 110.412 74.1152 110.146 73.9369C109.879 73.7585 109.671 73.505 109.549 73.2085C109.426 72.912 109.394 72.5858 109.457 72.2712C109.52 71.9566 109.675 71.6677 109.902 71.4412C110.13 71.2147 110.419 71.0607 110.734 70.9988C111.049 70.9368 111.375 70.9697 111.671 71.0932C111.967 71.2166 112.22 71.4252 112.397 71.6925C112.575 71.9598 112.669 72.2737 112.668 72.5945C112.666 73.0235 112.495 73.4343 112.191 73.7371C111.887 74.0399 111.476 74.2101 111.047 74.2104Z" fill="white"/>
</svg>
