<svg width="94" height="67" viewBox="0 0 94 67" fill="none" xmlns="http://www.w3.org/2000/svg">
<path d="M42.677 37.5569H45.6202V40.0523H42.677V37.5569Z" fill="white"/>
<path d="M36.7905 37.5569H39.7338V40.0523H36.7905V37.5569Z" fill="white"/>
<path d="M30.9041 37.5569H33.8473V40.0523H30.9041V37.5569Z" fill="white"/>
<path d="M7.35815 46.7059H55.9216V44.2105H10.1178V9.4458H67.6945V6.95038H7.35815V46.7059Z" fill="white"/>
<path d="M16.0043 21.4223V14.7687H23.546V12.2733H13.2446V21.4223H16.0043Z" fill="white"/>
<path d="M76.3406 12.2732V0.296753H0V53.3595H30.904V58.1655L25.0175 63.4884V66.6667H51.3231V63.4884L45.4366 58.1655V53.3595H58.8647V66.6667H94V12.2732H76.3406ZM48.1761 64.1713H28.348L32.9472 60.0131H43.577L48.1761 64.1713ZM33.6636 57.5177V53.3595H42.6769V57.5177H33.6636ZM58.8647 50.8641H2.75964V2.79218H73.5809V12.2732H58.8647V50.8641ZM83.8823 64.1713H68.9825V60.0131H83.8823V64.1713ZM91.2404 64.1713H86.6419V57.5177H66.2228V64.1713H61.6244V36.0602H91.2404V64.1713ZM91.2404 33.5647H61.6244V29.4066H91.2404V33.5647ZM91.2404 26.9111H61.6244V22.753H91.2404V26.9111ZM91.2404 20.2575H61.6244V14.7686H91.2404V20.2575Z" fill="white"/>
<path d="M76.5241 51.2805C78.908 51.2805 80.8472 49.5269 80.8472 47.3713C80.8472 45.2157 78.908 43.4622 76.5241 43.4622C74.141 43.4622 72.2018 45.2157 72.2018 47.3713C72.2018 49.5269 74.141 51.2805 76.5241 51.2805ZM76.5241 45.9576C77.3869 45.9576 78.0883 46.5918 78.0883 47.3713C78.0883 48.1508 77.3869 48.785 76.5241 48.785C75.6621 48.785 74.9607 48.1508 74.9607 47.3713C74.9607 46.5918 75.6621 45.9576 76.5241 45.9576Z" fill="white"/>
</svg>
