<svg width="94" height="67" viewBox="0 0 94 67" fill="none" xmlns="http://www.w3.org/2000/svg">
<path d="M93.5414 57.1786C93.2476 56.8567 92.849 56.6759 92.4334 56.6759H86.1668V5.17588C86.164 2.33292 84.0613 0.0288965 81.4668 0.0258789H12.5336C9.93903 0.0288965 7.83633 2.33292 7.83358 5.17588V56.6759H1.56679C1.15132 56.6757 0.752737 56.8565 0.458804 57.1786C0.165054 57.5005 3.2101e-06 57.9372 3.2101e-06 58.3927V61.1328C-0.00183273 62.8553 0.783948 64.464 2.09297 65.4178L3.03995 66.1102C3.81178 66.6761 4.71983 66.9775 5.64845 66.9761H88.3514C89.2794 66.9777 90.1869 66.6765 90.9584 66.111L91.9054 65.4186C93.2151 64.465 94.0016 62.8559 93.9998 61.1328V58.3927C94.0004 57.9372 93.8353 57.5005 93.5414 57.1786ZM10.9668 5.17588C10.9677 4.22816 11.6685 3.46008 12.5334 3.45928H81.4668C82.3317 3.46029 83.0326 4.22816 83.0334 5.17588V56.6759H10.9668V5.17588ZM5.64881 63.5425C5.33946 63.5427 5.03708 63.4423 4.77987 63.254L3.82977 62.56C3.3941 62.2421 3.13266 61.7062 3.13358 61.1324V60.1089H34.4672L36.8172 63.5423L5.64881 63.5425ZM53.267 63.5425H40.7332L38.3832 60.1091H55.617L53.267 63.5425ZM90.8668 61.1326C90.8677 61.7068 90.6057 62.2433 90.1691 62.561L89.219 63.255C88.9622 63.4429 88.6603 63.5429 88.3515 63.5425H57.1834L59.5334 60.1091H90.867L90.8668 61.1326Z" fill="#FFFBFB"/>
<path d="M78.0002 8.00085H15.0003C15.0003 8.69209 15.0004 8.71223 15.0003 8.47912C15.0003 8.61363 15.0003 8.95738 15.0003 9.53933V50.59C15.0001 51.0254 15.0003 50.7637 15.0003 50.7637C15.0002 51.0443 15.0003 51.5226 15.0003 52.0009H78.0002C78.0002 51.3582 78.0002 51.0256 78.0002 50.59V9.53933C78.0003 9.10387 78.0002 8.95738 78.0002 8.47912C78.0002 8.00085 78.0002 8.00085 78.0002 8.00085ZM75.0001 48.948H18.0005V11.1813H75.0003L75.0001 48.948Z" fill="#FFFBFB"/>
<path d="M21.9336 18.9093C22.3493 18.9099 22.7479 18.7288 23.0413 18.4063L24.6079 16.6897C25.2102 16.0176 25.2057 14.9393 24.598 14.2733C23.9903 13.6072 23.006 13.6023 22.3926 14.2624L20.826 15.979C20.3781 16.4698 20.2442 17.2081 20.4866 17.8495C20.7289 18.4908 21.3001 18.9091 21.9336 18.9093Z" fill="#FFFBFB"/>
<path d="M21.9336 29.2093C22.3493 29.2099 22.7479 29.0288 23.0413 28.7063L34.0079 16.6897C34.6102 16.0176 34.6057 14.9393 33.998 14.2733C33.3901 13.6072 32.406 13.6023 31.7926 14.2624L20.826 26.2788C20.3781 26.7696 20.2442 27.5079 20.4866 28.1493C20.7289 28.7908 21.3001 29.2091 21.9336 29.2093Z" fill="#FFFBFB"/>
</svg>
