<svg width="94" height="83" viewBox="0 0 94 83" fill="none" xmlns="http://www.w3.org/2000/svg">
<path d="M82.0169 65.222H21.9617C21.2018 65.222 20.5858 65.7657 20.5858 66.4368C20.5858 67.108 21.2018 67.6517 21.9617 67.6517H82.0169C82.777 67.6517 83.3928 67.108 83.3928 66.4368C83.3928 65.7657 82.777 65.222 82.0169 65.222Z" fill="white"/>
<path d="M52.7838 39.4675C51.1644 38.846 50.1283 37.4067 50.1447 35.8013C50.1576 34.5242 50.8532 33.3269 52.0049 32.599C52.5161 32.2765 52.8297 31.7679 52.8651 31.2035C52.9006 30.6411 52.6539 30.1052 52.1889 29.7332C50.959 28.7489 49.4517 28.112 47.8519 27.8838C47.9712 27.7753 48.0882 27.6642 48.1999 27.547C49.6748 26 50.2587 23.916 49.8438 21.679C49.6724 20.7536 48.7692 20.0336 47.7424 20.0043C45.2659 19.9333 43.0832 20.7472 41.6081 22.2945C40.1685 23.8045 39.5804 25.8269 39.9388 28.0036C39.6196 27.9234 39.2906 27.8544 38.9488 27.8066C38.5323 27.7484 38.12 27.7171 37.7229 27.7134C37.6954 27.7132 37.6686 27.713 37.6414 27.713C33.0615 27.713 29.3034 30.9626 29.0547 35.1466C28.4093 41.6184 33.6804 47.0329 34.1418 47.493C34.9887 48.3924 36.2138 48.9138 37.5086 48.9248C37.6524 48.924 37.8042 48.92 37.9674 48.9061C38.0026 48.903 38.0377 48.8993 38.0771 48.8944C38.2051 48.8804 38.3242 48.8631 38.4418 48.8415L38.5197 48.8263C38.6592 48.7981 38.7956 48.7644 38.9246 48.7265C38.9298 48.725 38.9352 48.7234 38.9404 48.7219C39.0994 48.6747 39.243 48.6249 39.3755 48.5712C39.3833 48.568 39.4002 48.5612 39.408 48.5582L39.548 48.5015C41.0845 47.8812 42.8399 47.8963 44.3629 48.542L44.5021 48.6011C44.5095 48.6044 44.5169 48.6073 44.5225 48.6097C44.5274 48.6119 44.532 48.6137 44.535 48.615C44.5462 48.6196 44.5574 48.6243 44.5686 48.6287C44.689 48.6787 44.8149 48.7247 44.9525 48.7684C44.9579 48.7702 44.9633 48.7721 44.9687 48.7735C45.1017 48.8155 45.2418 48.853 45.3872 48.8847L45.4647 48.9013C45.5821 48.9248 45.7042 48.9445 45.8244 48.9595C45.8622 48.9648 45.9003 48.9698 45.9329 48.9729C46.0959 48.9897 46.2465 48.9985 46.3935 48.9998C46.4075 48.9998 46.4211 49 46.4351 49C47.7265 48.9998 48.9553 48.4916 49.8115 47.6013L49.8105 47.6004C50.3035 47.1177 52.4298 44.9278 53.8464 41.8403C54.2681 40.9187 53.7917 39.8543 52.7838 39.4675ZM43.8705 24.0974C44.6125 23.3192 45.6936 22.856 46.9622 22.7621C47.0333 23.924 46.679 24.9664 45.9373 25.7445C45.1954 26.5225 44.1142 26.9857 42.8457 27.0798C42.7746 25.9178 43.1286 24.8753 43.8705 24.0974ZM47.6066 45.7406C47.5898 45.7565 47.5735 45.7726 47.5575 45.7893C47.2716 46.0864 46.8629 46.2563 46.4347 46.2563C46.4301 46.2563 46.4255 46.2563 46.4209 46.2561C46.3815 46.2558 46.3362 46.2532 46.2791 46.2477L46.2313 46.2413C46.19 46.2362 46.1492 46.2298 46.1173 46.2234L46.0853 46.2164C46.0388 46.2062 45.995 46.195 45.9553 46.1825C45.9517 46.1813 45.9481 46.1802 45.9447 46.1791C45.8884 46.1613 45.8404 46.1441 45.8021 46.1274C45.7897 46.1223 45.7775 46.1172 45.7651 46.1122L45.6257 46.0531C43.319 45.075 40.6617 45.0524 38.3348 45.9916L38.1889 46.0505C38.1782 46.0546 38.168 46.0588 38.1576 46.0628C38.1216 46.0775 38.0761 46.0932 38.0225 46.1095C38.0182 46.1106 38.0142 46.1119 38.01 46.1132C37.969 46.1252 37.9227 46.1368 37.8727 46.1468C37.8701 46.1474 37.849 46.1514 37.8466 46.152C37.806 46.1595 37.7649 46.165 37.7257 46.1694L37.6788 46.1748C37.6228 46.1792 37.5759 46.1803 37.5366 46.1809C37.1033 46.1772 36.6922 46.0002 36.4092 45.6946C36.3948 45.6791 36.3784 45.6621 36.3632 45.6471C36.3143 45.5989 31.4929 40.7775 32.0464 35.3737C32.0484 35.3542 32.05 35.3347 32.051 35.3151C32.2022 32.5818 34.6537 30.4567 37.642 30.4567C37.6596 30.4567 37.6774 30.4569 37.6952 30.4571C37.9536 30.4593 38.2153 30.4794 38.4958 30.5188C38.7792 30.5583 39.0495 30.6144 39.296 30.6839C39.3409 30.6967 39.3845 30.711 39.4284 30.7255L39.5968 30.7778C39.6863 30.8086 39.774 30.8421 39.8553 30.8741C39.8663 30.8783 39.8874 30.8864 39.9048 30.8928C39.9959 30.9296 40.0854 30.9686 40.1737 31.0096C40.1747 31.0102 40.1759 31.0107 40.1771 31.0113C40.8482 31.34 41.4812 31.5055 42.1107 31.5174C42.1222 31.5176 42.1348 31.5171 42.1448 31.5178C42.7758 31.5165 43.4138 31.3611 44.0936 31.0422C44.1819 31.0028 44.2714 30.9658 44.3587 30.9322C44.377 30.9259 44.3942 30.9197 44.4078 30.9144C44.4951 30.8816 44.583 30.85 44.6693 30.8221L44.8369 30.7727C44.883 30.7588 44.9287 30.7445 44.9727 30.7326C45.2234 30.6663 45.4952 30.6149 45.7799 30.5799C46.0597 30.5455 46.3212 30.5292 46.5805 30.532C47.5129 30.5397 48.4224 30.7606 49.2286 31.1669C47.9222 32.389 47.1616 34.0381 47.144 35.7751C47.1196 38.1768 48.4829 40.3592 50.689 41.5651C49.3754 44.0368 47.6464 45.7027 47.6066 45.7406Z" fill="white"/>
<path d="M76.7015 3.29043C76.6089 3.24747 73.1289 0.0459805 67.3261 0.0459805C61.4871 0.046629 9.86025 0.0268516 12.4006 0.124117C6.85391 0.671559 2.27252 4.1548 0.706287 8.65835C-0.339278 11.6133 0.0870261 11.7238 0.0817019 51.5581C0.0817019 52.2291 0.697658 52.7729 1.45755 52.7729C2.21744 52.7729 2.8334 52.2292 2.8334 51.5581C3.00836 4.35873 2.31071 14.1561 3.54739 8.8404C5.51221 4.25595 10.1722 3.08536 10.2302 3.04484C13.8723 1.89565 13.6175 2.7819 67.3263 2.47567C68.4359 2.47567 69.536 2.624 70.581 2.90899C70.6346 2.94011 74.46 3.78211 76.8204 7.21023C77.1904 7.88412 78.2354 9.12214 78.4221 11.8217C78.4445 12.2447 78.4965 12.2082 78.5 13.5C78.5 14.1711 79.0515 14.8183 79.8115 14.8183C80.5716 14.8183 81 14.6711 81 14C80.9071 13.4718 81.9363 7.54223 76.7015 3.29043Z" fill="white"/>
<path d="M90.2134 60.5748H81.1236C81.2364 59.533 80.9815 56.1946 81 13.5001C81 13.0001 80.7601 14.5 80 14.5C79.2399 14.5 79 14.5 78.5 13C78.4273 54.0826 78.5414 59.1719 78.3571 60.5748H13.7651C11.6772 60.5748 9.97863 62.0747 9.97863 63.918V68.579C5.77949 67.1534 2.833 63.5487 2.833 59.4204L2.94351 57.2265C2.94351 43 2.37041 52.5 1.61052 52.5C0.850625 52.5 0.0812988 48.3289 0.0812988 49V59.4204C0.0812988 64.8339 4.15432 69.6002 9.97863 71.144V74.8241C9.97863 76.6676 11.6772 78.1674 13.7651 78.1674H21.0242C22.5102 81.0646 25.7695 82.9563 29.4252 82.9563H71.0989C71.859 82.9563 69.7231 82.4125 69.7231 81.7414C69.7231 81.0703 71.859 80.5266 71.0989 80.5266H29.4254C27.3115 80.5266 25.3854 79.6241 24.1891 78.1674H79.7895C78.5932 79.6244 76.6673 80.5266 74.5532 80.5266H71.0989C70.3388 80.5266 69.7231 81.0703 69.7231 81.7414C69.7231 82.4125 70.3388 82.9563 71.0989 82.9563H74.5532C78.2089 82.9563 81.4684 81.0644 82.9543 78.1674H90.2134C92.3012 78.1674 93.9998 76.6674 93.9998 74.8241V63.918C93.9998 62.0745 92.3012 60.5748 90.2134 60.5748ZM91.2481 74.8239C91.2481 75.3276 90.784 75.7375 90.2134 75.7375C86.7053 75.7375 16.8485 75.7375 13.7652 75.7375C13.1946 75.7375 12.7305 75.3277 12.7305 74.8239C12.7305 72.6262 12.7305 66.1044 12.7305 63.918C12.7305 63.4143 13.1946 63.0045 13.7652 63.0045C18.9062 63.0045 87.1606 63.0045 90.2134 63.0045C90.7838 63.0045 91.2481 63.4143 91.2481 63.918V74.8239Z" fill="white"/>
</svg>
