<svg width="128" height="128" viewBox="0 0 128 128" fill="none" xmlns="http://www.w3.org/2000/svg">
<path d="M127.376 94.6967C126.976 94.2647 126.433 94.022 125.867 94.022H117.334V24.9111C117.33 21.096 114.467 18.004 110.934 18H17.067C13.534 18.004 10.6708 21.096 10.667 24.9111V94.022H2.13351C1.56776 94.0217 1.02501 94.2644 0.624756 94.6967C0.224755 95.1286 4.37121e-06 95.7147 4.37121e-06 96.3259V100.003C-0.00249563 102.315 1.06751 104.473 2.85001 105.753L4.13951 106.683C5.19051 107.442 6.42702 107.846 7.69152 107.844H120.308C121.572 107.847 122.808 107.442 123.858 106.684L125.148 105.754C126.931 104.475 128.002 102.315 128 100.003V96.3259C128.001 95.7147 127.776 95.1286 127.376 94.6967ZM14.9335 24.9111C14.9348 23.6393 15.889 22.6086 17.0668 22.6075H110.934C112.111 22.6088 113.066 23.6393 113.067 24.9111V94.022H14.9335V24.9111ZM7.69202 103.237C7.27077 103.237 6.85902 103.102 6.50877 102.85L5.21501 101.918C4.62176 101.492 4.26576 100.772 4.26701 100.003V98.629H46.9341L50.1341 103.236L7.69202 103.237ZM72.5339 103.237H55.4666L52.2666 98.6292H75.7339L72.5339 103.237ZM123.734 100.003C123.735 100.773 123.378 101.493 122.784 101.92L121.49 102.851C121.14 103.103 120.729 103.237 120.309 103.237H77.8669L81.0669 98.6292H123.734L123.734 100.003Z" fill="#FFFBFB"/>
<path d="M106.213 28.7021H20.4259C20.426 29.6297 20.4261 29.6567 20.426 29.3439C20.426 29.5244 20.426 29.9857 20.426 30.7667V85.855C20.4258 86.4393 20.426 86.0881 20.426 86.0881C20.4259 86.4647 20.426 87.1065 20.426 87.7483H106.213C106.213 86.8859 106.213 86.4396 106.213 85.855V30.7667C106.213 30.1823 106.213 29.9857 106.213 29.3439C106.213 28.7021 106.213 28.7021 106.213 28.7021ZM102.128 83.6515H24.5114V32.9701H102.128L102.128 83.6515Z" fill="#FFFBFB"/>
<path d="M29.8671 43.3407C30.4331 43.3415 30.9759 43.0985 31.3754 42.6658L33.5087 40.3622C34.3289 39.4602 34.3227 38.0132 33.4952 37.1194C32.6677 36.2255 31.3274 36.219 30.4921 37.1048L28.3589 39.4084C27.7489 40.0671 27.5666 41.0579 27.8966 41.9185C28.2266 42.7792 29.0044 43.3404 29.8671 43.3407Z" fill="#FFFBFB"/>
<path d="M29.8671 57.1629C30.4331 57.1637 30.9759 56.9207 31.3754 56.488L46.3087 40.3622C47.1289 39.4602 47.1227 38.0132 46.2952 37.1194C45.4674 36.2255 44.1274 36.219 43.2922 37.1048L28.3589 53.2303C27.7489 53.889 27.5666 54.8798 27.8966 55.7404C28.2266 56.6014 29.0044 57.1626 29.8671 57.1629Z" fill="#FFFBFB"/>
</svg>
