<svg width="71" height="128" viewBox="0 0 71 128" fill="none" xmlns="http://www.w3.org/2000/svg">
<path d="M39.0359 109.161H31.4805C28.2866 109.161 25.688 111.824 25.688 115.097C25.688 118.369 28.2866 121.032 31.4805 121.032H39.0359C42.2298 121.032 44.8283 118.369 44.8283 115.097C44.8283 111.824 42.2298 109.161 39.0359 109.161ZM39.0359 115.871H31.4805C31.064 115.871 30.7249 115.524 30.7249 115.097C30.7249 114.67 31.0637 114.322 31.4805 114.322H39.0359C39.4523 114.322 39.7915 114.67 39.7915 115.097C39.7915 115.524 39.4523 115.871 39.0359 115.871Z" fill="#FFFDFD"/>
<path d="M61.0095 0H9.50723C4.26518 0 0 4.37024 0 9.74198V118.258C0 123.63 4.26493 128 9.50723 128H61.0097C66.2518 128 70.5169 123.63 70.5169 118.258V9.74198C70.5167 4.37024 66.2518 0 61.0095 0ZM65.4798 118.258C65.4798 120.784 63.4746 122.839 61.0095 122.839H9.50723C7.0421 122.839 5.03687 120.784 5.03687 118.258V107.613H65.4798V118.258ZM65.4798 102.451H62.8354V35.8709C62.8354 34.4459 61.708 33.2902 60.3168 33.2902C58.9257 33.2902 57.7983 34.4454 57.7983 35.8709V102.452H5.03687V18.0645H65.4798V102.451ZM65.4798 12.9032H5.03687V9.74198C5.03687 7.21599 7.0421 5.16124 9.50723 5.16124H61.0097C63.4748 5.16124 65.4801 7.21599 65.4801 9.74198L65.4798 12.9032Z" fill="#FFFDFD"/>
<path d="M56.0354 6.45142H55.5316C54.1407 6.45142 53.0131 7.60666 53.0131 9.03216C53.0131 10.4577 54.1405 11.6129 55.5316 11.6129H56.0354C57.4263 11.6129 58.554 10.4577 58.554 9.03216C58.554 7.60666 57.4263 6.45142 56.0354 6.45142Z" fill="#FFFDFD"/>
<path d="M60.317 22.4515C58.9261 22.4515 57.7985 23.6068 57.7985 25.0323V26.8388C57.7985 28.264 58.9259 29.4195 60.317 29.4195C61.7082 29.4195 62.8356 28.2643 62.8356 26.8388V25.0323C62.8353 23.607 61.7079 22.4515 60.317 22.4515Z" fill="#FFFDFD"/>
</svg>
