<svg width="92" height="92" viewBox="0 0 92 92" fill="none" xmlns="http://www.w3.org/2000/svg">
<path d="M51.5342 40H40.0615V51.4667H51.5342V40Z" fill="#FF6B00"/>
<path d="M91.8216 51.6V40.1334H79.8327C78.9493 34.9218 76.9072 30.1058 73.953 25.9663L82.437 17.4867L74.3259 9.37974L65.8419 17.8593C61.7002 14.9067 56.8817 12.8656 51.6674 11.9827V0H40.1948V11.9827C34.9805 12.8656 30.1619 14.9067 26.0203 17.8536L17.5363 9.37974L9.42515 17.4867L17.9092 25.9663C14.955 30.1058 12.9128 34.9218 12.0294 40.1334H0.0405273V51.6H12.0294C12.9128 56.8116 14.955 61.6276 17.9092 65.7671L9.42515 74.2467L17.5363 82.3537L26.0203 73.8741C30.1619 76.8267 34.9805 78.8678 40.1948 79.7507V91.7334H51.6674V79.7507C56.8817 78.8678 61.7002 76.8267 65.8419 73.8798L74.3259 82.3594L82.437 74.2525L73.953 65.7729C76.9072 61.6276 78.9493 56.8116 79.8327 51.6H91.8216ZM45.9311 68.8C33.2768 68.8 22.9858 58.5144 22.9858 45.8667C22.9858 33.219 33.2768 22.9334 45.9311 22.9334C58.5854 22.9334 68.8764 33.219 68.8764 45.8667C68.8764 58.5144 58.5854 68.8 45.9311 68.8Z" fill="#FF6B00"/>
</svg>
