<svg width="47" height="83" viewBox="0 0 47 83" fill="none" xmlns="http://www.w3.org/2000/svg">
<path d="M25.9496 70.7844H21.0504C18.9793 70.7844 17.2943 72.5111 17.2943 74.6332C17.2943 76.7554 18.9793 78.482 21.0504 78.482H25.9496C28.0206 78.482 29.7057 76.7554 29.7057 74.6332C29.7057 72.5111 28.0206 70.7844 25.9496 70.7844ZM25.9496 75.1353H21.0504C20.7803 75.1353 20.5604 74.9101 20.5604 74.6332C20.5604 74.3563 20.7802 74.1312 21.0504 74.1312H25.9496C26.2197 74.1312 26.4396 74.3563 26.4396 74.6332C26.4396 74.9101 26.2197 75.1353 25.9496 75.1353Z" fill="#FFFDFD"/>
<path d="M40.1981 0.00012207H6.80207C3.40291 0.00012207 0.637207 2.83396 0.637207 6.3172V76.6832C0.637207 80.1663 3.40276 83.0003 6.80207 83.0003H40.1983C43.5974 83.0003 46.3631 80.1665 46.3631 76.6832V6.3172C46.363 2.83396 43.5974 0.00012207 40.1981 0.00012207ZM43.0969 76.683C43.0969 78.321 41.7966 79.6534 40.1981 79.6534H6.80207C5.20358 79.6534 3.90331 78.321 3.90331 76.683V69.7803H43.0969V76.683ZM43.0969 66.4335H41.3821V23.2602C41.3821 22.3362 40.6511 21.5868 39.749 21.5868C38.8469 21.5868 38.1158 22.3359 38.1158 23.2602V66.4337H3.90331V11.7138H43.0969V66.4335ZM43.0969 8.36707H3.90331V6.3172C3.90331 4.67925 5.20358 3.34687 6.80207 3.34687H40.1983C41.7968 3.34687 43.097 4.67925 43.097 6.3172V8.36707H43.0969Z" fill="#FFFDFD"/>
<path d="M36.9728 4.18353H36.6461C35.7442 4.18353 35.0129 4.93264 35.0129 5.85699C35.0129 6.78134 35.744 7.53044 36.6461 7.53044H36.9728C37.8747 7.53044 38.6059 6.78134 38.6059 5.85699C38.6059 4.93264 37.8747 4.18353 36.9728 4.18353Z" fill="#FFFDFD"/>
<path d="M39.7491 14.5585C38.8472 14.5585 38.116 15.3076 38.116 16.232V17.4034C38.116 18.3276 38.847 19.0768 39.7491 19.0768C40.6512 19.0768 41.3822 18.3277 41.3822 17.4034V16.232C41.3821 15.3078 40.651 14.5585 39.7491 14.5585Z" fill="#FFFDFD"/>
</svg>
