<svg width="128" height="90" viewBox="0 0 128 90" fill="none" xmlns="http://www.w3.org/2000/svg">
<path d="M127.376 76.6967C126.976 76.2647 126.433 76.022 125.867 76.022H117.334V6.91109C117.33 3.09595 114.467 0.00404947 110.934 0H17.067C13.534 0.00404947 10.6708 3.09595 10.667 6.91109V76.022H2.13351C1.56776 76.0218 1.02501 76.2644 0.624756 76.6967C0.224755 77.1286 4.37121e-06 77.7147 4.37121e-06 78.3259V82.0031C-0.00249563 84.3145 1.06751 86.4734 2.85001 87.7533L4.13951 88.6825C5.19051 89.4419 6.42702 89.8464 7.69152 89.8445H120.308C121.572 89.8466 122.808 89.4425 123.858 88.6836L125.148 87.7544C126.931 86.4748 128.002 84.3153 128 82.0031V78.3259C128.001 77.7147 127.776 77.1286 127.376 76.6967ZM14.9335 6.91109C14.9348 5.63929 15.889 4.60856 17.0668 4.60748H110.934C112.111 4.60883 113.066 5.63929 113.067 6.91109V76.022H14.9335V6.91109ZM7.69202 85.2367C7.27077 85.237 6.85902 85.1023 6.50877 84.8496L5.21501 83.9182C4.62176 83.4917 4.26576 82.7725 4.26701 82.0025V80.629H46.9341L50.1341 85.2364L7.69202 85.2367ZM72.5339 85.2367H55.4666L52.2666 80.6292H75.7339L72.5339 85.2367ZM123.734 82.0028C123.735 82.7733 123.378 83.4933 122.784 83.9196L121.49 84.8509C121.14 85.1031 120.729 85.2373 120.309 85.2367H77.8669L81.0669 80.6292H123.734L123.734 82.0028Z" fill="#FFFBFB"/>
<path d="M106.213 10.7021H20.4259C20.426 11.6297 20.4261 11.6567 20.426 11.3439C20.426 11.5244 20.426 11.9857 20.426 12.7667V67.855C20.4258 68.4393 20.426 68.0881 20.426 68.0881C20.4259 68.4647 20.426 69.1065 20.426 69.7483H106.213C106.213 68.8859 106.213 68.4396 106.213 67.855V12.7667C106.213 12.1823 106.213 11.9857 106.213 11.3439C106.213 10.7021 106.213 10.7021 106.213 10.7021ZM102.128 65.6515H24.5114V14.9701H102.128L102.128 65.6515Z" fill="#FFFBFB"/>
<path d="M29.8671 25.3407C30.4331 25.3415 30.9759 25.0985 31.3754 24.6658L33.5087 22.3622C34.3289 21.4602 34.3227 20.0132 33.4952 19.1194C32.6677 18.2255 31.3274 18.219 30.4921 19.1048L28.3589 21.4084C27.7489 22.0671 27.5666 23.0579 27.8966 23.9185C28.2266 24.7792 29.0044 25.3404 29.8671 25.3407Z" fill="#FFFBFB"/>
<path d="M29.8671 39.1629C30.4331 39.1637 30.9759 38.9207 31.3754 38.488L46.3087 22.3622C47.1289 21.4602 47.1227 20.0132 46.2952 19.1194C45.4674 18.2255 44.1274 18.219 43.2922 19.1048L28.3589 35.2303C27.7489 35.889 27.5666 36.8798 27.8966 37.7404C28.2266 38.6014 29.0044 39.1626 29.8671 39.1629Z" fill="#FFFBFB"/>
</svg>
