<svg width="128" height="128" viewBox="0 0 128 128" fill="none" xmlns="http://www.w3.org/2000/svg">
<path d="M111.683 95.9168H29.9051C28.8704 95.9168 28.0316 96.6586 28.0316 97.5741C28.0316 98.4897 28.8704 99.2315 29.9051 99.2315H111.683C112.718 99.2315 113.556 98.4897 113.556 97.5741C113.556 96.6586 112.718 95.9168 111.683 95.9168Z" fill="white"/>
<path d="M71.8759 60.7818C69.6707 59.9339 68.2598 57.9703 68.2822 55.7803C68.2996 54.038 69.2469 52.4046 70.8151 51.4116C71.5113 50.9715 71.9383 50.2777 71.9866 49.5078C72.0348 48.7405 71.6989 48.0095 71.0657 47.502C69.3909 46.1591 67.3384 45.2902 65.16 44.979C65.3225 44.8309 65.4818 44.6793 65.6339 44.5195C67.6422 42.4091 68.4373 39.5659 67.8724 36.5142C67.6389 35.2517 66.4092 34.2694 65.0108 34.2295C61.6386 34.1326 58.6664 35.243 56.6578 37.3539C54.6975 39.4138 53.8966 42.1728 54.3847 45.1424C53.9501 45.033 53.5021 44.9388 53.0366 44.8736C52.4694 44.7942 51.908 44.7515 51.3673 44.7465C51.3299 44.7463 51.2934 44.746 51.2563 44.746C45.0198 44.746 39.9024 49.1791 39.5637 54.8871C38.6849 63.7161 45.8626 71.1027 46.4909 71.7304C47.6441 72.9574 49.3123 73.6687 51.0755 73.6837C51.2713 73.6827 51.478 73.6772 51.7002 73.6582C51.7482 73.654 51.7959 73.6489 51.8496 73.6422C52.0239 73.6232 52.1861 73.5995 52.3462 73.57L52.4523 73.5493C52.6423 73.5108 52.828 73.4649 53.0036 73.4132C53.0107 73.4112 53.0181 73.4089 53.0252 73.4069C53.2417 73.3425 53.4372 73.2746 53.6177 73.2014C53.6283 73.1969 53.6512 73.1877 53.6619 73.1837L53.8525 73.1062C55.9448 72.2601 58.3351 72.2806 60.4091 73.1614L60.5986 73.2421C60.6087 73.2466 60.6188 73.2506 60.6264 73.2538C60.633 73.2568 60.6392 73.2593 60.6433 73.2611C60.6586 73.2673 60.6739 73.2738 60.6891 73.2798C60.853 73.348 61.0245 73.4107 61.2119 73.4704C61.2192 73.4729 61.2266 73.4754 61.2339 73.4774C61.415 73.5346 61.6059 73.5858 61.8038 73.629L61.9094 73.6517C62.0692 73.6837 62.2355 73.7106 62.3991 73.7311C62.4506 73.7384 62.5025 73.7451 62.5469 73.7494C62.7689 73.7723 62.9739 73.7843 63.1741 73.7861C63.1932 73.7861 63.2117 73.7863 63.2308 73.7863C64.9893 73.7861 66.6625 73.0928 67.8285 71.8782L67.8271 71.877C68.4984 71.2184 71.3938 68.2309 73.3227 64.0188C73.897 62.7616 73.2483 61.3095 71.8759 60.7818ZM59.7386 39.8134C60.7488 38.7517 62.221 38.1199 63.9485 37.9917C64.0453 39.5769 63.5629 40.999 62.5529 42.0604C61.5426 43.1219 60.0704 43.7537 58.343 43.8821C58.2462 42.2969 58.7283 40.8746 59.7386 39.8134ZM64.826 69.3397C64.8031 69.3615 64.781 69.3834 64.7592 69.4062C64.3698 69.8115 63.8132 70.0433 63.2302 70.0433C63.224 70.0433 63.2177 70.0433 63.2114 70.043C63.1577 70.0425 63.0961 70.039 63.0184 70.0316L62.9532 70.0228C62.897 70.0158 62.8414 70.0071 62.798 69.9983L62.7544 69.9888C62.6911 69.9749 62.6314 69.9596 62.5774 69.9426C62.5725 69.9409 62.5676 69.9394 62.563 69.9379C62.4864 69.9137 62.4209 69.8902 62.3688 69.8675C62.3519 69.8605 62.3353 69.8535 62.3184 69.8467L62.1286 69.7661C58.9876 68.4316 55.3691 68.4009 52.2006 69.6822L52.0018 69.7626C51.9873 69.7681 51.9734 69.7738 51.9592 69.7793C51.9102 69.7993 51.8483 69.8208 51.7752 69.843C51.7695 69.8445 51.764 69.8462 51.7583 69.848C51.7024 69.8645 51.6394 69.8802 51.5712 69.8939C51.5677 69.8947 51.539 69.9002 51.5358 69.9009C51.4804 69.9112 51.4245 69.9187 51.3711 69.9247L51.3073 69.9322C51.2309 69.9381 51.1671 69.9396 51.1137 69.9404C50.5236 69.9354 49.9638 69.6939 49.5785 69.2771C49.5588 69.2558 49.5365 69.2326 49.5158 69.2121C49.4492 69.1464 42.8839 62.569 43.6376 55.1968C43.6403 55.1704 43.6425 55.1436 43.6438 55.1169C43.8497 51.3881 47.1879 48.489 51.2571 48.489C51.2811 48.489 51.3054 48.4893 51.3296 48.4895C51.6814 48.4925 52.0378 48.52 52.4198 48.5737C52.8056 48.6276 53.1738 48.7041 53.5094 48.799C53.5705 48.8164 53.63 48.8359 53.6897 48.8557L53.919 48.9271C54.0409 48.969 54.1603 49.0147 54.271 49.0585C54.286 49.0642 54.3147 49.0752 54.3384 49.0839C54.4625 49.1341 54.5843 49.1873 54.7046 49.2433C54.706 49.244 54.7076 49.2448 54.7092 49.2455C55.623 49.6941 56.4849 49.9198 57.3422 49.9361C57.3578 49.9363 57.375 49.9356 57.3886 49.9366C58.2478 49.9348 59.1166 49.7228 60.0423 49.2877C60.1626 49.234 60.2845 49.1836 60.4034 49.1376C60.4282 49.1291 60.4516 49.1206 60.4702 49.1134C60.5891 49.0687 60.7088 49.0255 60.8263 48.9875L61.0545 48.9201C61.1172 48.9011 61.1794 48.8816 61.2394 48.8654C61.5808 48.775 61.9508 48.7048 62.3386 48.6571C62.7195 48.6101 63.0756 48.5879 63.4287 48.5917C64.6983 48.6022 65.9369 48.9036 67.0347 49.4578C65.2557 51.1251 64.2201 53.3749 64.1961 55.7445C64.1628 59.021 66.0192 61.9983 69.0233 63.6434C67.2346 67.0153 64.8802 69.288 64.826 69.3397Z" fill="white"/>
<path d="M104.445 11.4279C104.319 11.3693 99.58 7.00169 91.6782 7.00169C83.7272 7.00258 13.4266 6.9756 16.8859 7.10829C9.33285 7.85513 3.09434 12.6071 0.961589 18.7509C-0.462163 22.7821 0.118338 22.933 0.111088 77.2761C0.111088 78.1914 0.949839 78.9334 1.98459 78.9334C3.01934 78.9334 3.85809 78.1917 3.85809 77.2761C4.09634 12.8853 3.14634 26.2512 4.83034 18.9993C7.50585 12.7451 13.8514 11.1481 13.9304 11.0928C18.8899 9.52506 18.5429 10.7341 91.6785 10.3164C93.1895 10.3164 94.6875 10.5187 96.1105 10.9075C96.1835 10.95 101.392 12.0986 104.607 16.7754C105.11 17.6947 106.533 19.3837 106.788 23.0666C106.818 23.6435 106.889 23.5937 106.894 25.3561C106.894 26.2717 107.645 27.1546 108.68 27.1546C109.715 27.1546 110.298 26.9538 110.298 26.0382C110.172 25.3177 111.573 17.2283 104.445 11.4279Z" fill="white"/>
<path d="M122.844 89.577H110.466C110.62 88.1556 110.273 83.6013 110.298 25.3561C110.298 24.674 109.971 26.7203 108.936 26.7203C107.901 26.7203 107.575 26.7203 106.894 24.674C106.795 80.7202 106.95 87.6631 106.699 89.577H18.7439C15.9009 89.577 13.5879 91.6231 13.5879 94.1378V100.496C7.86986 98.5516 3.8576 93.6341 3.8576 88.0021L4.00809 85.009C4.00809 65.6009 3.22769 78.5611 2.19294 78.5611C1.15819 78.5611 0.110596 72.8707 0.110596 73.7863V88.0021C0.110596 95.3874 5.65685 101.89 13.5879 103.996V109.016C13.5879 111.531 15.9009 113.577 18.7439 113.577H28.6286C30.6521 117.53 35.0904 120.11 40.0684 120.11H96.8157C97.8507 120.11 94.9422 119.369 94.9422 118.453C94.9422 117.538 97.8507 116.796 96.8157 116.796H40.0686C37.1901 116.796 34.5674 115.565 32.9384 113.577H108.65C107.021 115.565 104.398 116.796 101.519 116.796H96.8157C95.7807 116.796 94.9422 117.538 94.9422 118.453C94.9422 119.369 95.7807 120.11 96.8157 120.11H101.519C106.497 120.11 110.936 117.53 112.959 113.577H122.844C125.687 113.577 128 111.531 128 109.016V94.1378C128 91.6229 125.687 89.577 122.844 89.577ZM124.253 109.016C124.253 109.703 123.621 110.262 122.844 110.262C118.067 110.262 22.9426 110.262 18.7441 110.262C17.9671 110.262 17.3351 109.703 17.3351 109.016C17.3351 106.018 17.3351 97.1206 17.3351 94.1378C17.3351 93.4507 17.9671 92.8916 18.7441 92.8916C25.7446 92.8916 118.687 92.8916 122.844 92.8916C123.621 92.8916 124.253 93.4507 124.253 94.1378V109.016Z" fill="white"/>
</svg>
