<svg width="128" height="128" viewBox="0 0 128 128" fill="none" xmlns="http://www.w3.org/2000/svg">
<path d="M58.1133 69.7372H62.1211V73.1352H58.1133V69.7372Z" fill="white"/>
<path d="M50.0978 69.7372H54.1056V73.1352H50.0978V69.7372Z" fill="white"/>
<path d="M42.082 69.7372H46.0898V73.1352H42.082V69.7372Z" fill="white"/>
<path d="M10.0195 82.1955H76.1484V78.7975H13.7773V31.4583H92.1797V28.0603H10.0195V82.1955Z" fill="white"/>
<path d="M21.7931 47.7667V38.7065H32.0626V35.3085H18.0353V47.7667H21.7931Z" fill="white"/>
<path d="M103.953 35.3084V19H0V91.2556H42.082V97.8L34.0664 105.048V109.376H69.8867V105.048L61.8711 97.8V91.2556H80.1562V109.376H128V35.3084H103.953ZM65.6016 105.978H38.6016L44.8643 100.316H59.3389L65.6016 105.978ZM45.8398 96.9178V91.2556H58.1133V96.9178H45.8398ZM80.1562 87.8576H3.75781V22.398H100.195V35.3084H80.1562V87.8576ZM114.223 105.978H93.9336V100.316H114.223V105.978ZM124.242 105.978H117.98V96.9178H90.1758V105.978H83.9141V67.6991H124.242V105.978ZM124.242 64.3011H83.9141V58.6389H124.242V64.3011ZM124.242 55.2409H83.9141V49.5787H124.242V55.2409ZM124.242 46.1806H83.9141V38.7064H124.242V46.1806Z" fill="white"/>
<path d="M104.203 88.4246C107.449 88.4246 110.09 86.0368 110.09 83.1015C110.09 80.1662 107.449 77.7784 104.203 77.7784C100.958 77.7784 98.3173 80.1662 98.3173 83.1015C98.3173 86.0368 100.958 88.4246 104.203 88.4246ZM104.203 81.1765C105.378 81.1765 106.333 82.0401 106.333 83.1015C106.333 84.163 105.378 85.0266 104.203 85.0266C103.029 85.0266 102.074 84.163 102.074 83.1015C102.074 82.0401 103.029 81.1765 104.203 81.1765Z" fill="white"/>
</svg>
