<svg width="166" height="166" viewBox="0 0 166 166" fill="none" xmlns="http://www.w3.org/2000/svg">
<g clip-path="url(#clip0)">
<path d="M127.818 0H37.9882C30.2752 0 24 6.27521 24 13.9882V152.012C24 159.725 30.2752 166 37.9882 166H127.819C135.532 166 141.807 159.725 141.807 152.011V13.9882C141.806 6.27521 135.531 0 127.818 0ZM136.451 152.012C136.451 156.772 132.579 160.645 127.817 160.645H37.9882C33.2269 160.645 29.3547 156.772 29.3547 152.011V13.9882C29.3547 9.22848 33.2269 5.35471 37.9882 5.35471H127.819C132.58 5.35471 136.452 9.22808 136.451 13.9882V152.012H136.451Z" fill="white"/>
<path d="M139.129 18.7421H26.6776C25.1978 18.7421 24 19.941 24 21.4196V136.549C24 138.027 25.1974 139.226 26.6776 139.226H139.129C140.609 139.226 141.807 138.027 141.807 136.549V21.4192C141.806 19.9406 140.609 18.7421 139.129 18.7421ZM136.452 133.871H29.3547V24.0968H136.452V133.871Z" fill="white"/>
<path d="M114.749 30.3179C113.703 31.3635 113.703 33.0582 114.749 34.1038L126.797 46.1522C127.843 47.1978 129.538 47.1978 130.583 46.1522C131.106 45.6294 131.368 44.9438 131.368 44.2594C131.368 43.5747 131.106 42.8891 130.583 42.3667L118.535 30.3183C117.489 29.2723 115.794 29.2723 114.749 30.3179Z" fill="white"/>
<path d="M99.7271 32.6091C98.6815 33.6547 98.6815 35.3494 99.7271 36.395L123.824 60.4918C124.869 61.5374 126.564 61.5374 127.61 60.4918C128.133 59.969 128.394 59.2834 128.394 58.599C128.394 57.9146 128.133 57.2287 127.61 56.7063L103.513 32.6095C102.467 31.5635 100.772 31.5635 99.7271 32.6091Z" fill="white"/>
<path d="M82.9034 141.903C78.4742 141.903 74.8711 145.506 74.8711 149.936C74.8711 154.365 78.4742 157.968 82.9034 157.968C87.3325 157.968 90.9356 154.365 90.9356 149.936C90.9356 145.506 87.3325 141.903 82.9034 141.903ZM82.9034 152.613C81.4259 152.613 80.2258 151.412 80.2258 149.936C80.2258 148.459 81.4259 147.258 82.9034 147.258C84.3808 147.258 85.5809 148.459 85.5809 149.936C85.5809 151.412 84.3804 152.613 82.9034 152.613Z" fill="white"/>
</g>
<defs>
<clipPath id="clip0">
<rect width="166" height="166" fill="white"/>
</clipPath>
</defs>
</svg>
