<svg width="128" height="128" viewBox="0 0 128 128" fill="none" xmlns="http://www.w3.org/2000/svg">
<path d="M68.0359 109.161H60.4805C57.2866 109.161 54.688 111.824 54.688 115.097C54.688 118.369 57.2866 121.032 60.4805 121.032H68.0359C71.2298 121.032 73.8283 118.369 73.8283 115.097C73.8283 111.824 71.2298 109.161 68.0359 109.161ZM68.0359 115.871H60.4805C60.064 115.871 59.7249 115.524 59.7249 115.097C59.7249 114.67 60.0637 114.322 60.4805 114.322H68.0359C68.4523 114.322 68.7915 114.67 68.7915 115.097C68.7915 115.524 68.4523 115.871 68.0359 115.871Z" fill="#FFFDFD"/>
<path d="M90.0095 0H38.5072C33.2652 0 29 4.37024 29 9.74198V118.258C29 123.63 33.2649 128 38.5072 128H90.0097C95.2518 128 99.5169 123.63 99.5169 118.258V9.74198C99.5167 4.37024 95.2518 0 90.0095 0ZM94.4798 118.258C94.4798 120.784 92.4746 122.839 90.0095 122.839H38.5072C36.0421 122.839 34.0369 120.784 34.0369 118.258V107.613H94.4798V118.258ZM94.4798 102.451H91.8354V35.8709C91.8354 34.4459 90.708 33.2902 89.3168 33.2902C87.9257 33.2902 86.7983 34.4454 86.7983 35.8709V102.452H34.0369V18.0645H94.4798V102.451ZM94.4798 12.9032H34.0369V9.74198C34.0369 7.21599 36.0421 5.16124 38.5072 5.16124H90.0097C92.4748 5.16124 94.4801 7.21599 94.4801 9.74198L94.4798 12.9032Z" fill="#FFFDFD"/>
<path d="M85.0354 6.45142H84.5316C83.1407 6.45142 82.0131 7.60666 82.0131 9.03216C82.0131 10.4577 83.1405 11.6129 84.5316 11.6129H85.0354C86.4263 11.6129 87.554 10.4577 87.554 9.03216C87.554 7.60666 86.4263 6.45142 85.0354 6.45142Z" fill="#FFFDFD"/>
<path d="M89.317 22.4515C87.9261 22.4515 86.7985 23.6068 86.7985 25.0323V26.8388C86.7985 28.264 87.9259 29.4195 89.317 29.4195C90.7082 29.4195 91.8356 28.2643 91.8356 26.8388V25.0323C91.8353 23.607 90.7079 22.4515 89.317 22.4515Z" fill="#FFFDFD"/>
</svg>
