<svg width="94" height="67" viewBox="0 0 94 67" fill="none" xmlns="http://www.w3.org/2000/svg">
<path d="M42.677 37.2601H45.6202V39.7556H42.677V37.2601Z" fill="white"/>
<path d="M36.7905 37.2601H39.7338V39.7556H36.7905V37.2601Z" fill="white"/>
<path d="M30.9041 37.2601H33.8473V39.7556H30.9041V37.2601Z" fill="white"/>
<path d="M7.35815 46.4092H55.9216V43.9138H10.1178V9.14905H67.6945V6.65363H7.35815V46.4092Z" fill="white"/>
<path d="M16.0043 21.1255V14.4719H23.546V11.9765H13.2446V21.1255H16.0043Z" fill="white"/>
<path d="M76.3406 11.9765V0H0V53.0627H30.904V57.8688L25.0175 63.1916V66.3699H51.3231V63.1916L45.4366 57.8688V53.0627H58.8647V66.3699H94V11.9765H76.3406ZM48.1761 63.8745H28.348L32.9472 59.7163H43.577L48.1761 63.8745ZM33.6636 57.2209V53.0627H42.6769V57.2209H33.6636ZM58.8647 50.5673H2.75964V2.49542H73.5809V11.9765H58.8647V50.5673ZM83.8823 63.8745H68.9825V59.7163H83.8823V63.8745ZM91.2404 63.8745H86.6419V57.2209H66.2228V63.8745H61.6244V35.7634H91.2404V63.8745ZM91.2404 33.268H61.6244V29.1098H91.2404V33.268ZM91.2404 26.6144H61.6244V22.4562H91.2404V26.6144ZM91.2404 19.9608H61.6244V14.4719H91.2404V19.9608Z" fill="white"/>
<path d="M76.5241 50.9837C78.908 50.9837 80.8472 49.2302 80.8472 47.0746C80.8472 44.9189 78.908 43.1654 76.5241 43.1654C74.141 43.1654 72.2018 44.9189 72.2018 47.0746C72.2018 49.2302 74.141 50.9837 76.5241 50.9837ZM76.5241 45.6608C77.3869 45.6608 78.0883 46.2951 78.0883 47.0746C78.0883 47.854 77.3869 48.4883 76.5241 48.4883C75.6621 48.4883 74.9607 47.854 74.9607 47.0746C74.9607 46.2951 75.6621 45.6608 76.5241 45.6608Z" fill="white"/>
</svg>
