<svg version="1.0" xmlns="http://www.w3.org/2000/svg" width="933.333" height="933.333" viewBox="0 0 700 700"><path d="M305.9 3.7v45.6l-.1 41.7-2.1.5c-1.2.2-5.6 1.1-9.7 2-4.1.9-8.6 1.9-9.9 2.1-3.2.7-28.2 8.9-32.3 10.7-21.2 9.4-31.3 14.7-44.6 23.3-4.5 3-8.7 5.4-9.1 5.4-.5 0-15.1-14.2-32.4-31.5C148.4 86.2 133.8 72 133.3 72c-.4 0-14.5 13.8-31.3 30.5L71.6 133l31.9 32c17.6 17.7 32.1 32.2 32.3 32.4.2.2-1.3 2.8-3.3 5.6-10.7 15.2-23.4 40.6-30.2 60.5-3.8 10.9-8.8 29.6-9.8 36.8-.5 3-1.2 4.6-2.3 4.9-1 .2-21.5.3-45.8.2H.4v43.5l.1 43.6 44 .1c24.2.1 44.7.2 45.6.3 1.5.1 2.2 2.5 4.5 15.4.3 1.6 1.2 4.6 1.9 6.8.8 2.1 1.2 3.9 1 3.9-.6 0 7 21.9 10.8 31 6.4 15.3 15.8 32.8 25.2 46.6l2.6 3.8-32.2 32.2-32.3 32.3 30.6 30.5C119 612.2 133 626 133.3 626c.4 0 14.9-14.2 32.2-31.5 17.4-17.3 32-31.5 32.6-31.5.6 0 4.8 2.4 9.2 5.3 4.5 3 10.7 6.8 13.7 8.4 7.2 4 16.4 8.7 17 8.8.3 0 2.1.8 4 1.7 15.8 7.5 35.9 13.8 61.7 19.3l2.2.5v83.7l.1 7.3h87v-91l2.3-.5c1.2-.3 6.4-1.4 11.6-2.5 30.3-6.6 64.5-21.4 89.3-38.7l4.7-3.2 32.3 32.2 32.3 32.3 31-30.8 30.9-30.9-32-32c-17.5-17.6-32-32.1-32.2-32.3-.2-.2 2.6-4.8 6.1-10.2 6.8-10.3 15-25.6 20.6-38.4 6.1-13.7 14.7-42 16.7-55 .3-1.9.8-3.7 1-3.9.3-.3 20.6-.6 45.2-.7 24.6 0 45-.2 45.3-.3.3 0 .5-19.6.5-43.4v-43.4l-45.3.1c-24.9 0-45.5-.2-45.7-.5-.3-.3-.8-2.3-1.1-4.5-.4-2.1-1-5.5-1.5-7.4-.5-1.9-1.1-4.6-1.4-6-.9-4.8-5.7-20.4-9.2-29.9-5.3-14-16.3-36-24.4-48.5-3.9-6-7-11-6.8-11.2.2-.2 14.7-14.8 32.2-32.4l32-32.1-30.5-30.4C580.2 85.8 566.1 72 565.6 72s-15.2 14.3-32.7 31.9L501 135.8l-9.3-6.2c-24.6-16.2-63.1-32.1-88.8-36.6-3.5-.6-7.2-1.3-8.1-1.6-1.7-.5-1.8-3.6-1.8-46V0h-87l-.1 3.7zm62.5 171.7c2.9.4 6.3.8 7.4 1.1 1.1.2 3.6.6 5.7.9 2 .4 4 .8 4.4 1 .3.2 2.3.7 4.4 1 4.4.7 18.8 5.4 27.2 9 31.3 13.1 58.6 35.9 77.5 64.6 12.7 19.4 22.6 43.3 25.6 62 .3 1.9.8 3.8.9 4.1 1.8 2.8 2.6 38.8 1.2 50.9-1.5 13.1-5.8 30.1-10.7 42.6-14.7 37.1-41.5 68-76 87.6-19.5 11.1-40.6 18.4-61 21.3-2.5.3-5.8.8-7.5 1.1-5.3.9-30.7.6-39-.5-21.4-2.8-38.9-8.2-57.6-17.5-8.3-4.2-23.7-13.8-28.8-18.1-28.5-23.6-47.4-50.5-58.1-82.3-6.5-19.5-8.5-32.6-8.5-55.7 0-19 .7-25 4.5-41 11.6-49.2 47.3-93.3 93.5-115.5 13.1-6.3 32.2-12.7 43-14.4 8-1.3 18.4-2.6 21.5-2.9 5.8-.4 24.6.1 30.4.7z"/><path d="M305 348v43.6h87l.1-6.6c0-6.2 0-58.8-.1-73.6v-7h-87V348z"/></svg>